<svg xmlns="http://www.w3.org/2000/svg"><defs><font id="MPlantin-Bold" horiz-adv-x="278"><font-face font-family="MPlantin-Bold" font-weight="5" ascent="800" descent="-200" x-height="450" cap-height="682" bbox="-87 -289 1116 923" underline-thickness="50" underline-position="-55" unicode-range="U+0020-F002"/><glyph glyph-name=".notdef"/><glyph glyph-name="glyph1" horiz-adv-x="0"/><glyph glyph-name="glyph2"/><glyph glyph-name="space"/><glyph glyph-name="space"/><glyph glyph-name="exclam" unicode="!" horiz-adv-x="344" d="M267 82q0-38-26.5-64.5T176-9t-64.5 26.5T85 82t26.5 64.5T176 173t64.5-27T267 81v1zM140 290L93 594q-2 13-3 24t-1 21q0 30 12.5 43t40.5 13l66 1q29-1 41-14t12-43q0-10-1-21t-3-25l-47-303-2-17q-2-16-6-21t-12-5l-30 1q-8-1-12 4t-6 20l-2 18z"/><glyph glyph-name="quotedbl" unicode="&quot;" horiz-adv-x="555" d="M172 352h-24L98 540q-5 17-7.5 33T88 602q0 32 20.5 53t51.5 21q30 0 51-20.5t21-50.5q0-8-3-25.5t-8-36.5q0-1-.5-2.5t-.5-2.5l-48-186zm236 0h-24l-50 187q-5 21-8 37.5t-3 26.5q0 30 21.5 51.5T396 676t51-21 21-50q0-8-3.5-24.5T455 538l-47-186z"/><glyph glyph-name="numbersign" unicode="#" horiz-adv-x="668" d="M38 497h151l41 187h92l-41-187h173l40 187h93l-40-187h82v-93H529l-31-148h131v-92H481L440-21h-92l40 185H213L175-21H82l39 185H38v92h102l31 148H38v93zm225-93l-30-147h173l31 147H263z"/><glyph glyph-name="dollar" unicode="$" horiz-adv-x="521" d="M288 703v-31q67-6 120.5-43t58.5-81v-6q0-17-19.5-30T402 499q-10 0-15.5 3T376 515l-4.5 9-4.5 12q-13 37-32 57.5T288 621V421l5-3q40-24 67.5-42t47.5-36q15-13 27-26.5t22-29.5q16-23 24-50t8-56q0-79-52-128T291-8h-3v-74h-49v73h-3q-46 2-83.5 14T86 41q-7 6-13 12T62 66Q52 77 47 88t-5 20q0 13 8.5 23.5T75 151q3 1 5.5 2.5T86 156q7 3 13.5 4.5T110 162h5q5-1 10.5-5t8.5-10q2-3 7-12t12-24q16-30 37-47t49-24v228q-28 16-45.5 27.5T162 317q-3 2-5.5 4t-5.5 4q-5 4-10.5 8.5T129 343q-39 33-58.5 71T51 494q0 74 50 122t135 55l3 2v30h49zm0-466V40q39 7 61 31t22 58q0 15-4 28t-14 26q-10 12-25.5 25T288 236v1zm-49 213v174q-32-7-52-29t-20-51q0-15 5-28t16-26q8-9 20-18.5t29-20.5l2-1z"/><glyph glyph-name="percent" unicode="%" horiz-adv-x="917" d="M301-18h-70l385 700h71L301-18zm596 188q0-75-41-125.5T756-6q-58 0-99 52t-41 125q0 71 41 121.5t99 50.5q59 0 100-50.5T897 169v1zM754 24h3q24-1 33 27.5t9 101.5q0 95-8.5 128T756 314t-34.5-33.5T713 143q0-62 9.5-90T754 23v1zM300 489q0-75-40.5-126.5T160 311q-58 0-99 52.5T20 489q0 71 40.5 122t98.5 51q59 0 100-50.5T300 488v1zM157 342h3q24-1 33.5 27.5T203 471q0 95-9 128t-35 33q-25 0-33.5-33T117 462q0-63 9-91t31-30v1z"/><glyph glyph-name="ampersand" unicode="&amp;" horiz-adv-x="781" d="M397 426l8-11 63-77 71-93 6-8 20 25q8 8 13.5 18t9.5 20q4 9 6 19t2 19q0 18-9 29t-27 14q-7 2-10.5 6t-3.5 12v23q0 4 2.5 6t6.5 2l176 1q13-1 16-3t3-12v-19q0-6-2-9.5t-7-5.5l-22-10q-11-7-24.5-18.5T667 326q-8-9-15.5-19T637 287l-63-90 38-57q15-24 33-43t36-33q15-11 29-18t27-9q9-1 12.5-4.5T753 24V-2q0-8-4-9.5T724-13H611q-26 0-46 5.5T527 11q-14 10-27.5 24.5T470 70l-6 8q-16-14-27.5-22.5T415 40q-2-1-5-3l-6-4q-5-2-10-5t-11-6Q347 4 306-5t-85-9q-93 0-149.5 44T15 147q0 6 .5 11.5T17 170q7 43 40.5 85t88.5 76l70 44 9 6-6 9q-37 50-51 79t-14 54q0 13 4.5 26.5T171 576q10 19 27.5 37.5T239 648q9 6 17.5 11t17.5 10q24 12 47.5 19t43.5 7q26 0 51-10.5t48-33.5q22-21 33-43t11-46q0-5-.5-9.5T506 543q-5-18-18-37t-35-39q-2-2-4.5-4t-4.5-3l-1.5-1.5-1.5-1.5q-8-6-17.5-13T397 425v1zm-131-94l-10 13q-35-19-57-42.5T171 254q-1-4-1.5-8t-.5-8q0-23 12-51t35-57q10-12 20-22.5T256 88q18-15 36-23t33-8q13 0 28 4.5T383 74q14 8 27.5 18.5T436 116q-3 4-5 7t-4 5q-8 11-28.5 37T346 231l-80 101zm39 199l57-68q19 10 32 20.5t21 20.5q5 8 8 15.5t3 15.5q0 12-8 28.5T396 598q-15 20-30.5 29.5T333 637q-22 0-37.5-13T280 591q0-6 1-12t3-13q3-9 8.5-18t12.5-18v1z"/><glyph glyph-name="quotesingle" unicode="'" d="M151 352h-23L77 539q-5 16-7.5 32T67 601q0 32 20.5 53.5T139 676q30 0 51-21t21-51q0-10-3-26.5t-8-39.5l-49-186z"/><glyph glyph-name="parenleft" unicode="(" horiz-adv-x="417" d="M401-154l-20-43Q270-142 192.5-34T99 194q-2 13-3 26.5T95 247q0 12 1 24.5t2 24.5q14 120 90 229.5T376 695l20-44q-8-9-16-16.5T365 619q-37-38-62.5-78T258 455q-10-27-18-57t-13-61q-4-24-6-47t-2-45q0-117 48.5-224T401-154z"/><glyph glyph-name="parenright" unicode=")" horiz-adv-x="417" d="M9 653l20 43q111-56 188.5-164.5T311 303q2-13 3-26.5t1-26.5q0-12-1-24.5t-2-24.5Q298 81 222-28T34-197l-20 45q10 9 19.5 18.5T51-115q35 37 59 75t42 81q11 28 19 59t13 63q3 23 5 45.5t2 43.5q0 117-49 225T9 652v1z"/><glyph glyph-name="asterisk" unicode="*" horiz-adv-x="510" d="M413 282l-40-25-118 106-119-108-37 27 64 149-137 77 14 45 155-17 37 160h41l35-157 163 16 14-46-135-78 63-149z"/><glyph glyph-name="plus" unicode="+" horiz-adv-x="667" d="M61 383h220v219h104V383h221V278H385V59H281v219H61v105z"/><glyph glyph-name="comma" unicode="," horiz-adv-x="344" d="M78-164v25q0 7 3.5 10.5T92-125q42 1 72.5 28.5T195-32q0 16-8.5 26.5T164 7l-35 7q-24 4-38 23.5T77 87q0 39 23 62.5t61 23.5q53 0 85.5-41.5T279 22q0-81-54-142T97-181q-10 0-14.5 4.5T78-164z"/><glyph glyph-name="hyphen" unicode="-" horiz-adv-x="458" d="M55 186v129h349V186H55z"/><glyph glyph-name="period" unicode="." horiz-adv-x="344" d="M273 82q0-38-27-64.5T181-9q-37 0-64 26.5T90 82t27 64.5 64 26.5q38 0 65-27t27-65v1z"/><glyph glyph-name="slash" unicode="/" d="M297 677L79-15H-24l218 692h103z"/><glyph glyph-name="zero" unicode="0" horiz-adv-x="521" d="M488 328q0-143-66-241.5T261-12q-94 0-161 100.5T33 329q0 137 67 235t159 98q96 0 162.5-97.5T488 327v1zm-310 12v-78q0-47 2.5-84t8.5-64q8-36 27.5-58.5T261 33q21 0 39.5 16.5T327 93q10 30 13 72t3 127q0 82-1.5 137t-6.5 90q-6 44-26 71t-49 27h-6q-13-2-25-10t-19-20q-10-16-16-34.5t-9-39.5q-1-6-1.5-12t-1.5-11q-2-24-3-54.5t-1-96.5v1z"/><glyph glyph-name="one" unicode="1" horiz-adv-x="521" d="M330 663V117q0-39 21.5-59T415 38l18 1V0H95v39h11q56-1 74 21t18 88v275q0 59-17.5 80T112 524l-17 1v44q15 3 31.5 10t33.5 15q20 9 38.5 19.5T233 635q11 7 20 13.5t16 13.5l61 1z"/><glyph glyph-name="two" unicode="2" horiz-adv-x="521" d="M474 177L417 0H32v45q4 3 7 5.5t6 5.5h.5l.5 1q5 4 10.5 9.5T72 81q40 40 67 68.5t49 54.5q7 9 13.5 17.5T215 239q6 9 12.5 18.5T241 277q35 52 51.5 91.5T309 443q0 53-36 88t-91 35q-20 0-37.5-4.5T110 547q-10-6-19.5-13.5T70 516l-27 32q47 55 102 84.5T258 662q75 0 127-46t52-113q0-11-1-21.5t-3-21.5q-7-37-26.5-74.5T356 314q-17-19-42.5-45T260 215l-7.5-7.5-7.5-7.5q-17-17-34-33t-32-30l-15-13h169q47-1 65.5 9.5T429 176l45 1z"/><glyph glyph-name="three" unicode="3" horiz-adv-x="521" d="M68 513l-29 38q11 12 18 20t14 15l3.5 3.5L78 593l10 8 11 9q32 26 72.5 39t87.5 13q78 0 126-37.5t48-97.5q0-41-26-74t-79-58q65-25 100.5-69t35.5-99q0-98-84-169T180-13q-58 0-97.5 16.5T43 44q0 6 3 14.5T55 76q7 11 14.5 16T88 97h4.5l4.5-1q12-1 24.5-8.5T152 65q12-10 21.5-16T191 39q7-2 13.5-3t13.5-1q47 0 78 38t31 94q0 59-35 92.5T184 303q-10 1-18 2l-16 2q-11 1-22.5 1.5T99 309l8 44q86-1 138 33.5t52 92.5q0 41-30 68t-76 27q-9 0-17.5-1t-17.5-3q-18-6-38.5-19.5T68 512v1z"/><glyph glyph-name="four" unicode="4" horiz-adv-x="521" d="M499 248v-99h-76V-12H299v161H36v90l298 424h89V248h76zm-200 0v298h-2L91 248h208z"/><glyph glyph-name="five" unicode="5" horiz-adv-x="521" d="M431 679l36-18-45-88q-2-7-4-10t-2-4q-1-2-3-3.5t-4-3.5q-2-1-4.5-2.5T400 548h-5l-11-1-32 1H206l-36-84 8-2q25-8 45-13.5t36-11.5q23-8 41.5-16t35.5-18l6-4 6-4q52-33 78.5-77t26.5-95q0-52-25.5-99.5T360 47q-27-18-62.5-31.5T225-4q-18-4-36.5-6T153-12q-49 0-71.5 9T59 28q0 23 12.5 41T99 87q6 0 15-2t20-6 24-8 27-7q18-4 35-6.5t29-2.5q46 0 74 26.5t28 70.5q0 43-28 76.5T232 293q-14 7-29.5 14T169 321q-17 7-29 11t-22 7q-3 1-6.5 2t-6.5 2q-6 2-12.5 3.5T78 350l128 300h204l21 29z"/><glyph glyph-name="six" unicode="6" horiz-adv-x="521" d="M416 663l48-35q-130-53-189.5-114.5T193 350l2-1q9 8 18 15t17 12q20 13 40 19t43 6q75 0 126.5-56.5T491 206q0-93-65-155.5T266-12Q166-12 99.5 65T33 258q0 103 59 195t158 143q19 10 33.5 17t27.5 13q6 3 12 5t13 5q15 6 34 12t46 14v1zm-69-497q-2 81-25.5 121.5T254 328q-37 0-55.5-21.5T180 243q0-103 23-157t66-54q36 0 57 34t21 90v10z"/><glyph glyph-name="seven" unicode="7" horiz-adv-x="521" d="M479 650L253-12h-66l184 540H204q-60-1-78.5-8.5T101 486l-3-15H57l45 179h377z"/><glyph glyph-name="eight" unicode="8" horiz-adv-x="521" d="M177 307q-43 32-69.5 60.5T68 424q-6 15-9.5 30T55 485q0 74 63.5 125.5T273 662q79 0 133-41.5T460 519q0-4-.5-8t-.5-7q-4-24-17-46.5T406 415q-5-4-9-7.5t-8-6.5q-2-2-4-3.5t-4-3.5q-8-5-17.5-11.5T339 367q55-32 91.5-73t49.5-84q4-11 6-23t2-23q0-77-66-126.5T253-12q-90 0-148 43T47 142q0 18 4.5 34.5T67 210q14 22 41 45t69 51v1zm51-37l-14 10q-36-29-55.5-64.5T139 142q0-52 28.5-81T245 32q44 0 71.5 26t27.5 67q0 12-2.5 23.5T334 169q-3 5-6 10.5t-7 10.5q-12 16-33 33.5T228 269v1zm71 128q35 16 53.5 44.5T371 505q0 47-28.5 79T272 616q-35 0-60.5-24.5T186 532q0-12 2.5-22t7.5-20q6-10 16-21t25-24q8-7 14.5-12.5T264 422q2-1 3.5-2.5t3.5-2.5q6-5 12.5-9.5T299 397v1z"/><glyph glyph-name="nine" unicode="9" horiz-adv-x="521" d="M108-12L77 27l5 2q18 6 34 13t30 14q27 14 48 28t41 32q1 2 2.5 3.5t3.5 2.5q18 17 33 36.5t25 38.5q5 9 9.5 19.5T317 238q5 15 9 29.5t5 25.5l-2 3q-13-14-34.5-25T250 254q-11-3-21.5-4.5T208 248q-75 0-125.5 56.5T32 445q0 91 64.5 154T255 662q104 0 168.5-76T488 388q0-149-103.5-258T108-12zm229 363l1 8q1 8 1.5 15.5t.5 15.5q1 9 1 18.5V430q0 89-23 138.5T254 618q-37 0-58-37.5T175 476q0-69 24-112.5t61-43.5q5 0 10 .5t10 1.5q16 3 32 10.5t25 17.5v1z"/><glyph glyph-name="colon" unicode=":" horiz-adv-x="344" d="M266 82q0-38-26.5-64.5T175-9t-65 26.5T83 82t27 64.5 65 26.5 64.5-27T266 81v1zm0 288q0-39-26.5-65.5T175 278t-65 26.5T83 369t27 64.5 65 26.5 64.5-26.5T266 369v1z"/><glyph glyph-name="semicolon" unicode=";" horiz-adv-x="344" d="M78-164v25q0 7 4 10.5t11 3.5q42 1 72.5 28.5T196-32q0 16-8.5 26.5T164 7l-35 7q-23 4-37 23.5T78 87q0 40 22.5 63t61.5 23q53 0 85.5-41.5T280 21q0-80-54.5-141T98-181q-10 0-15 4.5T78-164zm193 535q0-39-26.5-66T180 278q-37 0-64 27t-27 65 26.5 64.5T180 461t64.5-26.5T271 370v1z"/><glyph glyph-name="less" unicode="&lt;" horiz-adv-x="667" d="M605 56L62 283v94l543 227V491L205 330l400-160V56z"/><glyph glyph-name="equal" unicode="=" horiz-adv-x="667" d="M62 267h543V162H62v105zm0 233h543V395H62v105z"/><glyph glyph-name="greater" unicode="&gt;" horiz-adv-x="667" d="M62 604l543-226v-95L62 56v114l400 160L62 491v113z"/><glyph glyph-name="question" unicode="?" horiz-adv-x="458" d="M259 82q0-38-26.5-64.5T168-9t-65 26.5T76 82t27 64.5 65 26.5 64.5-27T259 81v1zM131 332l-7 74v-.5 1.5q-1 1-1 1.5v.5q0 11 7.5 17t26.5 10l25 7 26 5q53 10 80 31t27 52q0 3-.5 5.5t-.5 5.5q-3 16-14 31t-27 25q-10 6-20.5 9.5T231 611q-10 0-24-3t-28-7q-8-3-15-5.5t-14-5.5l-39-16q-4-3-8-4.5t-8-2.5q-8-2-15-3.5T68 562q-21 0-34.5 18.5T20 627q0 29 31.5 48.5T129 695q110 0 193-74.5T405 448q0-43-18-71.5T329 328q-18-10-37.5-16t-39.5-9l-33-4q-18-3-24.5-11t-6.5-27v-4l1-10q0-8-2.5-10.5T174 234l-21 1q-8-1-10.5 1.5T139 248l-8 84z"/><glyph glyph-name="at" unicode="@" horiz-adv-x="930" d="M577 452l119 5-89-307q-7-26-11-45t-4-31q0-17 12-28.5T632 34q4 0 9 1l10 2 9.5 2.5L668 43q78 36 126 117t48 178q0 136-87 222t-226 86q-185 0-308-129T98 195Q98 26 205-81.5T480-189q137 0 245.5 73.5T880 80l30 1Q852-62 740.5-139T479-216q-189 0-311 120.5T46 212q0 202 133.5 333T518 676q158 0 255-90.5T870 346q0-147-84.5-246.5T577 0q-46 0-72.5 23T478 87q0 8 1.5 21t5.5 26q1 5 2 9l2 8-2 3q-22-39-37.5-62.5T420 52q-9-10-18-17.5T382 19q-3-1-6-3l-6-4q-10-7-22.5-9.5T321 0q-38 0-60 29t-22 80q0 9 .5 18.5T241 146q10 94 64.5 180T440 456q12 7 25 10t26 3q31 0 47.5-18t21.5-58l2 1 15 58zm-73-17q-4-1-8.5-2.5T486 429q-6-4-12.5-10T462 407q-19-26-36-61.5T396 274q-14-39-22.5-75.5T365 135q0-20 8-33.5T393 88q7 0 16.5 5.5T429 108q4 5 8.5 9.5t8.5 9.5q22 28 40.5 61.5T517 258q10 29 15.5 57t5.5 53q0 29-9.5 47.5T504 434v1z"/><glyph glyph-name="A" unicode="A" horiz-adv-x="781" d="M451 257H218l-30-85q-1-4-2-7.5t-2-7.5q-5-15-7.5-28.5T174 106q0-27 16.5-41T241 46V0H6v47q35 5 54.5 16.5T96 104q6 12 12.5 26.5T122 164l184 469-26 57h186l213-546q5-12 9-22t9-18q16-32 34-45t44-13V0H436v47q32 0 52 13t20 34v5q-1 4-2.5 9t-4.5 17q-1 7-2.5 11.5T496 143l-45 114zm-22 59l-99 251-89-251h188z"/><glyph glyph-name="B" unicode="B" horiz-adv-x="781" d="M29 682h437q121-1 187.5-43T720 521q0-38-21-71.5T640 395q-8-5-15.5-8.5T610 380q-9-4-18.5-7t-20.5-6q-8-2-17.5-4t-20.5-4v-1q101-16 154.5-60T741 186q0-46-26-87t-70-64l-8-4-8-4q-35-16-76.5-22T437 0H31v47h4q49-1 65.5 21t16.5 86v373q0 62-16.5 85T38 635l-9 1v46zm265-353V157q0-58 24.5-85T394 45q74 0 115.5 35.5T551 180q0 66-44.5 107T391 328l-97 1zm0 48h99q32-1 51 3.5t36 16.5l6 4 6 5q20 17 29.5 39t9.5 51q0 36-14 65.5T477 610q-5 4-9.5 6.5T458 622q-15 8-31.5 10.5T381 635l-87 1V377z"/><glyph glyph-name="C" unicode="C" horiz-adv-x="802" d="M682 223h75V56Q697 22 620 4T463-14q-187 0-300.5 93.5T49 327q0 164 113 266t292 102q73 0 141.5-15.5T729 633l20-157h-74q-2 4-3.5 8.5T668 493q-3 8-6.5 14.5T654 521q-6 9-14.5 19T619 564q-40 44-81 64.5T449 649q-97 0-153-78.5T240 357q0-147 63-236t166-89q53 0 98.5 25.5T640 127q6 10 11 18t8 15q2 5 4 9l4 8 6.5 19.5L682 222v1z"/><glyph glyph-name="D" unicode="D" horiz-adv-x="875" d="M30 682h414q44-1 73-3.5t55-7.5q5-2 10.5-3t11.5-3q23-6 43.5-15t38.5-20q69-43 108-117.5T823 349q0-122-70.5-212.5T563 15q-7-2-13-3.5T537 9q-28-6-62-8t-94-1H30v47h8q47-1 63.5 21.5T118 154v373q0 62-16.5 85T38 635l-8 1v46zm265-46V166q0-66 24-92.5T404 47q8 0 17 .5t18 1.5q20 2 39 6.5T510 66q58 25 91 93.5T634 325q0 38-5 74t-16 70q-9 29-24.5 54.5T552 571q-1 2-2.5 3.5T546 577q-33 33-73.5 44.5T354 634l-33 2h-26z"/><glyph glyph-name="E" unicode="E" horiz-adv-x="750" d="M687 682V538h-66l-7 8q-16 19-28.5 32T561 601q-9 6-18 11t-19 9q-1 0-2 .5t-2 1.5q-17 6-36 9t-48 3l-140 1V381h94q59-1 87 6.5t44 26.5q4 4 6.5 8t4.5 7q3 5 5 9.5t4 11.5q2 3 3 7l2 8 66 1V245h-66q-7 28-23 49.5T485 324q-14 6-34 8t-60 2l-95 1V152q0-61 24.5-83.5T410 46q44 0 69 2.5T525 60q8 3 15.5 6.5T556 75q15 9 28.5 17.5T610 113q11 9 22 20.5t23 26.5l7 9h69L702 0H30v47h10q46-1 62.5 21.5T119 154v373q0 62-16.5 85T40 635l-10 1v46h657z"/><glyph glyph-name="F" unicode="F" horiz-adv-x="686" d="M666 682V538h-65q-9 13-19 25t-19 22q-13 14-26 23t-25 14q-16 7-39.5 10t-57.5 3l-121 1V371h68q63-1 90 6t44 27q4 5 7 8.5t5 7.5q5 8 7.5 16.5T519 458l67 1V232h-68q-9 36-24 55.5T453 315q-5 1-9.5 2.5T435 319q-13 3-28 4t-44 1l-69 1V155q0-64 17-86.5T376 46l18 1V0H32v47h6q46-1 62.5 21.5T117 154v373q0 62-16.5 85T38 635l-6 1v46h634z"/><glyph glyph-name="G" unicode="G" horiz-adv-x="844" d="M743 480h-64q-32 76-95.5 121T446 646q-99 0-152-77t-53-220q0-150 60.5-233.5T471 32q30 0 54 6.5T571 59v126q0 62-16 85t-63 23l-9 1v46h342v-46q-48-5-62.5-25.5T748 184V40q-31-18-92-31T528-10q-21-2-41.5-3T446-14q-184 0-290.5 91T49 327q0 79 26.5 144T157 588q29 28 61.5 48.5T285 669q38 14 82 20.5t94 6.5q16 0 32-1l32-2q61-6 117.5-21.5T732 635l11-155z"/><glyph glyph-name="H" unicode="H" horiz-adv-x="875" d="M296 380h281v147q0 62-16.5 85T497 635l-8 1v46h355v-46h-8q-48-1-65.5-24T753 526V155q0-64 17.5-86.5T836 46l8 1V0H493v47h4q47-1 63.5 21.5T577 154v167H296V155q0-64 17.5-86.5T378 46l4 1V0H22v47h18q47-1 63.5 21.5T120 154v373q0 62-16.5 85T40 635l-18 1v46h360v-46h-4q-47-1-64.5-24T296 526V380z"/><glyph glyph-name="I" unicode="I" horiz-adv-x="406" d="M379 47V0H27v47h7q46-1 62.5 21.5T113 154v373q0 62-16.5 85T34 635l-7 1v46h352v-46h-7q-48-1-65-24t-17-86V155q0-64 17-86.5T372 46l7 1z"/><glyph glyph-name="J" unicode="J" horiz-adv-x="406" d="M30 682h348v-46h-5q-46-1-63-24t-17-86V111q0-90-11-138t-40-85q-28-37-74.5-60.5T71-201q-6 0-11.5-.5T49-202q-46 0-77 22.5T-59-124q0 22 18.5 37.5T5-71q23 0 36-9.5T59-111q1-2 1.5-4t.5-4q5-14 10.5-19t14.5-5q17 0 24 17.5t7 58.5v594q0 62-16.5 85T37 635l-7 1v46z"/><glyph glyph-name="K" unicode="K" horiz-adv-x="781" d="M470 636v46h276v-46q-5-2-10-3l-10-2q-14-3-25.5-7t-22.5-9q-16-8-35-22.5T594 553L427 414l247-282q29-34 52-53t45-27q6-2 11-3.5t11-2.5V0H580l-10 8q-23 19-37.5 32T508 65q-2 2-4 4.5t-4 4.5L293 318V155q0-64 17-86.5T373 46l6 1V0H28v47h11q47-1 63.5 21.5T119 154v373q0 62-16.5 85T39 635l-11 1v46h353v-46h-8q-46-1-63-24t-17-86V368l149 121q6 4 11.5 8.5T464 507q29 27 46.5 51t17.5 39q0 17-14 27.5T477 635l-7 1z"/><glyph glyph-name="L" unicode="L" horiz-adv-x="686" d="M617 170h62L650 0H36v47h4q46-1 62.5 21.5T119 154v373q0 62-16.5 85T40 635l-4 1v46h350v-46h-9q-47-1-64-24t-17-86V163q0-65 21.5-90.5T393 47q41 0 77 12t71 38q19 14 38 32t38 40v1z"/><glyph glyph-name="M" unicode="M" horiz-adv-x="1010" d="M996 47V0H645v47q2-2 4.5-2h5.5q39 0 58.5 20t19.5 60q0 14-2 34t-4 41q-2 11-3.5 22t-3.5 21l-13 68-7 50-18 146h-2l-7-17q-7-17-11-26.5t-5-11.5q-4-10-13.5-29L619 374q-43-85-73.5-155T496 93q-3-9-5.5-17T486 61q-1-2-1.5-4t-.5-4q-3-11-6.5-23.5T469 0h-63q0 1-.5 2.5T404 6q-2 8-4 15l-4 14q-7 24-16.5 51.5T353 155q-7 18-12.5 32T329 213q-1 3-2 5t-2 5q-6 14-13.5 28.5T295 286q-26 51-38 77t-21 47q-1 1-1.5 2t-.5 3q-1 2-2 4.5t-2 4.5l-22 54-7 20h-2l-53-312q-2-17-3.5-31t-1.5-27q0-37 20-59.5T215 46l16 1V0H5v47h5q29-1 45 21.5T85 154q2 9 4.5 19.5T94 196l58 324q3 13 4 25.5t1 22.5q0 31-18.5 48T83 635v47h251q0-22 4.5-44.5T350 588q8-26 22-59.5t39-86.5q18-38 30-65t19-44l34-80 5-10q3 9 7.5 19.5T516 285q1 4 3 8.5t4 8.5q6 14 11.5 26t10.5 21l25 48 54 110q20 40 29 74t9 65q0 10-.5 15.5T660 672q0 2-.5 4.5T658 681l273 1v-46h-14q-37-1-54-16.5T846 569q0-8 1-21.5t3-27.5q1-3 1.5-7t.5-7l55-326 8-56q6-38 27-57.5T996 46v1z"/><glyph glyph-name="N" unicode="N" horiz-adv-x="792" d="M287 47V0H16v47h6q38-1 61.5 15.5T114 111q1 3 1.5 5.5t.5 5.5q3 14 3.5 30t.5 40v13l-5 378-4 4q-18 13-33.5 23T47 626q-8 3-16.5 5.5T13 635v47h246l376-427 2 2-7 190q-1 64-8 104.5T604 605q-13 15-32.5 22t-55.5 8v47h258v-46q-1-2-2.5-2H769q-55-7-70.5-31.5T683 498v-5l6-317q0-8 .5-16t.5-16q1-13 2.5-25.5T696 97l6-29q1-8 2-15.5t2-14.5q1-5 1-10V4q0-4-.5-7t-1.5-7h-68L163 530l-2-2 8-300q2-59 8.5-95.5T197 79q14-16 35-24.5t48-8.5l7 1z"/><glyph glyph-name="O" unicode="O" horiz-adv-x="875" d="M824 346q0-160-109.5-260T432-14q-172 0-276.5 95T51 331q0 74 23.5 133T148 575q58 59 132 89.5T440 695q77 0 148-24t126-69q54-45 82-110t28-147v1zm-194-14q-4 148-55.5 229.5T432 643q-89 0-138-74.5T245 360v-24q1-24 3.5-48t6.5-46q17-97 67.5-152.5T444 34q50 0 94 30t64 79q14 34 21 75.5t7 95.5v18z"/><glyph glyph-name="P" unicode="P" horiz-adv-x="729" d="M26 682h387q112-1 162-14.5t88-54.5q1-1 2-2.5t2-2.5q21-24 32.5-54.5T711 491q0-91-73-140.5T428 301q-48 0-61.5 6T353 333q0 12 3 16.5t12 4.5h1l.5-.5.5-.5h36q53-1 84.5 35t31.5 96q0 8-1 15.5t-2 16.5q-3 16-8.5 31.5T498 574q-20 33-53 47t-89 14l-63 1V155q0-64 17-86.5T373 46l13 1V0H26v47h11q47-1 63.5 21.5T117 154v373q0 62-16.5 85T37 635l-11 1v46z"/><glyph glyph-name="Q" unicode="Q" horiz-adv-x="865" d="M302-1l-9 5Q172 42 109 125.5T46 332q0 74 23.5 132.5T143 575q58 59 132 89.5T435 695q170 0 277-96.5T819 348q0-121-66.5-212.5T570 6q14-7 28.5-13.5T629-21q17-7 37.5-13.5T712-49q45-14 76-21.5T840-81v-112q-9-1-14-2t-10-1h-16q-30 0-66.5 6T659-174q-29 8-57 18t-53 22q-5 2-17 8l-30 15-51 26L302-1zm323 333q-4 148-55.5 229.5T427 643q-89 0-138-74.5T240 360v-24q1-24 3.5-48t6.5-46q17-97 67.5-152.5T439 34q50 0 94 30t64 79q14 34 21 75.5t7 95.5v18z"/><glyph glyph-name="R" unicode="R" horiz-adv-x="771" d="M299 306V155q0-64 16-86.5T377 46l7 1V0H30v47h13q46-1 62.5 21.5T122 154v373q0 62-16.5 85T43 635l-13 1v46h400q67-1 99-3.5t57-11.5q3-1 5.5-2t5.5-2q51-20 82-63.5t31-94.5q0-64-49.5-113T534 331q6-7 10-12l8-10h1v-1q6-6 11.5-13t14.5-18q7-9 13-17l12-16q1 0 1.5-1t1.5-2q9-12 18.5-25t22.5-31q31-43 55.5-72.5T747 65q4-4 7.5-6.5T762 54q5-3 10.5-4.5T785 47V0H600l-6 1q-18 4-38 25t-52 67l-63 89q-40 57-61.5 85T351 299q-6 3-15.5 4.5T309 305l-10 1zm0 330V352h25q46-1 67.5.5T429 358q5 1 9 2t9 3q35 11 55 44.5t20 79.5q0 37-13.5 68T472 605q-20 17-44.5 23.5T362 635l-63 1z"/><glyph glyph-name="S" unicode="S" horiz-adv-x="656" d="M574 489h-80q-10 69-58.5 113.5T322 647q-47 0-76.5-23.5T216 562q0-19 9.5-36.5T254 494q5-3 9.5-6.5t9.5-6.5q18-12 44.5-25t71.5-33q39-17 67-31t49-27q23-15 39.5-30.5T575 300t22.5-42 11.5-48q1-6 1.5-12t.5-12q0-94-76-147T326-14q-26 0-55.5 2.5T211-4q-42 6-82 17T58 37l-4 170h81l3-9q17-60 39.5-90.5T240 55q20-10 41-15.5t43-5.5q50 0 82.5 25.5T439 124q0 40-24.5 70T340 247l-92 42q-25 10-46 21t-38 21q-26 16-44.5 32T86 398q-17 22-26 48t-9 53q0 86 77 141t195 55q14 0 27.5-.5T378 692q27-3 55-9t61-17q14-4 24-7.5t17-6.5q3-1 5.5-2t4.5-2q5-2 10-4.5l11-5.5 8-149z"/><glyph glyph-name="T" unicode="T" horiz-adv-x="740" d="M719 682V535h-64q-37 52-75.5 76T494 635l-35 1V155q0-64 16.5-86.5T538 46l9 1V0H196v47h9q46-1 62.5 21.5T284 154v482h-35q-44-1-80.5-22T97 547q-3-3-5-6t-5-7l-63 1v147h695z"/><glyph glyph-name="U" unicode="U" horiz-adv-x="833" d="M569 682h250v-46q-52-10-71.5-33.5T728 524V281q0-72-4.5-106T705 115q-3-6-7-12t-9-13q-37-53-102-78.5T426-14q-88 0-151.5 19.5T173 64q-5 5-9 9.5t-8 9.5q-26 33-34.5 75T113 288v239q0 62-16.5 85T33 635l-9 1v46h356v-46h-14q-46-1-62.5-24T287 526V290q0-62 6.5-96.5T316 134q22-34 62-51.5T473 65q103 0 155 53.5T680 277l-4 228q-1 41-6.5 62.5T649 605q-13 16-30.5 22.5T569 635v47z"/><glyph glyph-name="V" unicode="V" horiz-adv-x="729" d="M403-14h-77q-3 14-8.5 32T305 55q-3 8-6 16.5T293 88q-4 9-7.5 18t-6.5 16L107 508l-18 40q-18 41-37.5 62.5T9 635v47h317v-46q-32-2-48.5-13T261 592v-2q0-9 4.5-21t15.5-36l152-334 113 276q10 25 15 40.5t6 29.5q1 3 1 6.5v7.5q0 38-17.5 55.5T494 635v47h217v-46q-16-5-27-11.5T663 604q-7-9-14-23t-15-33l-19-41-144-322q-6-15-14.5-36.5T440 102q-3-7-5-14t-5-14q-6-20-12-39T407 0l-4-14z"/><glyph glyph-name="W" unicode="W" horiz-adv-x="1031" d="M753-14h-90q-2 13-5.5 28.5T650 46q-4 15-8 29.5t-8 27.5q-2 5-4 10.5t-4 10.5L515 409l-71-202-42-110q-4-13-7.5-22.5T388 56q-2-4-3-7t-2-7q-3-11-7-25t-9-31h-85q-1 3-1.5 5T279-5q-1 5-5 18.5T262 48q-1 5-5 18t-11 34-12 38-10 29L89 536q-16 46-35 70t-44 29v47h295v-46h-6q-19-1-31.5-14.5T255 588v-2q0-7 2.5-16t8.5-27l123-347h2l98 280-31 81q-1 2-2 4.5t-2 4.5q-13 32-29 46t-46 23v47h310v-46h-6q-23-1-37-14.5T632 585v-4.5l1-4.5q0-6 2-12.5t6-17.5l128-346h2l91 276q5 15 8.5 27.5T875 528q1 7 1.5 13.5t.5 13.5q0 35-16.5 54.5T809 635v47h199v-46q-1-2-2.5-2.5t-2.5-.5q-18-8-29.5-18T952 584q-6-12-12.5-29.5T925 513l-74-227q-4-14-10-31t-14-37q-13-34-20-54t-13-37q0-2-1-4t-1-4q-4-11-7.5-23.5T776 67q-7-22-12-40t-8-31l-3-10z"/><glyph glyph-name="X" unicode="X" horiz-adv-x="781" d="M775 47V0H385v47h6q37-1 55 7.5T464 82q0 14-11 35t-32 46l-80 100-94-110q-5-6-9-12t-7-12q-4-9-6.5-17.5T222 96q0-22 19-36t48-14V0H16v47q6-1 12-.5T40 49q28 5 54 20t44 36l45 52 128 146-205 270q-11 13-20 23t-17 17q-14 11-29 15.5T3 635v47h387v-46q-42-3-57.5-11T317 597v-8q2-12 10.5-26.5T358 520l64-84 88 102q13 15 19.5 27t8.5 23v6q0 20-12 29t-40 11h-2l-1.5.5-2.5.5v47h246v-46q-21-4-37.5-10T656 610t-32-25.5-35-37.5L455 397l190-250 50-61q7-10 12.5-16T719 59q11-8 23-10.5t33-2.5v1z"/><glyph glyph-name="Y" unicode="Y" horiz-adv-x="729" d="M381 682v-46q-3-2-4.5-2H373q-42-1-58.5-10.5T298 591v-9q1-8 4.5-16.5T315 542l114-219 104 185q14 25 19.5 39.5T558 575q0 26-18.5 42.5T487 635v47h229v-46q-18-5-32.5-13.5T655 600q-12-12-24-28.5T605 531L450 269V155q0-63 17.5-86T531 46l15 1V0H182v47h16q47-1 63 21.5t16 85.5v94L127 532l-25 50q-13 24-31 36t-49 16l-8 2v46h367z"/><glyph glyph-name="Z" unicode="Z" horiz-adv-x="686" d="M638 682l-1-30L241 47h137q35-1 63 5.5T490 72q6 4 13 9t14 11q5 5 10 9.5t10 8.5q6 6 11 11.5t9 10.5l28 38h71L623 0H30v36l393 600H306q-41-1-63.5-5.5T200 612q-9-7-18.5-17T160 571l-34-40H63v151h575z"/><glyph glyph-name="bracketleft" unicode="[" horiz-adv-x="396" d="M341-133v-47H73v867h268v-47h-38q-57-1-71-16.5T218 545V-27q0-74 11.5-90t64.5-16h47z"/><glyph glyph-name="backslash" unicode="\" d="M-24 677H78L297-15H192L-24 677z"/><glyph glyph-name="bracketright" unicode="]" horiz-adv-x="396" d="M46 640v47h267v-867H46v47h37q58 0 72 15.5T169-39v573q0 73-11.5 89T92 639l-46 1z"/><glyph glyph-name="asciicircum" unicode="^" horiz-adv-x="581" d="M72 325l200 351h40l198-351h-78L288 575 146 325H72z"/><glyph glyph-name="underscore" unicode="_" horiz-adv-x="500" d="M-9-225h518v-64H-9v64z"/><glyph glyph-name="grave" unicode="`" horiz-adv-x="333" d="M18 672h147l57-169h-42L18 672z"/><glyph glyph-name="a" unicode="a" horiz-adv-x="561" d="M540 104l8-48q-21-32-51-49.5T434-11q-37 0-61 16t-37 50q-17-15-32-26t-30-19Q252-1 228-6t-53-5q-64 0-103.5 28.5T32 92q0 38 28 71.5t76 54.5q6 2 12.5 4.5T161 228q21 7 45.5 14.5T258 256l62 15 14 4v74q0 28-19 45.5T263 412t-53.5-17-20.5-45q0-8 1.5-17t5.5-22L63 270q-7 17-11 33t-4 32q0 60 63 93t176 33q63 0 106.5-12.5T456 412q1-2 2.5-3.5l2.5-2.5q10-14 13.5-31t3.5-48V163q0-44 5-58t19-14q4 0 8.5 1.5T520 96l14 6 6 2zm-206 1v124q-79-21-112.5-44T188 128q0-28 16.5-47.5T245 61q19 0 40 10.5t49 32.5v1z"/><glyph glyph-name="b" unicode="b" horiz-adv-x="604" d="M211 693V387l15 12q29 22 50.5 35t40.5 19q14 4 27.5 6t29.5 2q83 0 137.5-63.5T566 238q0-112-77-180.5T285-11q-63 0-116.5 15.5T66 53v510l-75 49v24l188 57h32zm0-360V171q0-66 22-100t65-34q50 0 82 45t32 117q0 71-34 117.5T291 363q-6 0-11.5-.5T269 361q-13-3-26.5-10T211 332v1z"/><glyph glyph-name="c" unicode="c" horiz-adv-x="521" d="M448 145l37-34q-30-59-89.5-90.5T259-11q-52 0-91 15.5T97 54q-30 32-46 74.5T35 217q0 111 73.5 177.5T305 461q77 0 123-29t46-79q0-28-20-49t-49-21q-24 0-40.5 17T336 354q-11 33-25 45.5T272 412q-43 0-71-35t-28-91q0-81 48.5-138T338 91q17 0 30.5 2.5T395 103q12 6 25 16t28 25v1z"/><glyph glyph-name="d" unicode="d" horiz-adv-x="615" d="M531 699V168l1-36q2-42 12-56.5T582 61h7q3 1 7.5 1.5T607 65V12L432-9h-45v75q-13-14-26.5-25T333 22Q306 5 279.5-3T225-11q-81 0-136.5 63.5T33 210q0 108 70 179.5T278 461q12 0 23-1t21-3q15-2 30.5-7t34.5-12v141l-78 41v32l195 47h27zM387 114v165q0 66-22.5 99.5T297 412q-48 0-79-46.5T187 246q0-71 34-118.5T307 80q19 0 38.5 8t41.5 25v1z"/><glyph glyph-name="e" unicode="e" horiz-adv-x="521" d="M452 143l40-29q-48-63-107-94T255-11q-99 0-159 61.5T36 214q0 110 67 178.5T278 461q96 0 153.5-55.5T490 255l-316 1q5-68 52-115.5T334 93q8 0 15.5 1t14.5 2q20 4 41 15t47 31v1zM171 302h165v2l1 2v4q0 47-22.5 75.5T256 414q-38 0-61.5-31T171 301v1z"/><glyph glyph-name="f" unicode="f" horiz-adv-x="354" d="M337 450v-59h-94V150q0-59 16.5-81.5T317 46l28 1V0H31v47q41 4 54.5 24T99 149v242H22v59h9q33-1 46 9t20 40q20 93 82.5 143T338 692q68 0 106-20.5t38-58.5v-6q-2-16-13-30.5T441 552q-10-5-19.5-8t-18.5-3q-12 0-21 3.5T364 557q-5 5-10.5 12T342 585q-12 20-21 31.5T304 633q-5 3-10 4t-10 1q-21 0-30-16t-10-54l-1-28v-90h94z"/><glyph glyph-name="g" unicode="g" horiz-adv-x="552" d="M547 451v-96q-3-1-5-1.5t-4-.5q-2-1-4-1h-21q-6 1-11.5 1.5t-9.5.5l-21 3-9 1 1-7 4.5-24 2.5-15v-10q0-68-60.5-107.5T245 155q-5 0-12 .5t-15 1.5q-7 0-13 1t-11 2q-19-13-28-23.5t-9-21.5q0-12 13.5-16t55.5-4l5 1q3-1 13.5-.5T273 97q6 0 14.5.5t17.5.5q9 1 17.5 1H337q34 0 55-3t39-10l4-2 4-2q32-15 51-43.5T509-24q0-53-44.5-97T352-178q-25-5-54-8t-64-3q-96 0-146 23.5T38-96q0 10 3 18.5T51-61q9 10 24 20.5T113-17Q85-9 67 12T49 57q0 33 24 60.5t76 53.5q-49 22-73 54t-24 77q0 73 55.5 116T257 461q22 0 46-1.5t50-3.5q31-4 49.5-5.5T426 449q11-1 22-1.5t23-.5q17 0 33.5 1t34.5 2l8 1zM314-27l-44-1h-18l-18-1q-15-1-24-1.5t-13-.5h-7q-6 0-13 .5T159-29q-19-12-28-24.5T122-81q0-27 33-42t91-15q81 0 128.5 19.5T422-65q0 20-22 29t-72 9h-14zm17 315q0 64-16.5 95T263 414q-33 0-50.5-25T195 318q0-58 18-87t53-29q32 0 48.5 22t16.5 63v1z"/><glyph glyph-name="h" unicode="h" horiz-adv-x="625" d="M229 692V381q34 39 75 59.5t87 20.5q41 0 74-14t50-38q3-3 5-6.5t4-6.5q9-15 11.5-34t2.5-59V150q0-57 12.5-76.5T604 46V0H337v47q35 9 46 28.5t11 73.5v85q0 70-17.5 99T317 362q-15 0-33.5-5T246 342q-4-2-8.5-4.5T229 333V150q0-54 13.5-79T284 46l3 1V0H15v47h4q35-1 50 23t15 79v418l-69 42v29l175 54h39z"/><glyph glyph-name="i" unicode="i" horiz-adv-x="333" d="M242 459V150q0-57 16.5-80.5T312 46l3 1V0H17v47h8q41-1 57 21.5T98 149v182l-81 46v30l175 52h50zm-1 148q0-36-25-61t-60-25-60.5 25T70 606q0 36 25.5 61t60.5 25 60-25 25-61v1z"/><glyph glyph-name="j" unicode="j" horiz-adv-x="313" d="M242 459V130q0-53-1.5-77.5T232 8q-3-6-5.5-12T220-17q-10-19-21-35.5T174-82l-8.5-8.5L157-99q-11-11-23-21l-24-20q-19-15-37.5-27.5T39-188L2-134q3 3 5.5 5t3.5 4q33 34 50 56t25 41q2 4 3.5 8t2.5 8q1 2 1 3.5T94-5q2 9 2.5 25t.5 62v249l-82 49v26l174 53h53zm4 148q0-36-25-61t-61-25q-35 0-60 25t-25 60q0 36 25 61t60 25q36 0 61-25t25-61v1z"/><glyph glyph-name="k" unicode="k" horiz-adv-x="552" d="M223 693V255q2 0 3.5.5t2.5.5q5 3 13 11t20 21l32 35q10 10 16 20t8 19q1 3 1 5.5v4.5q0 15-10.5 23t-30.5 8l-2 1v46h241v-46q-18-2-33-5t-29-9q-15-7-30-17t-33-25q-12-10-20-17t-14-14l-2.5-2.5-2.5-2.5q-4-4-8-8.5t-9-10.5l66-73q8-10 17.5-20t19.5-20l9.5-9.5 9.5-9.5q9-9 18.5-17.5T495 127q21-19 29.5-26.5T536 88l.5-.5.5-.5q1-2 2-3.5t2-3.5q1-3 1.5-6t.5-7V16q0-11-3.5-13.5T521 0h-59.5L453 1q-26 4-52.5 24T342 82L223 220v-70q0-57 11.5-75.5T286 46V0H8v47q43 3 57 23.5T79 149v417L5 602v37l174 54h44z"/><glyph glyph-name="l" unicode="l" horiz-adv-x="311" d="M235 693V150q0-59 13.5-79T303 46V0H7v47h12q36-1 51.5 22.5T86 149v416L7 609v29l193 55h35z"/><glyph glyph-name="m" unicode="m" horiz-adv-x="979" d="M231 459v-83l9 9q22 19 41.5 32.5T320 440q20 10 41.5 14t46.5 4q56 0 91-21t54-68q8 8 14 13.5t11 10.5q3 2 5 4t4 3q5 4 11 8t13 9q12 8 24 14.5t24 10.5q20 9 40.5 12.5T744 458q36 0 63.5-9t46.5-28l2-2 2-2q23-23 31-52t8-88V150q0-57 15-80.5T964 46l4 1V0H686v47q40 7 52 26.5t12 75.5v132q0 43-20.5 65T670 368q-29 0-56.5-10.5T562 326V150q0-57 16.5-80.5T632 46l9 1V0H352v47q39 4 52.5 24.5T418 149v117q0 55-18.5 78.5T338 368q-5 0-10.5-.5T316 366q-25-3-48-14.5T231 325V150q0-57 15.5-80.5T299 46l7 1V0H21v47q40 5 53 25t13 77v177L8 377v31l172 51h51z"/><glyph glyph-name="n" unicode="n" horiz-adv-x="625" d="M234 459v-81q7 6 12 11.5t10 10.5l4 4 5 4q4 3 9 7t11 8q9 7 18 12t17 9q17 7 35.5 10.5T396 458q35 0 61-9t46-29q22-22 30.5-48.5T542 295V150q0-57 12.5-76.5T607 46V0H338v47q35 6 47.5 26.5T398 149v122q0 50-17.5 73T325 367q-6 0-12-.5t-11-1.5q-18-3-35.5-11T234 335V150q0-56 13-77.5T296 46V0H19v47h3q37-1 52.5 22.5T90 149v178l-71 52v27l165 53h50z"/><glyph glyph-name="o" unicode="o" horiz-adv-x="573" d="M536 225v-6q-1-58-28-111t-70-79Q405 9 365.5-1T282-11q-110 0-177.5 62.5T37 216q0 108 72 176.5T293 461q107 0 175-66.5T536 224v1zm-158-62v24q0 109-25 167t-73 58q-46 0-65.5-36.5T195 253q0-109 24.5-163.5T294 35q40 0 61.5 32.5T378 162v1z"/><glyph glyph-name="p" unicode="p" horiz-adv-x="615" d="M228 462v-71q37 34 77 52t81 18q82 0 137-63.5T578 240q0-112-75-181.5T306-11q-11 0-19 .5T271-9q-9 1-19 2.5T228-2v-36q0-56 16-79.5t53-23.5h11v-47H9v47h8q36 0 51.5 23.5T84-38v367l-74 50v30l165 53h53zm0-127V183q0-41 3.5-63T244 81q9-18 27-30.5T308 36q2-1 4.5-1h4.5q44 0 76 47t32 113q0 73-34 121.5T305 365h-6q-16-1-32.5-8.5T228 334v1z"/><glyph glyph-name="q" unicode="q" horiz-adv-x="615" d="M538 462V-38q0-56 16.5-79.5T609-141h4v-47H311v47h10q41 0 57 22t16 81V66q-31-28-53-44T298-1q-14-6-29-8t-33-2q-83 0-139.5 64T40 211q0 110 75.5 180T309 461q45 0 88.5-10.5T484 419v43h54zM394 120v160q0 69-22 102t-69 33q-49 0-79-46.5T194 248q0-70 34.5-115T315 88q10 0 20 2t20 6q9 3 19 9t20 14v1z"/><glyph glyph-name="r" unicode="r" horiz-adv-x="479" d="M238 459V329h2q34 65 70.5 96.5T390 457q35 0 61-21t26-49q0-11-3.5-26.5T464 329q-3-9-6.5-16.5T450 297q-6-11-13.5-17.5T421 271q-2-1-3.5-1H414q-10 0-26 10.5T342 319q-7 7-12.5 10.5T318 334q-1 1-2.5 1H313q-5 0-10.5-2t-10.5-5q-11-7-21.5-21T250 273q-3-7-5-12.5t-4-10.5q-2-7-2.5-14.5T238 217v-67q0-64 17-84t69-20l6 1V0H21v47h5q37-1 52.5 22.5T94 149v179l-80 50v29l171 52h53z"/><glyph glyph-name="s" unicode="s" horiz-adv-x="458" d="M384 428l11-109h-43q-22 42-60.5 67.5T211 412q-31 0-51-13t-20-33q0-8 3.5-15t11.5-14q11-8 31-16.5t52-20.5q35-12 56.5-20.5T331 264q6-3 12-6.5t12-7.5q1-1 2.5-1.5t2.5-1.5q31-20 46.5-48.5T422 134q0-68-48.5-106.5T239-11q-10 0-19.5.5T200-9q-30 3-63 10.5T58 26l-8 4-8 117h44q29-53 68-80t85-27q36 0 58 14.5T319 91q0 18-15 32t-47 24l-72 24q-77 25-113 60.5T36 319q0 67 48.5 104.5T218 461q20 0 44.5-3t49.5-9q18-5 36.5-10.5T384 427v1z"/><glyph glyph-name="t" unicode="t" horiz-adv-x="375" d="M229 566V450h134v-59H229V181q0-71 12-90t58-19q9 0 16.5.5T330 75q8 1 16 4t18 8V33Q339 12 297 .5T209-11q-49 0-83.5 25T86 78q-1 8-1.5 19t-.5 25v269H18v52q44 9 74.5 25t56.5 42q9 10 14.5 16.5T173 540q2 3 3.5 6.5t3.5 7.5q1 3 2 5.5t2 5.5l45 1z"/><glyph glyph-name="u" unicode="u" horiz-adv-x="625" d="M533 450V153q0-54 9.5-71.5T583 64h6q3 1 6.5 1t9.5 1V17L429-9h-40v76q-25-24-45.5-39.5T303 3q-18-7-35.5-10.5T229-11q-58 0-95.5 28T86 96q-1 4-1.5 7t-.5 6q-2 13-2.5 28.5T81 180v105q0 61-10.5 81.5T24 395v46l201 9V194q0-65 17-89.5T302 80q20 0 41.5 8.5T389 113v175q0 61-11.5 81.5T330 395v46l203 9z"/><glyph glyph-name="v" unicode="v" horiz-adv-x="542" d="M536 450v-46q-2-2-3.5-2.5T529 400q-7-4-13-8t-11-10q-8-9-16.5-24.5T466 315L300-11h-59L70 332q-12 23-20.5 37T34 390t-14.5 9.5T2 403v47h261v-46q-25-2-36.5-10.5T215 369q0-9 4.5-20.5T234 315l88-170 70 136q11 22 17 40t6 31q0 24-13 36.5T360 403v47h176z"/><glyph glyph-name="w" unicode="w" horiz-adv-x="771" d="M769 450v-46q-11-4-18.5-9T736 380q-7-9-14-23.5T705 320L563-11h-56L394 238 261-11h-54L78 294l-33 74-4 8-4 7q-7 9-14 13.5T5 403v47h227v-46q-17-2-26.5-9t-9.5-21q0-7 3.5-19.5T209 328l80-176 78 149-24 55-6 12-6 10q-9 14-18.5 19t-26.5 6v47h252v-46q-23-2-34.5-9.5T492 373q0-7 3.5-19t9.5-25q0-1 .5-2.5t1.5-2.5l74-156 60 140q7 15 10 25.5t3 19.5q0 20-14 32.5T599 403v47h170z"/><glyph glyph-name="x" unicode="x" horiz-adv-x="552" d="M11 0v47q21 4 42 16t42 31l119 110L67 373q-8 8-14 13.5T42 395q-6 4-12 5.5T15 402h-2l-3 1v47h267v-46l-6-1q-15-1-23.5-6.5T239 380q0-4 3-10.5t7-13.5q2-2 4-5t4-5l49-56 38 34q16 13 23.5 25t7.5 22q0 14-12 22.5t-35 9.5v47h209v-46q-15-3-31.5-10.5T473 375q-6-4-11.5-8.5T451 357L339 253l133-149q15-17 24.5-27T515 60q5-3 10.5-6t11.5-6q1 0 2.5-.5T542 46V0H270v47q23-1 32.5 5.5T312 74q0 7-5.5 17T288 115l-43 54-44-42q-18-18-26-29.5T167 75q0-13 11.5-20.5T211 46V0H11z"/><glyph glyph-name="y" unicode="y" horiz-adv-x="542" d="M541 450v-46q-10-2-18-6.5T507 383q-9-9-17-24t-18-37L296-63q-31-67-67-96t-89-29q-45 0-72.5 22.5T40-106q0 28 18 47t45 19q10 0 17.5-2.5T136-51q4-3 8-7.5t9-9.5q10-12 16-18.5t11-9.5q3-1 6-1.5t7-.5 7.5 1 6.5 2q14 6 26.5 20T254-42l11 27L68 346q-8 14-14 24t-12 16q-7 9-15.5 12T4 403v47h268v-46q-31-3-43.5-10.5T216 369q0-5 1.5-11t5.5-12l112-205 74 164q5 10 7.5 17.5T420 337v9q0 28-13.5 41.5T363 403v47h178z"/><glyph glyph-name="z" unicode="z" horiz-adv-x="510" d="M482 144L461 0H19l5 47 206 267 68 84 5 6h-62q-43-1-66.5-8T132 369l-8.5-8.5L115 350q-4-5-6.5-8.5T103 334q-1-2-2-3.5t-2-3.5q-3-5-6.5-11.5T85 301l-52 1 12 168h38q0-1 .5-1.5t1.5-.5q12-12 28-15.5t51-3.5l306 1-1-42L203 47h44q24-1 40.5 1t31.5 7q3 1 6.5 2.5T332 60q9 4 17 8.5T365 79q14 10 28 24.5t32 35.5l3 5h54z"/><glyph glyph-name="braceleft" unicode="{" horiz-adv-x="394" d="M333 677v-22q-46-9-70.5-33T238 562q0-16 2.5-36t8.5-43q6-25 9-46.5t3-38.5q0-27-11.5-53T218 298l-6-6-6-6q-15-13-32-22t-43-17q-6-2-13.5-4t-15.5-4v-1q14-5 25.5-9t21.5-8q23-9 38-19t29-24l2-2 2-2q13-14 23-31t14-35q3-8 4-16t1-16q0-13-3-33.5T250 0q-6-24-9-45t-3-38q0-40 23-63t72-33v-23h-17q-75 0-130 46.5T131-44q0 15 4 37t11 51q6 22 9 40.5t3 34.5q0 43-24.5 69.5T62 222v31q46 7 71 34.5t25 71.5q0 16-3 34t-8 38q-7 29-11 51t-4 36q0 4 .5 8t.5 8q5 34 27.5 65t55.5 50q7 4 14 7.5t13 5.5q18 7 38 10t52 4v1z"/><glyph glyph-name="bar" unicode="|" horiz-adv-x="588" d="M241 814h106V-18H241v832z"/><glyph glyph-name="braceright" unicode="}" horiz-adv-x="394" d="M61-202v22q47 9 71.5 33T157-88q0 16-3 36t-9 44-9 45.5-3 37.5q0 27 11.5 53t31.5 48l6 6 6 5q16 14 33.5 23.5T267 228q5 2 11.5 3.5T292 235v3q-12 3-22.5 6t-18.5 7q-25 9-41.5 19T178 295l-2 2-2 2q-15 16-25 35t-14 38q-2 7-2.5 13.5T132 398q0 12 3 33t9 43q6 25 9 46t3 37q0 41-23 64t-72 33v23h17q75 0 130-46.5T263 519q0-15-3.5-37.5T248 430q-6-22-9-41t-3-35q0-43 25-69t71-34v-28q-46-8-71-36t-25-72q0-16 3-34.5t8-38.5q8-29 11.5-50.5T262-43v-6q-2-37-25-71t-59-55q-7-4-14-7t-13-6q-18-7-38-10t-52-4z"/><glyph glyph-name="asciitilde" unicode="~" horiz-adv-x="520" d="M470 416h31q-4-80-40.5-126.5T366 243q-22 0-51.5 8T244 275q-49 21-71 28t-38 8h-6q-32 0-51.5-16.5T50 243l-31 1q8 82 45 126.5t99 44.5h9.5l9.5-1q18-2 39-9.5t59-24.5q42-18 70-26.5t45-8.5q29 0 48.5 18t26.5 52v1z"/><glyph glyph-name="Adieresis" unicode="Ä" horiz-adv-x="781" d="M451 257H218l-30-85q-1-4-2-7.5t-2-7.5q-5-15-7.5-28.5T174 106q0-27 16.5-41T241 46V0H6v47q35 5 54.5 16.5T96 104q6 12 12.5 26.5T122 164l184 469-26 57h186l213-546q5-12 9-22t9-18q16-32 34-45t44-13V0H436v47q32 0 52 13t20 34v5q-1 4-2.5 9t-4.5 17q-1 7-2.5 11.5T496 143l-45 114zm-22 59l-99 251-89-251h188zM299 866q27-1 45.5-20t18.5-46-18.5-46-45.5-19-46 19-19 46 19 46 46 19v1zm183-1q27-1 46-20t19-45q0-27-19-46t-46-19-46 19-19 46q0 26 19 45t46 19v1z"/><glyph glyph-name="Aring" unicode="Å" horiz-adv-x="781" d="M451 257H218l-30-85q-1-4-2-7.5t-2-7.5q-5-15-7.5-28.5T174 106q0-27 16.5-41T241 46V0H6v47q35 5 54.5 16.5T96 104q6 12 12.5 26.5T122 164l184 469-26 57h186l213-546q5-12 9-22t9-18q16-32 34-45t44-13V0H436v47q32 0 52 13t20 34v5q-1 4-2.5 9t-4.5 17q-1 7-2.5 11.5T496 143l-45 114zm-22 59l-99 251-89-251h188zm-38 607q42-1 72-30.5t30-72.5q0-42-30-72t-73-30q-42 0-72 30t-30 72q0 43 30 72.5t73 29.5v1zm0-37q-27-1-46-20t-19-46q0-26 19-45t46-19 45.5 19 18.5 45q0 27-18.5 46T391 885v1z"/><glyph glyph-name="Ccedilla" unicode="Ç" horiz-adv-x="802" d="M406 6h44l-31-39q39-6 59.5-26t20.5-53q0-49-47-73t-142-24h-32v26q60 2 85.5 15.5T389-125q0 19-15 29.5T330-85l76 91zm276 217h75V56Q697 22 620 4T463-14q-187 0-300.5 93.5T49 327q0 164 113 266t292 102q73 0 141.5-15.5T729 633l20-157h-74q-2 4-3.5 8.5T668 493q-3 8-6.5 14.5T654 521q-6 9-14.5 19T619 564q-40 44-81 64.5T449 649q-97 0-153-78.5T240 357q0-147 63-236t166-89q53 0 98.5 25.5T640 127q6 10 11 18t8 15q2 5 4 9l4 8 6.5 19.5L682 222v1z"/><glyph glyph-name="Eacute" unicode="É" horiz-adv-x="750" d="M687 682V538h-66l-7 8q-16 19-28.5 32T561 601q-9 6-18 11t-19 9q-1 0-2 .5t-2 1.5q-17 6-36 9t-48 3l-140 1V381h94q59-1 87 6.5t44 26.5q4 4 6.5 8t4.5 7q3 5 5 9.5t4 11.5q2 3 3 7l2 8 66 1V245h-66q-7 28-23 49.5T485 324q-14 6-34 8t-60 2l-95 1V152q0-61 24.5-83.5T410 46q44 0 69 2.5T525 60q8 3 15.5 6.5T556 75q15 9 28.5 17.5T610 113q11 9 22 20.5t23 26.5l7 9h69L702 0H30v47h10q46-1 62.5 21.5T119 154v373q0 62-16.5 85T40 635l-10 1v46h657zM524 906L362 737h-42l57 169h147z"/><glyph glyph-name="Ntilde" unicode="Ñ" horiz-adv-x="792" d="M287 47V0H16v47h6q38-1 61.5 15.5T114 111q1 3 1.5 5.5t.5 5.5q3 14 3.5 30t.5 40v13l-5 378-4 4q-18 13-33.5 23T47 626q-8 3-16.5 5.5T13 635v47h246l376-427 2 2-7 190q-1 64-8 104.5T604 605q-13 15-32.5 22t-55.5 8v47h258v-46q-1-2-2.5-2H769q-55-7-70.5-31.5T683 498v-5l6-317q0-8 .5-16t.5-16q1-13 2.5-25.5T696 97l6-29q1-8 2-15.5t2-14.5q1-5 1-10V4q0-4-.5-7t-1.5-7h-68L163 530l-2-2 8-300q2-59 8.5-95.5T197 79q14-16 35-24.5t48-8.5l7 1zm240 829h26v-16q0-53-29-87t-74-34h-9q-14 1-30.5 6.5T371 762q-28 14-41.5 19t-23.5 5q-16 0-25-11t-13-34l-28 1v12q0 53 29.5 87.5T346 876h6l6-1q10-1 22-5.5t36-15.5q23-10 42-16.5t29-6.5q13 0 21 7.5t16 27.5q1 2 1.5 4.5t1.5 4.5v1z"/><glyph glyph-name="Odieresis" unicode="Ö" horiz-adv-x="875" d="M824 346q0-160-109.5-260T432-14q-172 0-276.5 95T51 331q0 74 23.5 133T148 575q58 59 132 89.5T440 695q77 0 148-24t126-69q54-45 82-110t28-147v1zm-194-14q-4 148-55.5 229.5T432 643q-89 0-138-74.5T245 360v-24q1-24 3.5-48t6.5-46q17-97 67.5-152.5T444 34q50 0 94 30t64 79q14 34 21 75.5t7 95.5v18zM346 866q27-1 45.5-20t18.5-46-18.5-46-45.5-19-46 19-19 46 19 46 46 19v1zm183-1q27-1 46-20t19-45q0-27-19-46t-46-19-46 19-19 46q0 26 19 45t46 19v1z"/><glyph glyph-name="Udieresis" unicode="Ü" horiz-adv-x="833" d="M569 682h250v-46q-52-10-71.5-33.5T728 524V281q0-72-4.5-106T705 115q-3-6-7-12t-9-13q-37-53-102-78.5T426-14q-88 0-151.5 19.5T173 64q-5 5-9 9.5t-8 9.5q-26 33-34.5 75T113 288v239q0 62-16.5 85T33 635l-9 1v46h356v-46h-14q-46-1-62.5-24T287 526V290q0-62 6.5-96.5T316 134q22-34 62-51.5T473 65q103 0 155 53.5T680 277l-4 228q-1 41-6.5 62.5T649 605q-13 16-30.5 22.5T569 635v47zM325 866q27-1 45.5-20t18.5-46-18.5-46-45.5-19-46 19-19 46 19 46 46 19v1zm183-1q27-1 46-20t19-45q0-27-19-46t-46-19-46 19-19 46q0 26 19 45t46 19v1z"/><glyph glyph-name="aacute" unicode="á" horiz-adv-x="561" d="M540 104l8-48q-21-32-51-49.5T434-11q-37 0-61 16t-37 50q-17-15-32-26t-30-19Q252-1 228-6t-53-5q-64 0-103.5 28.5T32 92q0 38 28 71.5t76 54.5q6 2 12.5 4.5T161 228q21 7 45.5 14.5T258 256l62 15 14 4v74q0 28-19 45.5T263 412t-53.5-17-20.5-45q0-8 1.5-17t5.5-22L63 270q-7 17-11 33t-4 32q0 60 63 93t176 33q63 0 106.5-12.5T456 412q1-2 2.5-3.5l2.5-2.5q10-14 13.5-31t3.5-48V163q0-44 5-58t19-14q4 0 8.5 1.5T520 96l14 6 6 2zm-206 1v124q-79-21-112.5-44T188 128q0-28 16.5-47.5T245 61q19 0 40 10.5t49 32.5v1zm95 567L267 503h-42l57 169h147z"/><glyph glyph-name="agrave" unicode="à" horiz-adv-x="561" d="M540 104l8-48q-21-32-51-49.5T434-11q-37 0-61 16t-37 50q-17-15-32-26t-30-19Q252-1 228-6t-53-5q-64 0-103.5 28.5T32 92q0 38 28 71.5t76 54.5q6 2 12.5 4.5T161 228q21 7 45.5 14.5T258 256l62 15 14 4v74q0 28-19 45.5T263 412t-53.5-17-20.5-45q0-8 1.5-17t5.5-22L63 270q-7 17-11 33t-4 32q0 60 63 93t176 33q63 0 106.5-12.5T456 412q1-2 2.5-3.5l2.5-2.5q10-14 13.5-31t3.5-48V163q0-44 5-58t19-14q4 0 8.5 1.5T520 96l14 6 6 2zm-206 1v124q-79-21-112.5-44T188 128q0-28 16.5-47.5T245 61q19 0 40 10.5t49 32.5v1zM132 672h147l57-169h-42L132 672z"/><glyph glyph-name="acircumflex" unicode="â" horiz-adv-x="561" d="M540 104l8-48q-21-32-51-49.5T434-11q-37 0-61 16t-37 50q-17-15-32-26t-30-19Q252-1 228-6t-53-5q-64 0-103.5 28.5T32 92q0 38 28 71.5t76 54.5q6 2 12.5 4.5T161 228q21 7 45.5 14.5T258 256l62 15 14 4v74q0 28-19 45.5T263 412t-53.5-17-20.5-45q0-8 1.5-17t5.5-22L63 270q-7 17-11 33t-4 32q0 60 63 93t176 33q63 0 106.5-12.5T456 412q1-2 2.5-3.5l2.5-2.5q10-14 13.5-31t3.5-48V163q0-44 5-58t19-14q4 0 8.5 1.5T520 96l14 6 6 2zm-206 1v124q-79-21-112.5-44T188 128q0-28 16.5-47.5T245 61q19 0 40 10.5t49 32.5v1zm4 580l99-187h-37L283 599l-119-98h-40l104 184h110z"/><glyph glyph-name="adieresis" unicode="ä" horiz-adv-x="561" d="M540 104l8-48q-21-32-51-49.5T434-11q-37 0-61 16t-37 50q-17-15-32-26t-30-19Q252-1 228-6t-53-5q-64 0-103.5 28.5T32 92q0 38 28 71.5t76 54.5q6 2 12.5 4.5T161 228q21 7 45.5 14.5T258 256l62 15 14 4v74q0 28-19 45.5T263 412t-53.5-17-20.5-45q0-8 1.5-17t5.5-22L63 270q-7 17-11 33t-4 32q0 60 63 93t176 33q63 0 106.5-12.5T456 412q1-2 2.5-3.5l2.5-2.5q10-14 13.5-31t3.5-48V163q0-44 5-58t19-14q4 0 8.5 1.5T520 96l14 6 6 2zm-206 1v124q-79-21-112.5-44T188 128q0-28 16.5-47.5T245 61q19 0 40 10.5t49 32.5v1zM189 632q27-1 45.5-20t18.5-46-18.5-46-45.5-19-46 19-19 46 19 46 46 19v1zm183-1q27-1 46-20t19-45q0-27-19-46t-46-19-46 19-19 46q0 26 19 45t46 19v1z"/><glyph glyph-name="atilde" unicode="ã" horiz-adv-x="561" d="M540 104l8-48q-21-32-51-49.5T434-11q-37 0-61 16t-37 50q-17-15-32-26t-30-19Q252-1 228-6t-53-5q-64 0-103.5 28.5T32 92q0 38 28 71.5t76 54.5q6 2 12.5 4.5T161 228q21 7 45.5 14.5T258 256l62 15 14 4v74q0 28-19 45.5T263 412t-53.5-17-20.5-45q0-8 1.5-17t5.5-22L63 270q-7 17-11 33t-4 32q0 60 63 93t176 33q63 0 106.5-12.5T456 412q1-2 2.5-3.5l2.5-2.5q10-14 13.5-31t3.5-48V163q0-44 5-58t19-14q4 0 8.5 1.5T520 96l14 6 6 2zm-206 1v124q-79-21-112.5-44T188 128q0-28 16.5-47.5T245 61q19 0 40 10.5t49 32.5v1zm77 537h26v-16q0-53-29-87t-74-34h-9q-14 1-30.5 6.5T255 528q-28 14-41.5 19t-23.5 5q-16 0-25-11t-13-34l-28 1v12q0 53 29.5 87.5T230 642h6l6-1q10-1 22-5.5t36-15.5q23-10 42-16.5t29-6.5q13 0 21 7.5t16 27.5q1 2 1.5 4.5t1.5 4.5v1z"/><glyph glyph-name="aring" unicode="å" horiz-adv-x="561" d="M540 104l8-48q-21-32-51-49.5T434-11q-37 0-61 16t-37 50q-17-15-32-26t-30-19Q252-1 228-6t-53-5q-64 0-103.5 28.5T32 92q0 38 28 71.5t76 54.5q6 2 12.5 4.5T161 228q21 7 45.5 14.5T258 256l62 15 14 4v74q0 28-19 45.5T263 412t-53.5-17-20.5-45q0-8 1.5-17t5.5-22L63 270q-7 17-11 33t-4 32q0 60 63 93t176 33q63 0 106.5-12.5T456 412q1-2 2.5-3.5l2.5-2.5q10-14 13.5-31t3.5-48V163q0-44 5-58t19-14q4 0 8.5 1.5T520 96l14 6 6 2zm-206 1v124q-79-21-112.5-44T188 128q0-28 16.5-47.5T245 61q19 0 40 10.5t49 32.5v1zm-53 584q42-1 72-30.5t30-72.5q0-42-30-72t-73-30q-42 0-72 30t-30 72q0 43 30 72.5t73 29.5v1zm0-37q-27-1-46-20t-19-46q0-26 19-45t46-19 45.5 19 18.5 45q0 27-18.5 46T281 651v1z"/><glyph glyph-name="ccedilla" unicode="ç" horiz-adv-x="521" d="M265 6h44l-31-39q39-6 59.5-26t20.5-53q0-49-47-73t-142-24h-32v26q60 2 85.5 15.5T248-125q0 19-15 29.5T189-85l76 91zm183 139l37-34q-30-59-89.5-90.5T259-11q-52 0-91 15.5T97 54q-30 32-46 74.5T35 217q0 111 73.5 177.5T305 461q77 0 123-29t46-79q0-28-20-49t-49-21q-24 0-40.5 17T336 354q-11 33-25 45.5T272 412q-43 0-71-35t-28-91q0-81 48.5-138T338 91q17 0 30.5 2.5T395 103q12 6 25 16t28 25v1z"/><glyph glyph-name="eacute" unicode="é" horiz-adv-x="521" d="M452 143l40-29q-48-63-107-94T255-11q-99 0-159 61.5T36 214q0 110 67 178.5T278 461q96 0 153.5-55.5T490 255l-316 1q5-68 52-115.5T334 93q8 0 15.5 1t14.5 2q20 4 41 15t47 31v1zM171 302h165v2l1 2v4q0 47-22.5 75.5T256 414q-38 0-61.5-31T171 301v1zm238 370L247 503h-42l57 169h147z"/><glyph glyph-name="egrave" unicode="è" horiz-adv-x="521" d="M452 143l40-29q-48-63-107-94T255-11q-99 0-159 61.5T36 214q0 110 67 178.5T278 461q96 0 153.5-55.5T490 255l-316 1q5-68 52-115.5T334 93q8 0 15.5 1t14.5 2q20 4 41 15t47 31v1zM171 302h165v2l1 2v4q0 47-22.5 75.5T256 414q-38 0-61.5-31T171 301v1zm-59 370h147l57-169h-42L112 672z"/><glyph glyph-name="ecircumflex" unicode="ê" horiz-adv-x="521" d="M452 143l40-29q-48-63-107-94T255-11q-99 0-159 61.5T36 214q0 110 67 178.5T278 461q96 0 153.5-55.5T490 255l-316 1q5-68 52-115.5T334 93q8 0 15.5 1t14.5 2q20 4 41 15t47 31v1zM171 302h165v2l1 2v4q0 47-22.5 75.5T256 414q-38 0-61.5-31T171 301v1zm147 383l99-187h-37L263 599l-119-98h-40l104 184h110z"/><glyph glyph-name="edieresis" unicode="ë" horiz-adv-x="521" d="M452 143l40-29q-48-63-107-94T255-11q-99 0-159 61.5T36 214q0 110 67 178.5T278 461q96 0 153.5-55.5T490 255l-316 1q5-68 52-115.5T334 93q8 0 15.5 1t14.5 2q20 4 41 15t47 31v1zM171 302h165v2l1 2v4q0 47-22.5 75.5T256 414q-38 0-61.5-31T171 301v1zm-2 330q27-1 45.5-20t18.5-46-18.5-46-45.5-19-46 19-19 46 19 46 46 19v1zm183-1q27-1 46-20t19-45q0-27-19-46t-46-19-46 19-19 46q0 26 19 45t46 19v1z"/><glyph glyph-name="iacute" unicode="í" horiz-adv-x="333" d="M242 459V150q0-56 12.5-76.5T305 46V0H28v47h2q37-1 52.5 22.5T98 149v179l-70 40v41l168 50h46zm73 213L153 503h-42l57 169h147z"/><glyph glyph-name="igrave" unicode="ì" horiz-adv-x="333" d="M242 459V150q0-56 12.5-76.5T305 46V0H28v47h2q37-1 52.5 22.5T98 149v179l-70 40v41l168 50h46zM18 672h147l57-169h-42L18 672z"/><glyph glyph-name="icircumflex" unicode="î" horiz-adv-x="333" d="M242 459V150q0-56 12.5-76.5T305 46V0H28v47h2q37-1 52.5 22.5T98 149v179l-70 40v41l168 50h46zm-18 226l99-187h-37L169 599 50 501H10l104 184h110z"/><glyph glyph-name="idieresis" unicode="ï" horiz-adv-x="333" d="M242 459V150q0-56 12.5-76.5T305 46V0H28v47h2q37-1 52.5 22.5T98 149v179l-70 40v41l168 50h46zM75 632q27-1 45.5-20t18.5-46-18.5-46T75 501t-46 19-19 46 19 46 46 19v1zm183-1q27-1 46-20t19-45q0-27-19-46t-46-19-46 19-19 46q0 26 19 45t46 19v1z"/><glyph glyph-name="ntilde" unicode="ñ" horiz-adv-x="625" d="M234 459v-81q7 6 12 11.5t10 10.5l4 4 5 4q4 3 9 7t11 8q9 7 18 12t17 9q17 7 35.5 10.5T396 458q35 0 61-9t46-29q22-22 30.5-48.5T542 295V150q0-57 12.5-76.5T607 46V0H338v47q35 6 47.5 26.5T398 149v122q0 50-17.5 73T325 367q-6 0-12-.5t-11-1.5q-18-3-35.5-11T234 335V150q0-56 13-77.5T296 46V0H19v47h3q37-1 52.5 22.5T90 149v178l-71 52v27l165 53h50zm209 183h26v-16q0-53-29-87t-74-34h-9q-14 1-30.5 6.5T287 528q-28 14-41.5 19t-23.5 5q-16 0-25-11t-13-34l-28 1v12q0 53 29.5 87.5T262 642h6l6-1q10-1 22-5.5t36-15.5q23-10 42-16.5t29-6.5q13 0 21 7.5t16 27.5q1 2 1.5 4.5t1.5 4.5v1z"/><glyph glyph-name="oacute" unicode="ó" horiz-adv-x="573" d="M536 225v-6q-1-58-28-111t-70-79Q405 9 365.5-1T282-11q-110 0-177.5 62.5T37 216q0 108 72 176.5T293 461q107 0 175-66.5T536 224v1zm-158-62v24q0 109-25 167t-73 58q-46 0-65.5-36.5T195 253q0-109 24.5-163.5T294 35q40 0 61.5 32.5T378 162v1zm57 509L273 503h-42l57 169h147z"/><glyph glyph-name="ograve" unicode="ò" horiz-adv-x="573" d="M536 225v-6q-1-58-28-111t-70-79Q405 9 365.5-1T282-11q-110 0-177.5 62.5T37 216q0 108 72 176.5T293 461q107 0 175-66.5T536 224v1zm-158-62v24q0 109-25 167t-73 58q-46 0-65.5-36.5T195 253q0-109 24.5-163.5T294 35q40 0 61.5 32.5T378 162v1zM138 672h147l57-169h-42L138 672z"/><glyph glyph-name="ocircumflex" unicode="ô" horiz-adv-x="573" d="M536 225v-6q-1-58-28-111t-70-79Q405 9 365.5-1T282-11q-110 0-177.5 62.5T37 216q0 108 72 176.5T293 461q107 0 175-66.5T536 224v1zm-158-62v24q0 109-25 167t-73 58q-46 0-65.5-36.5T195 253q0-109 24.5-163.5T294 35q40 0 61.5 32.5T378 162v1zm-34 522l99-187h-37L289 599l-119-98h-40l104 184h110z"/><glyph glyph-name="odieresis" unicode="ö" horiz-adv-x="573" d="M536 225v-6q-1-58-28-111t-70-79Q405 9 365.5-1T282-11q-110 0-177.5 62.5T37 216q0 108 72 176.5T293 461q107 0 175-66.5T536 224v1zm-158-62v24q0 109-25 167t-73 58q-46 0-65.5-36.5T195 253q0-109 24.5-163.5T294 35q40 0 61.5 32.5T378 162v1zM195 632q27-1 45.5-20t18.5-46-18.5-46-45.5-19-46 19-19 46 19 46 46 19v1zm183-1q27-1 46-20t19-45q0-27-19-46t-46-19-46 19-19 46q0 26 19 45t46 19v1z"/><glyph glyph-name="otilde" unicode="õ" horiz-adv-x="573" d="M536 225v-6q-1-58-28-111t-70-79Q405 9 365.5-1T282-11q-110 0-177.5 62.5T37 216q0 108 72 176.5T293 461q107 0 175-66.5T536 224v1zm-158-62v24q0 109-25 167t-73 58q-46 0-65.5-36.5T195 253q0-109 24.5-163.5T294 35q40 0 61.5 32.5T378 162v1zm39 479h26v-16q0-53-29-87t-74-34h-9q-14 1-30.5 6.5T261 528q-28 14-41.5 19t-23.5 5q-16 0-25-11t-13-34l-28 1v12q0 53 29.5 87.5T236 642h6l6-1q10-1 22-5.5t36-15.5q23-10 42-16.5t29-6.5q13 0 21 7.5t16 27.5q1 2 1.5 4.5t1.5 4.5v1z"/><glyph glyph-name="uacute" unicode="ú" horiz-adv-x="625" d="M533 450V153q0-54 9.5-71.5T583 64h6q3 1 6.5 1t9.5 1V17L429-9h-40v76q-25-24-45.5-39.5T303 3q-18-7-35.5-10.5T229-11q-58 0-95.5 28T86 96q-1 4-1.5 7t-.5 6q-2 13-2.5 28.5T81 180v105q0 61-10.5 81.5T24 395v46l201 9V194q0-65 17-89.5T302 80q20 0 41.5 8.5T389 113v175q0 61-11.5 81.5T330 395v46l203 9zm-72 222L299 503h-42l57 169h147z"/><glyph glyph-name="ugrave" unicode="ù" horiz-adv-x="625" d="M533 450V153q0-54 9.5-71.5T583 64h6q3 1 6.5 1t9.5 1V17L429-9h-40v76q-25-24-45.5-39.5T303 3q-18-7-35.5-10.5T229-11q-58 0-95.5 28T86 96q-1 4-1.5 7t-.5 6q-2 13-2.5 28.5T81 180v105q0 61-10.5 81.5T24 395v46l201 9V194q0-65 17-89.5T302 80q20 0 41.5 8.5T389 113v175q0 61-11.5 81.5T330 395v46l203 9zM164 672h147l57-169h-42L164 672z"/><glyph glyph-name="ucircumflex" unicode="û" horiz-adv-x="625" d="M533 450V153q0-54 9.5-71.5T583 64h6q3 1 6.5 1t9.5 1V17L429-9h-40v76q-25-24-45.5-39.5T303 3q-18-7-35.5-10.5T229-11q-58 0-95.5 28T86 96q-1 4-1.5 7t-.5 6q-2 13-2.5 28.5T81 180v105q0 61-10.5 81.5T24 395v46l201 9V194q0-65 17-89.5T302 80q20 0 41.5 8.5T389 113v175q0 61-11.5 81.5T330 395v46l203 9zM370 685l99-187h-37L315 599l-119-98h-40l104 184h110z"/><glyph glyph-name="udieresis" unicode="ü" horiz-adv-x="625" d="M533 450V153q0-54 9.5-71.5T583 64h6q3 1 6.5 1t9.5 1V17L429-9h-40v76q-25-24-45.5-39.5T303 3q-18-7-35.5-10.5T229-11q-58 0-95.5 28T86 96q-1 4-1.5 7t-.5 6q-2 13-2.5 28.5T81 180v105q0 61-10.5 81.5T24 395v46l201 9V194q0-65 17-89.5T302 80q20 0 41.5 8.5T389 113v175q0 61-11.5 81.5T330 395v46l203 9zM221 632q27-1 45.5-20t18.5-46-18.5-46-45.5-19-46 19-19 46 19 46 46 19v1zm183-1q27-1 46-20t19-45q0-27-19-46t-46-19-46 19-19 46q0 26 19 45t46 19v1z"/><glyph glyph-name="dagger" unicode="†" horiz-adv-x="469" d="M251 381l6-25q2-11 4-20.5t3-18.5q1-4 2-8.5t2-8.5q2-14 4.5-30t5.5-37l34-245q3-25 5-41t3-30q1-11 1-23v-29q0-34-10-46.5T272-194h-64q-34 0-44.5 14T153-119v18.5l1 18.5q0 19 1.5 37.5T159-8l29 250q5 34 9.5 67.5T207 374l1 8-12-6-48-26q-28-15-48-22.5T64 320q-19 0-27 10.5T29 363v93q0 15 7.5 23.5T59 488q14 0 31.5-5.5T138 463l56-25 14-6-5 14-30 81q-14 38-22.5 71.5T142 651q0 21 11.5 32.5T186 695l72 1q32-1 44.5-11t12.5-36q0-17-8.5-51.5T284 524l-29-80-4-11q7 2 12 4t9 4q1 0 1.5.5t1.5.5q8 3 17 7.5t24 11.5q31 14 49.5 20t31.5 6q18 0 28-9t10-25v-72q0-32-9-46t-29-14q-15 0-37 7t-45 20l-46 25-18 8z"/><glyph glyph-name="degree" horiz-adv-x="400" d="M200 676q70-1 119.5-50.5T369 506t-49.5-119.5T200 337 80.5 386.5 31 506t49.5 119.5T200 675v1zm0-64q-43-1-74-31.5T95 506q0-43 31-74t74-31q44 0 74.5 31t30.5 74q0 44-30.5 74.5T200 611v1z"/><glyph glyph-name="cent" unicode="¢" horiz-adv-x="521" d="M194-1l-38-104h-46l43 121q-52 30-81 83.5T43 217q0 110 73.5 177T309 461l3 1 66 185h50l-68-188 3-1q53-8 86-36.5t33-67.5q0-29-20-50t-49-21q-25 0-40 16t-29 55q-2 7-4 11t-3 7q0 1-.5 1.5t-.5 1.5q-1 1-2 3l-2 4-89-247q23-23 47.5-33.5T346 91q17 0 30.5 2.5T403 103q12 6 25 16t28 25l37-33q-30-59-89.5-90.5T267-11q-14 0-23.5.5T226-9q-7 2-14.5 3.5T194-1zm16 178l84 235q-3-1-5-.5t-4 .5h-5q-43 0-71-35.5T181 284q0-29 7.5-55.5T210 176v1z"/><glyph glyph-name="sterling" unicode="£" horiz-adv-x="510" d="M403 239l-13-73H273l-1-4q-2-13-5.5-27t-7.5-29q-4-14-8-27t-9-24q-2-6-4.5-11l-4.5-9-3-5q2-2 4.5-2h3.5q6-1 10.5-2t9.5-3q10-4 20.5-11.5T304-9l26-23q9-9 21-15t25-9q4-1 9-1.5t9-.5q14 0 22.5 8t8.5 21q0 3-.5 5t-.5 4q-2 5-6 10T405 3q-11 12-16.5 19.5T381 37q0 2-.5 4.5T380 46q0 21 16 37.5t36 16.5q23 0 36.5-22T482 18q0-78-37.5-124T342-152q-22 0-40.5 5.5T265-129q-16 11-32.5 27.5T197-61l-5 7-4-7q-19-34-40-56.5T105-148q-6-3-12.5-4T80-153q-25 0-39.5 15T26-97q0 36 27 66.5T127 17v3l3 13q2 5 4 15.5t4 23.5q1 13 3 27t4 29q0 5 1 11t1 11l1 11 1 5H40l10 73h104v4q15 161 40 243.5T267 617q20 20 48 31.5t57 13.5h8q50 0 78-24t28-66q0-29-13.5-48.5T438 504q-20 0-32 13.5T394 553l1 28q0 16-7 26t-18 10q-16 0-26-17.5T326 533q-2-12-4.5-26t-4.5-31l-15-111-15-113-2-8-1-5h119z"/><glyph glyph-name="section" unicode="§" horiz-adv-x="573" d="M271 468l150-172q36-42 53.5-64.5T503 190q3-6 6-12.5t6-14.5q1-4 2.5-8t3.5-9q8-22 11.5-45t3.5-48q0-112-72.5-178.5T269-192q-105 0-166.5 31.5T41-76q0 28 20.5 48T111-8q12 0 21-2t18-8q12-7 25.5-23T208-86q2-3 4-5.5t4-5.5q20-25 41.5-35.5T311-143q35 0 55.5 15T387-88q0 9-3 19.5T376-47q-3 6-6.5 11.5T362-25q-14 20-42 50.5T224 128q-70 74-101.5 111T74 306q-11 18-19 38t-14 40q-5 18-7.5 35.5T31 454q0 83 50.5 146.5T214 685q20 5 45 8t51 3q95 0 153-31.5t58-81.5q0-30-17.5-47.5T457 518q-10 0-18.5 2t-16.5 7q-7 4-13.5 9.5T394 550l-31 35q-12 12-24.5 22.5T313 626q-16 10-31.5 15.5T252 647q-22 0-39.5-14T195 600q0-23 19-56t57-77v1zm89-230L247 359q-7 7-18 21t-23 29q-2 3-3.5 5t-3.5 5q-8 11-15.5 21.5T170 460q-16 24-23.5 43t-9.5 37v8q0 9 1 18t4 18q2 12 6.5 23.5T159 629l-2 3q-26-24-43.5-55T90 514q-2-8-2.5-15t-.5-14q0-10 1.5-21t4.5-22q4-17 10.5-33t15.5-30q16-25 53-67.5t89-98.5q41-43 62-65.5t35-41.5q2-3 4-5.5t4-5.5q5-6 10-13.5T387 66q21-30 32-52.5T434-31q1-6 1.5-12t.5-12q0-9-1.5-17.5T431-90q-3-8-7.5-16.5T413-124l2-2q31 19 46.5 51.5T477 4q0 21-3 41.5T464 85q-13 35-38 71.5T360 237v1z"/><glyph glyph-name="bullet" horiz-adv-x="351" d="M176 470q58-1 98.5-42t40.5-99-40.5-98.5T176 190t-99 40.5T36 329t41 99 99 41v1z"/><glyph glyph-name="paragraph" unicode="¶" horiz-adv-x="540" d="M311 625v-841h-49v426q-38 0-61 2.5t-42 8.5q-10 3-20.5 7T116 238q-54 26-85 79T0 437q0 83 43 141.5T157 650q29 5 71.5 8t97.5 3l214 1v-21h-21q-43-1-57-20t-14-81v-756h-48v841h-89z"/><glyph glyph-name="germandbls" unicode="ß" horiz-adv-x="635" d="M95 392H21v58h15q29 2 40 11.5T94 496q5 18 9 31.5t8 23.5q3 8 6.5 14.5T125 579q3 5 6.5 10t7.5 11q18 23 40.5 41t47.5 28q29 11 61.5 17t66.5 6q95 0 155.5-42T571 542q0-43-35.5-80.5T435 401v-1q78-14 123.5-68T604 197q0-92-50-150T425-11q-45 0-75.5 24T319 74q0 19 12 31t28 12q15 0 25-7.5T400 86l10-29q3-8 9.5-13t13.5-5q17 0 28.5 18t11.5 45q0 92-46.5 170T319 358v42q53 13 79 45.5t26 84.5q0 50-27 81.5T327 643q-47 0-67-27t-20-92V120q0-40 12-57t40-20V0H26v47q38 4 53.5 21T95 119v273z"/><glyph glyph-name="registered" unicode="®" horiz-adv-x="747" d="M374 677q143-1 244.5-102.5T720 330 618.5 86 374-15 129 86 27 330t102 244.5T374 676v1zm0-43q-125-1-214-90T71 330t89-214 214-89 214 89 89 214-89 214-214 89v1zM188 532h177q74-1 108-13t53-47q6-10 9.5-22.5T539 424q0-37-22.5-63T451 323l67-121q6-11 11-18.5t10-12.5q7-8 14-12t16-6v-16H451L351 317h-22v-97q0-42 10.5-53.5T387 153v-16H181v17h3q29-1 38.5 12.5T232 219v232q0 37-8 49t-36 14v18zm141-21V342q8-2 14.5-2.5t10.5-.5q35 0 57.5 24.5T434 426q0 42-21.5 63T347 510l-18 1z"/><glyph glyph-name="copyright" unicode="©" horiz-adv-x="747" d="M374 677q143-1 244.5-102.5T720 330 618.5 86 374-15 129 86 27 330t102 244.5T374 676v1zm0-43q-125-1-214-90T71 330t89-214 214-89 214 89 89 214-89 214-214 89v1zm163-94V411h-18q-10 48-42 76t-78 28q-60 0-93.5-46.5T272 337q0-67 15.5-105.5T338 172q14-8 28.5-12.5T397 155q37 0 68 16.5t59 51.5v-34q-30-32-68.5-47.5T368 126q-91 0-148 56t-57 144q0 93 60.5 153.5T378 540q7 0 13.5-.5t12.5-.5q15-2 31.5-6.5T474 520q9-4 13.5-5t8.5-1q10 0 16 6t7 19l18 1z"/><glyph glyph-name="trademark" unicode="™" horiz-adv-x="1000" d="M-1 662h379V552h-17q-3 46-24 65t-71 19l-18 1V350q0-42 9-54t41-12v-16H76v17q36 1 43 10.5t7 55.5v286h-16q-47-1-69-20.5T14 551l-15 1v110zm433 0h179l113-242 112 242h169v-18h-2q-30-1-38.5-13t-8.5-54V348q0-39 9-50.5t40-13.5v-16H780v17q36-1 46 10.5t10 51.5v248h-2L680 268h-12L515 595h-2V349q0-43 9.5-53.5T569 284v-16H432v17q36 0 44.5 11t8.5 54v229q0 40-8 52t-37 12l-8 1v18z"/><glyph glyph-name="acute" unicode="´" horiz-adv-x="333" d="M315 672L153 503h-42l57 169h147z"/><glyph glyph-name="dieresis" unicode="¨" horiz-adv-x="333" d="M75 632q27-1 45.5-20t18.5-46-18.5-46T75 501t-46 19-19 46 19 46 46 19v1zm183-1q27-1 46-20t19-45q0-27-19-46t-46-19-46 19-19 46q0 26 19 45t46 19v1z"/><glyph glyph-name="AE" unicode="≠"/><glyph glyph-name="Oslash" unicode="Æ" horiz-adv-x="1031" d="M942 164h68L978 0H384v47h8q39 1 54.5 13t15.5 40q0 5-1 11.5t-3 13.5l-6 26-42 170H237l-43-149q-1-5-2.5-9.5T189 154q-2-10-3-19.5t-1-16.5q0-30 19.5-50T254 46V0H16v47q23 1 38.5 7.5T80 74q2 3 4 5.5t4 6.5q7 12 15.5 31.5T125 174l116 325q11 30 16 50t5 33q0 26-15 39.5T203 635l-13 1v46h697l31-150h-67l-8 8q-34 33-60.5 52T730 621q-4 2-8.5 3.5T713 627q-16 5-37 6.5t-65 1.5l-104 1 65-269h104q71-1 96.5 17.5T801 455l63 1 39-215h-65l-4 8-4 8q-19 40-46.5 51.5T688 320l-102 1 48-195q0-2 .5-3l.5-1q12-47 31.5-60.5T739 48q20 0 37.5 3T811 61q27 11 55.5 33t66.5 60l9 10zM399 368l-64 268h-2l-79-268h145z"/><glyph glyph-name="plusminus" unicode="Ø" horiz-adv-x="875" d="M120 3l54 64q-63 51-93 115.5T51 331q0 74 23.5 133T148 575q58 59 132 89.5T440 695q59 0 116.5-14.5T660 639l2-1 60 70 36-33-55-64q59-46 90-112.5T824 347q0-160-109-260.5T432-14q-64 0-118 13T214 39l-59-68-35 32zm485 494L292 131q25-44 66.5-70.5T445 34q50 0 93.5 30t63.5 79q14 34 21 75.5t7 95.5q0 52-6.5 100T605 496v1zM271 180l313 366q-26 47-64.5 72T432 643q-89 0-138-74.5T245 360q0-52 6.5-96t19.5-85v1z"/><glyph glyph-name="yen" unicode="∞"/><glyph glyph-name="mu" unicode="±" horiz-adv-x="668" d="M61 76h545V-29H61V76zm0 394h220v220h105V470h220V366H386V146H281v220H61v104z"/><glyph glyph-name="ordfeminine" unicode="≤"/><glyph glyph-name="ordmasculine" unicode="≥"/><glyph glyph-name="ae" unicode="¥" horiz-adv-x="657" d="M333 441h114l34 67q13 25 18 39.5t5 27.5q0 26-17 42.5T440 635v47h206v-46q-17-6-30.5-14.5T589 598q-10-12-20-28.5T547 531l-49-90h99v-48H473l-59-111h183v-48H407v-79q0-63 15.5-86T479 46l14 1V0H165v47h15q41-1 56 21.5t15 85.5v80H63v48h172l-53 111H63v48h97l-44 91-23 50q-11 24-27.5 36T21 634l-7 2v46h331v-46q-3-2-4.5-2H337q-37-1-52.5-10.5T269 591v-5l1-4q1-8 4.5-16.5T285 542l48-101zm23-48l32-70 35 70h-67z"/><glyph glyph-name="oslash" unicode="µ" horiz-adv-x="556" d="M64 457h136V122q1-41 9.5-55.5T242 52q17 0 31 7.5T301 83q5 6 10.5 13t10.5 16v345h136V130q0-40 7.5-55.5T491 59q15 0 24.5 18t12.5 52l21 1q-1-67-35.5-105.5T423-14q-37 0-61 18.5T326 62q-18-20-34.5-34T259 5q-18-9-36.5-14T184-14q-9 0-16 1t-14 3q-10 3-20 8.5T111 13q0-17 .5-29t2.5-23q1-7 3-14t4-15l14-50q2-8 3-16.5t1-15.5q0-30-15.5-47.5T81-215q-25 0-38.5 15.5T29-155v9l1 9q0 5 1 9.5t2 9.5l15 55 2 8 2 8q7 31 9.5 64T64 94v363z"/><glyph glyph-name="questiondown" unicode="∂"/><glyph glyph-name="exclamdown" unicode="Σ"/><glyph glyph-name="florin" unicode="∏"/><glyph glyph-name="guillemotleft" unicode="π"/><glyph glyph-name="guillemotright" unicode="∫"/><glyph glyph-name="ellipsis" unicode="ª" horiz-adv-x="365" d="M351 448l5-29q-13-20-32.5-30.5T282 378q-24 0-39.5 10T218 418q-9-8-17.5-14T183 394q-16-9-32.5-12.5T114 378q-42 0-68 17t-26 45q0 17 9 31t26 26q18 14 44 23.5t69 18.5l40 9 9 3v44q0 17-12.5 27T171 632q-22 0-35.5-9.5T122 596v-3q1-5 2-9.5t3-11.5l-86-25q-5 10-7.5 20T31 587q0 35 41 55t115 20q68 0 96-18t28-63v-98q0-26 3-34.5t12-8.5q2 0 4 .5t4 .5q1 1 2 1.5t2 .5l9 4 4 1zm-134 1v74q-52-13-73.5-27T122 462q0-16 10.5-28t26.5-12q12 0 26.5 6.5T217 448v1z"/><glyph glyph-name="Agrave" unicode="º" horiz-adv-x="375" d="M350 527v-6q0-65-45.5-104T184 378q-71 0-115 38t-44 99q0 65 47 106t120 41q68 0 111-37.5t47-98.5v1zm-103-44v16q0 64-16.5 98.5T183 632q-29 0-42-22t-13-72q0-67 16-99.5t47-32.5q27 0 41 19t15 57v1z"/><glyph glyph-name="Atilde" unicode="Ω"/><glyph glyph-name="Otilde" unicode="æ" horiz-adv-x="813" d="M750 149l31-34q-4-7-7-12.5t-6-9.5q-3-5-7-10t-8-9q-5-6-12-12t-16-13q-39-31-83-45.5T542-11q-50 0-87 11t-71 37q-7 5-14 11t-14 13q-36-26-68-42.5T225-4q-15-4-29.5-5.5T166-11q-60 0-98.5 30.5T29 98q0 54 56 94.5T249 258l77 18v62q0 38-16.5 57T259 414q-33 0-54.5-16T183 356q0-7 1-17t3-22l1-6-128-42q-7 10-11 25.5T45 327q0 61 57.5 97.5T255 461q54 0 91.5-12t65.5-38q12 8 23 15t23 12q25 12 51 17.5t58 5.5q93 0 148.5-45T783 285l-311-46q1-45 7-69.5t19-41.5q15-19 42-30.5T598 86q15 0 30.5 2.5T659 96q22 7 45 20t46 32v1zM326 98v130q-79-18-111-40.5T183 126q0-28 16-45.5T240 63q19 0 40.5 8.5T326 97v1zm145 188l157 25q-8 51-28 76t-54 25q-37 0-56-27.5T471 300v-14z"/><glyph glyph-name="OE" unicode="ø" horiz-adv-x="573" d="M65 0l43 49q-37 34-54 75.5T37 217q0 107 71.5 175.5T291 461q42 0 77.5-9.5T434 423l52 62 35-29-52-61q26-28 43.5-66t21.5-78q1-7 1.5-14t.5-14q0-58-27-111.5T438 29Q407 10 367.5-.5T284-11q-42 0-75 7.5T144 21L99-31 65 0zm306 283L214 102q13-35 32-51t47-16q45 0 65 36t20 117q0 26-1.5 48t-4.5 43l-1 4zM202 157l157 181q-11 37-31 55.5T280 412q-46 0-65.5-36.5T195 252q0-26 1.5-50t4.5-43l1-2z"/><glyph glyph-name="oe" unicode="¿" horiz-adv-x="458" d="M264 218l18 1q3-1 4.5-4t1.5-11l2-29 5-52 5-43q1-10 1.5-17.5T302 47q0-6-1.5-9t-7.5-6-17.5-6-31.5-8l-20-4q-13-4-24.5-7T179 1q-39-11-54-24.5T110-57q0-21 20.5-38t45.5-17q21 0 51.5 8.5T297-77l22 9q12 5 20 7.5t15 3.5h4q20 0 34.5-20t14.5-48q0-31-31-49.5T292-193h-11q-24 1-49 7.5T177-167q-4 2-8.5 3.5T160-160q-22 10-39.5 20.5T87-114q-4 3-7.5 6.5L72-100Q46-73 33.5-43.5T21 23q0 42 19.5 68.5T103 136q18 8 39.5 13.5T189 158l23 3q13 1 18.5 8.5T237 190v15q1 7 3 10t7 3h17zm92 153q0-39-26.5-66T265 278t-64.5 27-26.5 65 26.5 64.5T265 461t64.5-26.5T356 370v1z"/><glyph glyph-name="endash" unicode="¡" horiz-adv-x="344" d="M137 167l3 17 2 8 2 6q2 7 4.5 8.5t8.5 1.5l31 1q8-1 11.5-6t5.5-20q1-7 1.5-11.5t.5-5.5l47-256q1-5 2-11.5t1-13.5q1-5 1-10.5V-136q0-30-12-43t-41-13h-65q-28 0-40.5 13T87-136v10.5l1 10.5q0 7 1 13.5T91-90l46 257zm126 204q0-39-26.5-66T172 278t-65 27-27 65 27 64.5 65 26.5 64.5-26.5T263 370v1z"/><glyph glyph-name="emdash" unicode="¬"/><glyph glyph-name="quotedblleft" unicode="√"/><glyph glyph-name="quotedblright" unicode="ƒ" horiz-adv-x="629" d="M561 450l-11-59h-94l-68-286q0-4-1-8.5T384 84q-13-71-33.5-125T306-129q-20-27-50-42.5T192-187q-40 0-69 21t-29 51q0 19 14.5 33T144-68q17 0 26.5-8t17.5-29q1-2 1.5-3.5t1.5-3.5q4-11 7-17.5t6-10.5q4-5 7.5-6.5t8.5-1.5q14 0 21.5 12t7.5 34v9.5L248-80q-1 15-1.5 28t-.5 24q0 49 9 105.5T284 210l47 181h-95l11 59h8q26-1 47.5 7.5T340 482l2.5 2.5 2.5 2.5q6 6 10 12t8 15q5 10 10.5 25.5T386 579q11 35 24 56.5t33 37.5q13 11 29.5 18t32.5 9q5 1 9.5 1.5t9.5.5q37 0 62-21t25-53q0-21-12.5-34T564 581q-19 0-28.5 7T519 617q-1 2-1.5 4.5T516 627q-4 15-10 21.5t-15 6.5q-13 0-21-12t-8-31q0-8 1-18t3-22l7-40q2-11 3-19t1-16q0-4-.5-7.5t-.5-7.5q-1-7-3.5-14.5T465 449l96 1z"/><glyph glyph-name="quoteleft" unicode="≈"/><glyph glyph-name="quoteright" unicode="∆"/><glyph glyph-name="ydieresis" unicode="«" horiz-adv-x="552" d="M183 476h99q-4-13-8-25.5t-9-24.5q-16-40-40-81.5T168 258l-5-6 7-11q43-66 68.5-113T280 37q1-3 2-5.5t2-5.5l-101 1q-9 20-21 42.5T137 115q-10 17-20.5 33.5T96 181q-12 20-24.5 37.5T47 251q15 20 25.5 34.5T92 314q1 1 2.5 3t2.5 4q7 9 13.5 19.5T125 364q12 19 20 32t15 26l4.5 9 4.5 10q3 7 6.5 15.5T183 475v1zm240 0h99q-4-13-8-25.5t-9-24.5q-17-40-40.5-81.5T408 258l-5-6 7-11q41-63 66-108t41-87q2-5 3.5-10t3.5-10l-101 1q-9 20-21 42.5T377 115q-10 17-20.5 33.5T336 181q-12 20-24.5 37.5T287 251q15 20 25.5 34.5T332 314q1 1 2.5 3t2.5 4q7 9 13.5 19.5T365 364q12 19 20 32t14 26q2 4 4 7.5t4 7.5q4 9 7.5 18t8.5 20v1z"/><glyph glyph-name="Ydieresis" unicode="»" horiz-adv-x="552" d="M133 27H34q2 7 5 15l6 16q16 44 41.5 89.5T148 243l5 8-7 11q-43 64-68.5 111T36 464q-1 3-2 5.5t-2 5.5l101 1q9-22 21-44.5t25-45.5q10-17 20.5-33.5T220 320q12-20 24.5-37.5T269 250q-15-20-25.5-34.5T224 187q-1-1-2.5-3t-2.5-4q-7-9-13.5-19.5T191 137q-12-20-20.5-33.5T156 77q-2-4-3.5-7.5T149 63q-4-8-7.5-17T133 26v1zm240 0H273q3 7 5.5 15t5.5 16q17 44 42 89.5t61 95.5l6 8-8 11q-43 64-68.5 111T275 464q-1 3-2 5.5t-2 5.5l102 1q9-22 21-44.5t25-45.5q9-16 18.5-31.5T457 324q13-21 26-40t25-34q-15-20-25.5-34.5T463 187q-1-1-1.5-2l-1.5-3q-7-10-14-20.5T430 137q-12-20-20.5-33.5T395 77l-4-8-3-8q-4-8-7.5-16.5T373 26v1z"/><glyph glyph-name="fraction" unicode="…" horiz-adv-x="1031" d="M245 82q0-38-26.5-64.5T154-9 89 17.5 62 82t27 64.5 65 26.5 64.5-27T245 81v1zm347 0q0-38-26.5-64.5T501-9t-64.5 26.5T410 82t26.5 64.5T501 173t64.5-27T592 81v1zm347 0q0-38-26.5-64.5T848-9t-65 26.5T756 82t27 64.5 65 26.5 64.5-27T939 81v1z"/><glyph glyph-name="currency" unicode="À" horiz-adv-x="781" d="M451 257H218l-30-85q-1-4-2-7.5t-2-7.5q-5-15-7.5-28.5T174 106q0-27 16.5-41T241 46V0H6v47q35 5 54.5 16.5T96 104q6 12 12.5 26.5T122 164l184 469-26 57h186l213-546q5-12 9-22t9-18q16-32 34-45t44-13V0H436v47q32 0 52 13t20 34v5q-1 4-2.5 9t-4.5 17q-1 7-2.5 11.5T496 143l-45 114zm-22 59l-99 251-89-251h188zM242 906h147l57-169h-42L242 906z"/><glyph glyph-name="guilsinglleft" unicode="Ã" horiz-adv-x="781" d="M451 257H218l-30-85q-1-4-2-7.5t-2-7.5q-5-15-7.5-28.5T174 106q0-27 16.5-41T241 46V0H6v47q35 5 54.5 16.5T96 104q6 12 12.5 26.5T122 164l184 469-26 57h186l213-546q5-12 9-22t9-18q16-32 34-45t44-13V0H436v47q32 0 52 13t20 34v5q-1 4-2.5 9t-4.5 17q-1 7-2.5 11.5T496 143l-45 114zm-22 59l-99 251-89-251h188zm92 560h26v-16q0-53-29-87t-74-34h-9q-14 1-30.5 6.5T365 762q-28 14-41.5 19t-23.5 5q-16 0-25-11t-13-34l-28 1v12q0 53 29.5 87.5T340 876h6l6-1q10-1 22-5.5t36-15.5q23-10 42-16.5t29-6.5q13 0 21 7.5t16 27.5q1 2 1.5 4.5t1.5 4.5v1z"/><glyph glyph-name="guilsinglright" unicode="Õ" horiz-adv-x="875" d="M824 346q0-160-109.5-260T432-14q-172 0-276.5 95T51 331q0 74 23.5 133T148 575q58 59 132 89.5T440 695q77 0 148-24t126-69q54-45 82-110t28-147v1zm-194-14q-4 148-55.5 229.5T432 643q-89 0-138-74.5T245 360v-24q1-24 3.5-48t6.5-46q17-97 67.5-152.5T444 34q50 0 94 30t64 79q14 34 21 75.5t7 95.5v18zm-62 544h26v-16q0-53-29-87t-74-34h-9q-14 1-30.5 6.5T412 762q-28 14-41.5 19t-23.5 5q-16 0-25-11t-13-34l-28 1v12q0 53 29.5 87.5T387 876h6l6-1q10-1 22-5.5t36-15.5q23-10 42-16.5t29-6.5q13 0 21 7.5t16 27.5q1 2 1.5 4.5t1.5 4.5v1z"/><glyph glyph-name="fi" unicode="Œ" horiz-adv-x="1042" d="M954 168h66L988 0H401q-83 0-141 17T155 74q-54 45-82 111.5T45 333q0 106 47 188.5T223 646q6 3 12 5.5t12 5.5q35 14 76 19t112 5l546 1V540h-67l-33 37q-5 4-9.5 9t-9.5 9q-25 23-54.5 31.5T727 635l-165 1v-2q43-23 77.5-65t53.5-91q3-8 5.5-15.5L703 449q3-12 5-24.5t4-30.5q1-3 1.5-7t.5-8l20 1q49-1 74.5 18t37.5 65l66 1V243h-66q-18 49-43 69t-69 20l-20 1q-1-25-2.5-42t-5.5-33q-3-10-6.5-21.5T690 212q-9-25-21.5-46T642 126q-6-7-11.5-13.5T620 101q-7-8-14.5-14.5T590 74q-9-6-19.5-12.5T547 48v-1h150q64-1 112 15t85 50l54 51 6 5zM234 333q4-143 42-214.5T386 47q68 0 103.5 62.5T525 295q0 165-39 251t-113 86q-71 0-105.5-66.5T233 361v-14.5l1-14.5v1z"/><glyph glyph-name="fl" unicode="œ" horiz-adv-x="865" d="M788 140l35-28q-13-18-21.5-29T784 63q-3-4-7-7.5t-8-6.5l-8-6-8-6q-31-23-70.5-35.5T600-11q-49 0-90 14t-78 44q-23-16-44-27.5T346 1q-19-6-38.5-9T267-11q-100 0-165.5 65T36 220q0 106 66 173.5T271 461q49 0 90.5-14.5T432 405q12 8 20.5 13.5T469 428q3 1 6 2.5l7 3.5q2 0 4 1l4 2q16 7 35.5 12t39.5 8q12 2 24.5 3t23.5 1q56 0 105.5-24t75.5-64q5-8 9-14.5t7-13.5q8-16 12-33.5t8-46.5q0-2 .5-4.5t.5-4.5l-321 1q1-52 9-80.5t29-48.5q21-21 49.5-31T661 87q40 0 72 13.5t55 38.5v1zm-422 52v19l-1 21q-1 29-4.5 57t-8.5 48q-8 35-28 55t-49 20q-40 0-59-38.5T197 252q0-37 3-71.5t10-65.5q8-40 27.5-60T287 35q41 0 60 38.5T366 191v1zm145 112h164v4l1 3v7q0 39-24 66.5T594 412q-37 0-59-29t-24-80v1z"/><glyph glyph-name="daggerdbl" horiz-adv-x="500" d="M-6 311h512V189H-6v122z"/><glyph glyph-name="periodcentered" unicode="—" horiz-adv-x="1000" d="M-6 311h1012V189H-6v122z"/><glyph glyph-name="quotedblbase" unicode="“" horiz-adv-x="615" d="M277 679v-24q0-8-4-11.5t-11-3.5q-39-1-68-29t-29-64q0-16 8.5-27t21.5-14l34-5q23-5 36.5-24t13.5-48q0-37-23-62.5T199 341q-52 0-84.5 42T82 493q0 33 7.5 59.5T113 604q3 5 6.5 9.5t7.5 9.5q12 14 25.5 26.5T182 671q7 5 17 9.5t20 7.5q10 4 20.5 6t17.5 2q10 0 15-4.5t5-13.5v1zm264 0v-24q0-8-3.5-11.5T526 640q-38-1-67-29t-29-64q0-16 8.5-27t21.5-14l33-5q23-5 36.5-24t13.5-48q0-37-23-62.5T463 341q-52 0-84.5 42T346 493q0 33 7.5 59.5T377 604q3 5 6.5 9.5t7.5 9.5q12 14 26 26.5t29 21.5q7 5 17 9.5t20 7.5q10 4 20.5 6t17.5 2q10 0 15-4.5t5-13.5v1z"/><glyph glyph-name="perthousand" unicode="”" horiz-adv-x="615" d="M76 359v25q0 5 4 9t11 4q38 1 67 29t29 64q0 16-8 27t-22 13l-33 7q-23 3-36.5 22.5T74 607q0 38 23 63t57 25q53 0 85-41.5T271 544q0-35-8-63t-27-54q-3-3-5.5-6.5T225 413q-11-14-25-26t-29-22q-7-5-17-9t-20-7q-10-4-20.5-6T96 341q-10 0-15 4t-5 13v1zm264 0v25q0 5 4 9t11 4q39 1 68 29t29 64q0 16-8.5 27T421 530l-33 7q-22 3-36 22.5T338 607q0 38 23 63t57 25q53 0 85-41.5T535 544q0-35-8-63t-26-54q-3-3-5.5-6.5T490 413q-12-14-25.5-26T435 365q-7-5-17-9t-20-7q-10-4-20.5-6t-17.5-2q-10 0-15 4t-5 13v1z"/><glyph glyph-name="Acircumflex" unicode="‘" horiz-adv-x="344" d="M264 689l13-28q1-3 1-4v-2q0-3-2-5t-8-4q-43-14-69-37.5T173 559q0-14 7-21t20-7l17 1q29-1 50-21.5t21-49.5q0-35-25.5-58T198 380q-50 0-81.5 38T85 517q0 59 32.5 101.5T212 683q14 5 26.5 8.5T254 695t4.5-.5 3.5-2.5q0-1 .5-2t1.5-2v1z"/><glyph glyph-name="Ecircumflex" unicode="’" horiz-adv-x="344" d="M98 388l-14 28q-1 1-1 2v2q0 3 2.5 5.5T93 429q44 14 69.5 37.5T188 516q0 14-6.5 21t-20.5 7l-17 1q-29-1-49.5 19.5T74 614q0 35 25 58t65 23q50 0 81.5-38t31.5-99q0-58-34.5-102T149 392l-30-9q-4-2-7-3t-5-1q-3 0-5 2t-4 6v1z"/><glyph glyph-name="Aacute" unicode="÷"/><glyph glyph-name="Edieresis" unicode="◊"/><glyph glyph-name="Egrave" unicode="ÿ" horiz-adv-x="542" d="M541 450v-46q-10-2-18-6.5T507 383q-9-9-17-24t-18-37L296-63q-31-67-67-96t-89-29q-45 0-72.5 22.5T40-106q0 28 18 47t45 19q10 0 17.5-2.5T136-51q4-3 8-7.5t9-9.5q10-12 16-18.5t11-9.5q3-1 6-1.5t7-.5 7.5 1 6.5 2q14 6 26.5 20T254-42l11 27L68 346q-8 14-14 24t-12 16q-7 9-15.5 12T4 403v47h268v-46q-31-3-43.5-10.5T216 369q0-5 1.5-11t5.5-12l112-205 74 164q5 10 7.5 17.5T420 337v9q0 28-13.5 41.5T363 403v47h178zM180 632q27-1 45.5-20t18.5-46-18.5-46-45.5-19-46 19-19 46 19 46 46 19v1zm183-1q27-1 46-20t19-45q0-27-19-46t-46-19-46 19-19 46q0 26 19 45t46 19v1z"/><glyph glyph-name="Iacute" unicode="Ÿ" horiz-adv-x="729" d="M381 682v-46q-3-2-4.5-2H373q-42-1-58.5-10.5T298 591v-9q1-8 4.5-16.5T315 542l114-219 104 185q14 25 19.5 39.5T558 575q0 26-18.5 42.5T487 635v47h229v-46q-18-5-32.5-13.5T655 600q-12-12-24-28.5T605 531L450 269V155q0-63 17.5-86T531 46l15 1V0H182v47h16q47-1 63 21.5t16 85.5v94L127 532l-25 50q-13 24-31 36t-49 16l-8 2v46h367zM273 866q27-1 45.5-20t18.5-46-18.5-46-45.5-19-46 19-19 46 19 46 46 19v1zm183-1q27-1 46-20t19-45q0-27-19-46t-46-19-46 19-19 46q0 26 19 45t46 19v1z"/><glyph glyph-name="Icircumflex" unicode="∕" horiz-adv-x="281" d="M-17-18h-70l385 700h70L-17-18z"/><glyph glyph-name="Idieresis" unicode="¤" horiz-adv-x="667" d="M77 517l68 70 66-66q15 9 27 15.5t24 10.5q15 6 31.5 8t38.5 2 37.5-2 30.5-7q12-4 25.5-11t29.5-17l66 67 69-70-66-66q11-19 18-33.5t11-27.5q4-14 5.5-29t1.5-34q0-22-2-37.5t-7-30.5q-4-12-10.5-24.5T524 207l66-63-69-69-66 64q-17-11-30.5-18T398 109q-14-4-30-6t-37-2q-23 0-39.5 2t-31.5 8q-11 4-23 10.5T211 138l-64-63-70 69 65 64q-11 18-18 32.5T113 268q-4 14-5.5 29t-1.5 35q0 22 2 38t7 30q4 12 11 23.5t16 26.5l-65 67zm126-187q0-55 38-93.5t92-38.5 92.5 38.5T464 329t-38 92-92 38-92.5-38-38.5-92v1z"/><glyph glyph-name="Igrave" unicode="‹" horiz-adv-x="311" d="M184 476h99q-4-13-8-25.5t-9-24.5q-16-40-40-81.5T169 258l-5-6 7-11q43-66 68.5-113T281 37q1-3 2-5.5t2-5.5l-101 1-8 13-47 90q-5 8-9 15.5t-8 14.5q-3 5-5.5 9t-5.5 9q-10 15-22 32t-31 41q15 20 25.5 34.5T93 314q1 1 2.5 3t2.5 4q7 9 13.5 19.5T126 364q12 19 20 32t14 26q2 4 4 7.5t4 7.5q4 9 7.5 18t8.5 20v1z"/><glyph glyph-name="Oacute" unicode="›" horiz-adv-x="311" d="M132 27H33q2 7 5 15l6 16q16 44 41.5 89.5T147 243l6 8-8 11q-43 64-68.5 111T35 464q-1 3-2 5.5t-2 5.5l101 1q9-22 21-44.5t25-45.5q10-17 20.5-33.5T219 320q12-20 24.5-37.5T268 250q-15-20-25.5-34.5T223 187q-1-1-2.5-3t-2.5-4q-7-9-13.5-19.5T190 137q-12-20-20.5-33.5T155 77q-2-4-3.5-7.5T148 63q-4-8-7.5-17T132 26v1z"/><glyph glyph-name="Ocircumflex" unicode="" horiz-adv-x="677" d="M577 466V150q0-57 15.5-79.5T645 46V0H372v47q35 6 46.5 27t11.5 75v143q0 61-20 80.5T326 392l-75 1V150q0-53 12.5-76.5T307 46V0H36v47q41 4 54 24.5t13 77.5v244H30v57h14q28 0 40.5 12t22.5 46l11 40q19 65 92 104.5T386 692q81 0 127-24t46-65q0-28-18.5-45.5T490 540q-28 0-45.5 13T412 598q-11 23-25.5 33.5T349 642q-43 0-70.5-34T251 520v-70h190q25-1 40.5 0t28.5 4q8 2 16 4.5t18 6.5l33 1z"/><glyph glyph-name="Ograve" unicode="" horiz-adv-x="677" d="M578 693V150q0-56 14-79t50-25V0H371v47q35 4 47.5 25.5T431 149v244H249V150q0-55 11.5-75.5T307 46V0H34v47q41 4 54 24.5t13 77.5v244H28v57q35-1 49 9.5t24 42.5q8 24 12.5 38.5T119 559q8 22 22.5 41t33.5 33q20 15 42 26t47 17q29 8 61 12t64 4q34 0 58-3.5t45-11.5q2-1 4.5-2t4.5-2l48 20h29zM431 450v114q-3 2-5.5 4.5L421 573q-1 2-2 3.5t-2 3.5l-1.5 1.5-.5 1.5-9 21q-8 18-23.5 28T347 642q-46 0-72-35t-26-98v-59h182z"/><glyph glyph-name="Uacute" unicode="‡" horiz-adv-x="479" d="M443 481v-71q0-20-7.5-30T412 370q-17 0-57.5 15.5T264 426q2-7 3.5-13t2.5-12q2-6 3-12t2-13q1-9 2.5-19.5L281 332q5-32 6.5-51.5T289 254q0-13-1.5-32t-6.5-44l-14-83-3-16 8 4 46 23q28 13 53 21.5t40 8.5q17 0 24.5-10t7.5-32V21q0-18-9-28t-24-10q-18 0-58 15t-86 40l-2-1q5-11 9.5-23T284-10q1-3 2-6.5t3-6.5q8-22 16-43t13-35l2-8 2-8q2-8 3-16t1-13q0-21-11.5-31.5T280-188h-81q-21 0-32.5 11T155-146q0 16 8.5 43.5T188-34q11 27 17 42.5t8 20.5q0 1 1 3.5t2 6.5Q153 8 120.5-4.5T71-17q-16 0-24 9.5T39 23v77q0 18 8 27t24 9q19 0 54.5-14T206 83l10-4-2 16-14 76q-4 25-6.5 45.5T191 253q0 17 2.5 38.5T200 338l15 77 2 12q-5-3-8.5-4.5T202 420q-1 0-2-.5t-2-1.5q-6-2-14.5-6T160 400q-34-17-53.5-23.5T71 370t-24 10-8 29v80q0 15 8 23.5t23 8.5h6q16-1 40-10.5t89-38.5l11-4-4 10q-34 85-45 119t-11 58q0 18 11 29t30 11l74 1q30-1 43-10.5t13-31.5q0-11-7-37.5T302 561q-3-9-6.5-17.5T289 527l-20-47-5-12 11 5 47 22q32 13 53.5 20t34.5 7q19 0 26-9.5t7-32.5v1z"/><glyph glyph-name="Ucircumflex" unicode="∙" horiz-adv-x="344" d="M261 325q0-39-26.5-65.5T170 233q-37 0-64 27t-27 64q0 38 27 64.5t64 26.5q38 0 64.5-26.5T261 324v1z"/><glyph glyph-name="Ugrave" unicode="‚"/><glyph glyph-name="dotlessi" unicode="„" horiz-adv-x="615" d="M71-164v25q0 7 4 10.5t11 3.5q38 1 67 29t29 64q0 16-8 26.5T152 7l-33 7q-23 4-36.5 23T69 84q0 38 23 63.5t57 25.5q53 0 85-42t32-110q0-32-7.5-58.5T234-89q-3-5-6.5-9.5T220-108q-11-14-25-26.5T166-157q-7-4-17-8.5t-20-7.5q-10-4-20.5-6T91-181q-10 0-15 4.5T71-164zm264 0v25q0 7 4 10.5t11 3.5q39 1 68 29t29 64q0 16-8.5 26.5T416 7l-33 7q-22 4-36 23t-14 47q0 38 23 63.5t57 25.5q53 0 85-42t32-110q0-32-7.5-58.5T499-89q-3-5-6.5-9.5T485-108q-12-14-25.5-26.5T430-157q-7-4-17-8.5t-20-7.5q-10-4-20.5-6t-17.5-2q-10 0-15 4.5t-5 12.5z"/><glyph glyph-name="circumflex" unicode="‰" horiz-adv-x="1167" d="M223-18h-71l394 700h71L223-18zm524 188q0-75-40.5-125.5T607-6q-58 0-99.5 52T466 171q0 71 41 121.5t99 50.5q59 0 100-50.5T747 169v1zM604 24h3q24-1 33.5 27.5T650 153q0 95-9 128t-35 33-34-33.5-8-137.5q0-62 9-90t31-30v1zm512 146q0-75-40.5-125.5T976-6q-58 0-99 52t-41 125q0 71 40.5 121.5T975 343q59 0 100-50.5t41-123.5v1zM973 24h3q24-1 33.5 27.5T1019 153q0 95-9 128t-35 33q-25 0-33.5-33.5T933 143q0-62 9-90t31-30v1zM298 489q0-75-40.5-126.5T158 311q-58 0-99 52.5T18 489q0 71 41 122t98 51q59 0 100-50.5T298 488v1zM156 342h2q24-1 33.5 27.5T201 471q0 95-8.5 128T158 632t-34.5-33-8.5-137q0-63 9.5-91t31.5-30v1z"/><glyph glyph-name="tilde" unicode="Â" horiz-adv-x="781" d="M451 257H218l-30-85q-1-4-2-7.5t-2-7.5q-5-15-7.5-28.5T174 106q0-27 16.5-41T241 46V0H6v47q35 5 54.5 16.5T96 104q6 12 12.5 26.5T122 164l184 469-26 57h186l213-546q5-12 9-22t9-18q16-32 34-45t44-13V0H436v47q32 0 52 13t20 34v5q-1 4-2.5 9t-4.5 17q-1 7-2.5 11.5T496 143l-45 114zm-22 59l-99 251-89-251h188zm19 603l99-187h-37L393 833l-119-98h-40l104 184h110z"/><glyph glyph-name="macron" unicode="Ê" horiz-adv-x="750" d="M687 682V538h-66l-7 8q-16 19-28.5 32T561 601q-9 6-18 11t-19 9q-1 0-2 .5t-2 1.5q-17 6-36 9t-48 3l-140 1V381h94q59-1 87 6.5t44 26.5q4 4 6.5 8t4.5 7q3 5 5 9.5t4 11.5q2 3 3 7l2 8 66 1V245h-66q-7 28-23 49.5T485 324q-14 6-34 8t-60 2l-95 1V152q0-61 24.5-83.5T410 46q44 0 69 2.5T525 60q8 3 15.5 6.5T556 75q15 9 28.5 17.5T610 113q11 9 22 20.5t23 26.5l7 9h69L702 0H30v47h10q46-1 62.5 21.5T119 154v373q0 62-16.5 85T40 635l-10 1v46h657zM433 919l99-187h-37L378 833l-119-98h-40l104 184h110z"/><glyph glyph-name="breve" unicode="Á" horiz-adv-x="781" d="M451 257H218l-30-85q-1-4-2-7.5t-2-7.5q-5-15-7.5-28.5T174 106q0-27 16.5-41T241 46V0H6v47q35 5 54.5 16.5T96 104q6 12 12.5 26.5T122 164l184 469-26 57h186l213-546q5-12 9-22t9-18q16-32 34-45t44-13V0H436v47q32 0 52 13t20 34v5q-1 4-2.5 9t-4.5 17q-1 7-2.5 11.5T496 143l-45 114zm-22 59l-99 251-89-251h188zm110 590L377 737h-42l57 169h147z"/><glyph glyph-name="dotaccent" unicode="Ë" horiz-adv-x="750" d="M687 682V538h-66l-7 8q-16 19-28.5 32T561 601q-9 6-18 11t-19 9q-1 0-2 .5t-2 1.5q-17 6-36 9t-48 3l-140 1V381h94q59-1 87 6.5t44 26.5q4 4 6.5 8t4.5 7q3 5 5 9.5t4 11.5q2 3 3 7l2 8 66 1V245h-66q-7 28-23 49.5T485 324q-14 6-34 8t-60 2l-95 1V152q0-61 24.5-83.5T410 46q44 0 69 2.5T525 60q8 3 15.5 6.5T556 75q15 9 28.5 17.5T610 113q11 9 22 20.5t23 26.5l7 9h69L702 0H30v47h10q46-1 62.5 21.5T119 154v373q0 62-16.5 85T40 635l-10 1v46h657zM284 866q27-1 45.5-20t18.5-46-18.5-46-45.5-19-46 19-19 46 19 46 46 19v1zm183-1q27-1 46-20t19-45q0-27-19-46t-46-19-46 19-19 46q0 26 19 45t46 19v1z"/><glyph glyph-name="ring" unicode="È" horiz-adv-x="750" d="M687 682V538h-66l-7 8q-16 19-28.5 32T561 601q-9 6-18 11t-19 9q-1 0-2 .5t-2 1.5q-17 6-36 9t-48 3l-140 1V381h94q59-1 87 6.5t44 26.5q4 4 6.5 8t4.5 7q3 5 5 9.5t4 11.5q2 3 3 7l2 8 66 1V245h-66q-7 28-23 49.5T485 324q-14 6-34 8t-60 2l-95 1V152q0-61 24.5-83.5T410 46q44 0 69 2.5T525 60q8 3 15.5 6.5T556 75q15 9 28.5 17.5T610 113q11 9 22 20.5t23 26.5l7 9h69L702 0H30v47h10q46-1 62.5 21.5T119 154v373q0 62-16.5 85T40 635l-10 1v46h657zM227 906h147l57-169h-42L227 906z"/><glyph glyph-name="cedilla" unicode="Í" horiz-adv-x="406" d="M379 47V0H27v47h7q46-1 62.5 21.5T113 154v373q0 62-16.5 85T34 635l-7 1v46h352v-46h-7q-48-1-65-24t-17-86V155q0-64 17-86.5T372 46l7 1zm-27 859L190 737h-42l57 169h147z"/><glyph glyph-name="hungarumlaut" unicode="Î" horiz-adv-x="406" d="M379 47V0H27v47h7q46-1 62.5 21.5T113 154v373q0 62-16.5 85T34 635l-7 1v46h352v-46h-7q-48-1-65-24t-17-86V155q0-64 17-86.5T372 46l7 1zM261 919l99-187h-37L206 833 87 735H47l104 184h110z"/><glyph glyph-name="ogonek" unicode="Ï" horiz-adv-x="406" d="M379 47V0H27v47h7q46-1 62.5 21.5T113 154v373q0 62-16.5 85T34 635l-7 1v46h352v-46h-7q-48-1-65-24t-17-86V155q0-64 17-86.5T372 46l7 1zM112 866q27-1 45.5-20t18.5-46-18.5-46-45.5-19-46 19-19 46 19 46 46 19v1zm183-1q27-1 46-20t19-45q0-27-19-46t-46-19-46 19-19 46q0 26 19 45t46 19v1z"/><glyph glyph-name="caron" unicode="Ì" horiz-adv-x="406" d="M379 47V0H27v47h7q46-1 62.5 21.5T113 154v373q0 62-16.5 85T34 635l-7 1v46h352v-46h-7q-48-1-65-24t-17-86V155q0-64 17-86.5T372 46l7 1zM55 906h147l57-169h-42L55 906z"/><glyph glyph-name="Lslash" unicode="Ó" horiz-adv-x="875" d="M824 346q0-160-109.5-260T432-14q-172 0-276.5 95T51 331q0 74 23.5 133T148 575q58 59 132 89.5T440 695q77 0 148-24t126-69q54-45 82-110t28-147v1zm-194-14q-4 148-55.5 229.5T432 643q-89 0-138-74.5T245 360v-24q1-24 3.5-48t6.5-46q17-97 67.5-152.5T444 34q50 0 94 30t64 79q14 34 21 75.5t7 95.5v18zm-44 574L424 737h-42l57 169h147z"/><glyph glyph-name="lslash" unicode="Ô" horiz-adv-x="875" d="M824 346q0-160-109.5-260T432-14q-172 0-276.5 95T51 331q0 74 23.5 133T148 575q58 59 132 89.5T440 695q77 0 148-24t126-69q54-45 82-110t28-147v1zm-194-14q-4 148-55.5 229.5T432 643q-89 0-138-74.5T245 360v-24q1-24 3.5-48t6.5-46q17-97 67.5-152.5T444 34q50 0 94 30t64 79q14 34 21 75.5t7 95.5v18zM495 919l99-187h-37L440 833l-119-98h-40l104 184h110z"/><glyph glyph-name="Scaron" unicode=""/><glyph glyph-name="scaron" unicode="Ò"/><glyph glyph-name="Eth" unicode="Ú" horiz-adv-x="833" d="M569 682h250v-46q-52-10-71.5-33.5T728 524V281q0-72-4.5-106T705 115q-3-6-7-12t-9-13q-37-53-102-78.5T426-14q-88 0-151.5 19.5T173 64q-5 5-9 9.5t-8 9.5q-26 33-34.5 75T113 288v239q0 62-16.5 85T33 635l-9 1v46h356v-46h-14q-46-1-62.5-24T287 526V290q0-62 6.5-96.5T316 134q22-34 62-51.5T473 65q103 0 155 53.5T680 277l-4 228q-1 41-6.5 62.5T649 605q-13 16-30.5 22.5T569 635v47zm-4 224L403 737h-42l57 169h147z"/><glyph glyph-name="eth" unicode="Û" horiz-adv-x="833" d="M569 682h250v-46q-52-10-71.5-33.5T728 524V281q0-72-4.5-106T705 115q-3-6-7-12t-9-13q-37-53-102-78.5T426-14q-88 0-151.5 19.5T173 64q-5 5-9 9.5t-8 9.5q-26 33-34.5 75T113 288v239q0 62-16.5 85T33 635l-9 1v46h356v-46h-14q-46-1-62.5-24T287 526V290q0-62 6.5-96.5T316 134q22-34 62-51.5T473 65q103 0 155 53.5T680 277l-4 228q-1 41-6.5 62.5T649 605q-13 16-30.5 22.5T569 635v47zm-95 237l99-187h-37L419 833l-119-98h-40l104 184h110z"/><glyph glyph-name="Thorn" unicode="Ù" horiz-adv-x="833" d="M569 682h250v-46q-52-10-71.5-33.5T728 524V281q0-72-4.5-106T705 115q-3-6-7-12t-9-13q-37-53-102-78.5T426-14q-88 0-151.5 19.5T173 64q-5 5-9 9.5t-8 9.5q-26 33-34.5 75T113 288v239q0 62-16.5 85T33 635l-9 1v46h356v-46h-14q-46-1-62.5-24T287 526V290q0-62 6.5-96.5T316 134q22-34 62-51.5T473 65q103 0 155 53.5T680 277l-4 228q-1 41-6.5 62.5T649 605q-13 16-30.5 22.5T569 635v47zM268 906h147l57-169h-42L268 906z"/><glyph glyph-name="thorn" unicode="ı" horiz-adv-x="333" d="M242 459V150q0-56 12.5-76.5T305 46V0H28v47h2q37-1 52.5 22.5T98 149v179l-70 40v41l168 50h46z"/><glyph glyph-name="onehalf" unicode="˜" horiz-adv-x="333" d="M224 685l99-187h-37L169 599 50 501H10l104 184h110z"/><glyph glyph-name="arrowright" unicode="ˆ" horiz-adv-x="333" d="M297 642h26v-16q0-53-29-87t-74-34h-9q-14 1-30.5 6.5T141 528q-28 14-41.5 19T76 552q-16 0-25-11t-13-34l-28 1v12q0 53 29.5 87.5T116 642h6l6-1q10-1 22-5.5t36-15.5q23-10 42-16.5t29-6.5q13 0 21 7.5t16 27.5q1 2 1.5 4.5t1.5 4.5v1z"/><glyph glyph-name="house" unicode="ˉ" horiz-adv-x="333" d="M10 641h313V540H10v101z"/><glyph glyph-name="endash" unicode="˘" horiz-adv-x="333" d="M283 665h31q-3-68-45-112.5T167 508q-59 0-101.5 45T19 664l32 1q13-33 39.5-48t72.5-15q52 0 79 14t41 48v1z"/><glyph glyph-name="sfthyphen" unicode="˙" horiz-adv-x="333" d="M166 640q30-1 51-22t21-51-21-51-51-21q-29 0-50 21t-21 51 21 51 50 21v1z"/><glyph glyph-name="filledbox" unicode="˚" horiz-adv-x="333" d="M167 689q42-1 72-30.5t30-72.5q0-42-30-72t-73-30q-42 0-72 30t-30 72q0 43 30 72.5t73 29.5v1zm0-37q-27-1-46-20t-19-46q0-26 19-45t46-19 45.5 19 18.5 45q0 27-18.5 46T167 651v1z"/><glyph glyph-name="bullet" unicode="¸" horiz-adv-x="333" d="M171 6h44l-31-39q39-6 59.5-26t20.5-53q0-49-47-73T75-209H43v26q60 2 85.5 15.5T154-125q0 19-15 29.5T95-85l76 91z"/><glyph glyph-name="uni02BA" unicode="ʺ" horiz-adv-x="333" d="M213 671L94 502H55l56 169h102zm155 0L251 502h-39l55 169h101z"/><glyph glyph-name="glyph223" unicode="˛" horiz-adv-x="333" d="M139 8h43q-11-9-19.5-17T148-25q-6-10-9-19.5T136-65v-5.5l1-5.5q3-24 18.5-46t38.5-35q5-3 10-5.5t10-4.5q11-4 23.5-5.5T269-175l14-16q-9-7-18-12.5t-17-9.5q-15-6-30-9t-32-3q-55 0-95.5 35.5T50-107q0 37 22 65t67 49v1z"/><glyph glyph-name="glyph224" unicode="ˇ" horiz-adv-x="333" d="M109 498L10 685h37l117-101 119 98h40L219 498H109z"/><glyph glyph-name="glyph225" unicode="Ł" horiz-adv-x="686" d="M119 172l-83-68v135l83 69v219q0 62-16.5 85T40 635l-4 1v46h350v-46h-9q-47-1-64-24t-17-86v-73l144 119V436L296 318V163q0-65 21.5-90.5T393 47q41 0 77 12t71 38q19 14 38 32t38 40l62 1L650 0H36v47h4q46-1 62.5 21.5T119 154v18z"/><glyph glyph-name="glyph226" unicode="ł" horiz-adv-x="311" d="M235 424l135 112V414L235 302V150q0-59 13.5-79T303 46V0H7v47h12q36-1 51.5 22.5T86 149v30L7 115v122l79 64v264L7 609v29l193 55h35V424z"/><glyph glyph-name="glyph227" unicode="Š" horiz-adv-x="656" d="M574 489h-80q-10 69-58.5 113.5T322 647q-47 0-76.5-23.5T216 562q0-19 9.5-36.5T254 494q5-3 9.5-6.5t9.5-6.5q18-12 44.5-25t71.5-33q39-17 67-31t49-27q23-15 39.5-30.5T575 300t22.5-42 11.5-48q1-6 1.5-12t.5-12q0-94-76-147T326-14q-26 0-55.5 2.5T211-4q-42 6-82 17T58 37l-4 170h81l3-9q17-60 39.5-90.5T240 55q20-10 41-15.5t43-5.5q50 0 82.5 25.5T439 124q0 40-24.5 70T340 247l-92 42q-25 10-46 21t-38 21q-26 16-44.5 32T86 398q-17 22-26 48t-9 53q0 86 77 141t195 55q14 0 27.5-.5T378 692q27-3 55-9t61-17q14-4 24-7.5t17-6.5q3-1 5.5-2t4.5-2q5-2 10-4.5l11-5.5 8-149zM271 732l-99 187h37l117-101 119 98h40L381 732H271z"/><glyph glyph-name="glyph228" unicode="š" horiz-adv-x="458" d="M384 428l11-109h-43q-22 42-60.5 67.5T211 412q-31 0-51-13t-20-33q0-8 3.5-15t11.5-14q11-8 31-16.5t52-20.5q35-12 56.5-20.5T331 264q6-3 12-6.5t12-7.5q1-1 2.5-1.5t2.5-1.5q31-20 46.5-48.5T422 134q0-68-48.5-106.5T239-11q-10 0-19.5.5T200-9q-30 3-63 10.5T58 26l-8 4-8 117h44q29-53 68-80t85-27q36 0 58 14.5T319 91q0 18-15 32t-47 24l-72 24q-77 25-113 60.5T36 319q0 67 48.5 104.5T218 461q20 0 44.5-3t49.5-9q18-5 36.5-10.5T384 427v1zm-212 70L73 685h37l117-101 119 98h40L282 498H172z"/><glyph glyph-name="Zcaron" unicode="Ž"/><glyph glyph-name="zcaron" unicode="ž"/><glyph glyph-name="brokenbar" unicode="¦"/><glyph glyph-name="glyph232" unicode="Ð" horiz-adv-x="875" d="M118 335H30v47h88v145q0 62-16.5 85T38 635l-8 1v46h414q44-1 73-3.5t55-7.5q5-2 10.5-3t11.5-3q23-6 43.5-15t38.5-20q69-43 108-117.5T823 349q0-122-70.5-212.5T563 15q-7-2-13-3.5T537 9q-28-6-62-8t-94-1H30v47h8q47-1 63.5 21.5T118 154v181zm177 0V166q0-66 24-92.5T404 47q8 0 17 .5t18 1.5q20 2 39 6.5T510 66q58 25 91 93.5T634 325q0 38-5 74t-16 70q-9 29-24.5 54.5T552 571q-1 2-2.5 3.5T546 577q-33 33-73.5 44.5T354 634l-33 2h-26V382h169v-47H295z"/><glyph glyph-name="glyph233" unicode="ð" horiz-adv-x="566" d="M309 634l121 55 24-46-94-43q80-54 125-147t45-205q0-123-66-191T279-11q-112 0-179 60.5T33 213q0 107 70 176.5T279 459q11 0 17-.5t12-2.5q2-1 5-2t7-3q-7 15-12 27t-11 21q-4 8-8.5 14.5T279 526q-4 6-10 12.5T256 552L99 482l-24 45 141 64-14 12-14 11q-17 13-33.5 21T119 649l40 40 6-1q21-6 37.5-11t30.5-9q13-5 24-9.5t21-9.5q8-3 15.5-7t15.5-9v1zm64-461q0 12-.5 25.5T371 226q-3 41-9.5 78.5T347 361q-10 23-29.5 36.5T275 411q-19 0-37-11t-27-28q-10-20-15-50t-5-73q0-106 24.5-160T287 35q42 0 64 35.5T373 172v1z"/><glyph glyph-name="Yacute" unicode="Ý"/><glyph glyph-name="yacute" unicode="ý"/><glyph glyph-name="glyph236" unicode="Þ" horiz-adv-x="729" d="M384 682v-46h-11q-39-1-57.5-18.5T295 562l-1-19-1-12h120q112-1 162-14.5t88-54.5q1-1 2-2.5t2-2.5q21-24 32.5-54.5T711 339q0-91-73-140t-210-49q-48 0-61.5 6T353 182q0 11 3 15.5t12 4.5l2 1 25-1q1-1 2.5-1h2.5q2-1 3.5-1h2.5q53 0 84.5 36.5T522 332q0 7-.5 14t-1.5 14q-3 17-9 33.5T498 423q-20 32-53 46t-89 14l-63 1V155q0-64 17-86.5T373 46l13 1V0H26v47h11q47-1 63.5 21.5T117 154v373q0 62-16.5 85T37 635l-11 1v46h358z"/><glyph glyph-name="glyph237" unicode="þ" horiz-adv-x="615" d="M228 693V418q37 34 77 52t81 18q82 0 137-63.5T578 267q0-113-75-182.5T306 15h-19l-16 1q-9 1-19 3t-24 5v-62q0-56 16-79.5t53-23.5h11v-47H9v47h8q36 0 51.5 23.5T84-38v598l-74 50v29l165 54h53zm0-331V210q0-41 3.5-63.5T244 107q9-18 27-30.5T308 62q2-1 4.5-1h4.5q44 0 76 47.5T425 221q0 74-34 122t-86 48h-6q-16-1-32.5-8.5T228 361v1z"/><glyph glyph-name="minus" unicode="−"/><glyph glyph-name="multiply" unicode="×"/><glyph glyph-name="uni00B9" unicode="¹"/><glyph glyph-name="uni00B2" unicode="²"/><glyph glyph-name="uni00B3" unicode="³"/><glyph glyph-name="glyph243" unicode="½" horiz-adv-x="917" d="M301-18h-71l385 700h71L301-18zM890 96L854 0H616v27l4 2 4 4q10 7 22 16.5T670 70l14 14 14 14q13 13 24.5 25.5T742 147q20 26 28.5 45t8.5 36q0 26-19 43t-50 17q-9 0-16.5-1t-14.5-4q-8-3-16.5-8.5T644 260l-22 23 3 3q27 27 61 42t69 15q47 0 79.5-24.5T867 259q0-6-1-12.5t-2-12.5q-3-10-6.5-19t-8.5-16q-11-17-29.5-36T770 118l-58-48h91q23-1 32.5 4T852 95l38 1zM206 663V381q0-20 11-28.5t33-8.5l17 1v-27H56v27h12q30-1 39 9t9 42v141q0 29-8.5 38.5T72 585l-16 1v28q8 1 16.5 3.5T89 623q15 6 29 12.5t25 13.5q5 3 9.5 6.5t8.5 6.5l45 1z"/><glyph glyph-name="onequarter" unicode="¼"/><glyph glyph-name="threequarters" unicode="¾"/><glyph glyph-name="franc" unicode="₣"/><glyph glyph-name="Gbreve" unicode="Ğ"/><glyph glyph-name="gbreve" unicode="ğ"/><glyph glyph-name="Idotaccent" unicode="İ"/><glyph glyph-name="Scedilla" unicode="Ş"/><glyph glyph-name="scedilla" unicode="ş"/><glyph glyph-name="Cacute" unicode="Ć"/><glyph glyph-name="cacute" unicode="ć"/><glyph glyph-name="Ccaron" unicode="Č"/><glyph glyph-name="ccaron" unicode="č"/><glyph glyph-name="dcroat" unicode="đ"/><glyph glyph-name="glyph257" unicode="→" horiz-adv-x="500"/><glyph glyph-name="glyph258" unicode="⌂"/><glyph glyph-name="glyph259" unicode="–" horiz-adv-x="500" d="M-6 311h512V189H-6v122z"/><glyph glyph-name="uni00AD" unicode="­" horiz-adv-x="500"/><glyph glyph-name="glyph261" unicode="■" horiz-adv-x="500"/><glyph glyph-name="glyph262" unicode="•" horiz-adv-x="351" d="M176 470q58-1 98.5-42t40.5-99-40.5-98.5T176 190t-99 40.5T36 329t41 99 99 41v1z"/><glyph glyph-name="glyph263" unicode="¯"/><glyph glyph-name="glyph264" unicode="°"/><glyph glyph-name="glyph265" unicode="·"/><glyph glyph-name="underscoredbl" unicode="‗"/><glyph glyph-name="exclamdbl" unicode="‼"/><glyph glyph-name="uni207F" unicode="ⁿ"/><glyph glyph-name="peseta" unicode="₧"/><glyph glyph-name="Gamma" unicode="Γ"/><glyph glyph-name="Theta" unicode="Θ"/><glyph glyph-name="Phi" unicode="Φ"/><glyph glyph-name="alpha" unicode="α"/><glyph glyph-name="delta" unicode="δ"/><glyph glyph-name="epsilon" unicode="ε"/><glyph glyph-name="sigma" unicode="σ"/><glyph glyph-name="tau" unicode="τ"/><glyph glyph-name="phi" unicode="φ"/><glyph glyph-name="arrowleft" unicode="←"/><glyph glyph-name="arrowup" unicode="↑"/><glyph glyph-name="arrowdown" unicode="↓"/><glyph glyph-name="arrowboth" unicode="↔"/><glyph glyph-name="arrowupdn" unicode="↕"/><glyph glyph-name="arrowupdnbse" unicode="↨"/><glyph glyph-name="orthogonal" unicode="∟"/><glyph glyph-name="intersection" unicode="∩"/><glyph glyph-name="equivalence" unicode="≡"/><glyph glyph-name="revlogicalnot" unicode="⌐"/><glyph glyph-name="integraltp" unicode="⌠"/><glyph glyph-name="integralbt" unicode="⌡"/><glyph glyph-name="filledrect" unicode="▬"/><glyph glyph-name="circle" unicode="○"/><glyph glyph-name="triagup" unicode="▲"/><glyph glyph-name="triagrt" unicode="►"/><glyph glyph-name="triagdn" unicode="▼"/><glyph glyph-name="triaglf" unicode="◄"/><glyph glyph-name="invbullet" unicode="◘"/><glyph glyph-name="invcircle" unicode="◙"/><glyph glyph-name="Rcaron" unicode="Ř"/><glyph glyph-name="upblock" unicode="▀"/><glyph glyph-name="dnblock" unicode="▄"/><glyph glyph-name="block" unicode="█"/><glyph glyph-name="lfblock" unicode="▌"/><glyph glyph-name="rtblock" unicode="▐"/><glyph glyph-name="ltshade" unicode="░"/><glyph glyph-name="shade" unicode="▒"/><glyph glyph-name="dkshade" unicode="▓"/><glyph glyph-name="smileface" unicode="☺"/><glyph glyph-name="invsmileface" unicode="☻"/><glyph glyph-name="sun" unicode="☼"/><glyph glyph-name="female" unicode="♀"/><glyph glyph-name="male" unicode="♂"/><glyph glyph-name="spade" unicode="♠"/><glyph glyph-name="club" unicode="♣"/><glyph glyph-name="heart" unicode="♥"/><glyph glyph-name="diamond" unicode="♦"/><glyph glyph-name="musicalnote" unicode="♪"/><glyph glyph-name="musicalnotedbl" unicode="♫"/><glyph glyph-name="Abreve" unicode="Ă"/><glyph glyph-name="abreve" unicode="ă"/><glyph glyph-name="Aogonek" unicode="Ą"/><glyph glyph-name="aogonek" unicode="ą"/><glyph glyph-name="Dcaron" unicode="Ď"/><glyph glyph-name="dcaron" unicode="ď"/><glyph glyph-name="Dcroat" unicode="Đ"/><glyph glyph-name="Eogonek" unicode="Ę"/><glyph glyph-name="eogonek" unicode="ę"/><glyph glyph-name="Ecaron" unicode="Ě"/><glyph glyph-name="ecaron" unicode="ě"/><glyph glyph-name="Lacute" unicode="Ĺ"/><glyph glyph-name="lacute" unicode="ĺ"/><glyph glyph-name="Lcaron" unicode="Ľ"/><glyph glyph-name="lcaron" unicode="ľ"/><glyph glyph-name="Nacute" unicode="Ń"/><glyph glyph-name="nacute" unicode="ń"/><glyph glyph-name="Ncaron" unicode="Ň"/><glyph glyph-name="ncaron" unicode="ň"/><glyph glyph-name="Ohungarumlaut" unicode="Ő"/><glyph glyph-name="ohungarumlaut" unicode="ő"/><glyph glyph-name="Racute" unicode="Ŕ"/><glyph glyph-name="racute" unicode="ŕ"/><glyph glyph-name="rcaron" unicode="ř"/><glyph glyph-name="Sacute" unicode="Ś"/><glyph glyph-name="sacute" unicode="ś"/><glyph glyph-name="Tcommaaccent" unicode="Ţ"/><glyph glyph-name="tcommaaccent" unicode="ţ"/><glyph glyph-name="Tcaron" unicode="Ť"/><glyph glyph-name="tcaron" unicode="ť"/><glyph glyph-name="Uring" unicode="Ů"/><glyph glyph-name="uring" unicode="ů"/><glyph glyph-name="uhungarumlaut" unicode="ű"/><glyph glyph-name="Uhungarumlaut" unicode="Ű"/><glyph glyph-name="Zacute" unicode="Ź"/><glyph glyph-name="zacute" unicode="ź"/><glyph glyph-name="Zdotaccent" unicode="Ż"/><glyph glyph-name="zdotaccent" unicode="ż"/><glyph glyph-name="Ldot" unicode="Ŀ"/><glyph glyph-name="ldot" unicode="ŀ"/><glyph glyph-name="SF100000" unicode="─"/><glyph glyph-name="SF110000" unicode="│"/><glyph glyph-name="SF010000" unicode="┌"/><glyph glyph-name="SF030000" unicode="┐"/><glyph glyph-name="SF020000" unicode="└"/><glyph glyph-name="SF040000" unicode="┘"/><glyph glyph-name="SF080000" unicode="├"/><glyph glyph-name="SF090000" unicode="┤"/><glyph glyph-name="SF060000" unicode="┬"/><glyph glyph-name="SF070000" unicode="┴"/><glyph glyph-name="SF050000" unicode="┼"/><glyph glyph-name="SF430000" unicode="═"/><glyph glyph-name="SF240000" unicode="║"/><glyph glyph-name="SF510000" unicode="╒"/><glyph glyph-name="SF520000" unicode="╓"/><glyph glyph-name="SF390000" unicode="╔"/><glyph glyph-name="SF220000" unicode="╕"/><glyph glyph-name="SF210000" unicode="╖"/><glyph glyph-name="SF250000" unicode="╗"/><glyph glyph-name="SF500000" unicode="╘"/><glyph glyph-name="SF490000" unicode="╙"/><glyph glyph-name="SF380000" unicode="╚"/><glyph glyph-name="SF280000" unicode="╛"/><glyph glyph-name="SF270000" unicode="╜"/><glyph glyph-name="SF260000" unicode="╝"/><glyph glyph-name="SF360000" unicode="╞"/><glyph glyph-name="SF370000" unicode="╟"/><glyph glyph-name="SF420000" unicode="╠"/><glyph glyph-name="SF190000" unicode="╡"/><glyph glyph-name="SF200000" unicode="╢"/><glyph glyph-name="SF230000" unicode="╣"/><glyph glyph-name="SF470000" unicode="╤"/><glyph glyph-name="SF480000" unicode="╥"/><glyph glyph-name="SF410000" unicode="╦"/><glyph glyph-name="SF450000" unicode="╧"/><glyph glyph-name="SF460000" unicode="╨"/><glyph glyph-name="SF400000" unicode="╩"/><glyph glyph-name="SF540000" unicode="╪"/><glyph glyph-name="SF530000" unicode="╫"/><glyph glyph-name="SF440000" unicode="╬"/></font>
</defs>
</svg>
