<svg xmlns="http://www.w3.org/2000/svg"><defs><font id="PlantinMTStd-Regular" horiz-adv-x="333"><font-face font-family="Plantin MT Std" font-weight="400" panose-1="2 2 5 3 5 4 5 2 3 4" ascent="695" descent="-305" x-height="450" cap-height="682" bbox="-132 -250 1143 908" underline-thickness="50" underline-position="-50" stemh="37" stemv="84" unicode-range="U+0020-FB04"/><glyph glyph-name="fi" unicode="fi" horiz-adv-x="573" d="M405 109v242c0 32-18 52-64 52H192V124c0-54 15-85 73-88V0H33v36c50 0 75 27 75 76v291H18v47h31c46 0 60 11 62 57 4 110 94 192 225 192 82 0 141-30 141-72 0-25-19-45-42-45-54 0-56 74-133 74-66 0-110-41-110-132v-74h214c27 0 62 3 83 17V111c0-55 35-74 71-75V0H330v36c44 0 75 22 75 73z"/><glyph glyph-name="fl" unicode="fl" horiz-adv-x="573" d="M406 450v142c-31 11-33 64-109 64-65 0-104-47-104-140v-66h213zm0-47H193V124c0-55 12-83 72-88V0H34v36c53 0 75 32 75 79v288H18v47h32c51 0 58 16 61 57 11 148 134 192 225 192 49 0 69-7 93-18l52 14h9V119c0-54 15-78 68-83V0H333v36c52 3 73 33 73 78v289z"/><glyph glyph-name="f_f" unicode="ff" horiz-adv-x="625" d="M503 403V133c0-68 6-96 103-96V0H343v37c76 0 76 56 76 96v270H189V133c0-44 0-96 80-96V0H28v37c78 0 77 50 77 96v270H19v34c0 13 4 13 18 13h13c48 0 54 24 58 42 10 46 21 90 72 133 56 47 127 54 156 54 41 0 102-9 128-57 25 45 88 73 142 73 60 0 103-26 103-63 0-13-7-45-45-45-26 0-41 18-52 36-9 14-19 31-46 31-64 0-63-93-63-147v-57h93v-47h-93zm-314 69v-22h153c45 0 76 2 81 55 0 20 5 54 10 62-5-1-1-1-13-1-33 0-48 27-55 37-11 16-23 35-61 35-57 0-86-37-101-76-15-38-14-80-14-90z"/><glyph glyph-name="f_f_i" unicode="ffi" horiz-adv-x="865" d="M400 403H188V133c0-44 0-96 79-96V0H27v37c79 0 77 50 77 96v270H19v34c0 12 6 13 18 13h13c48 0 52 24 57 42 14 49 22 93 69 132 53 44 118 55 159 55 12 0 93 0 123-49 44 45 105 65 168 65 35 0 144-8 144-74 0-26-22-43-42-43-26 0-45 23-56 36-16 18-33 40-80 40-54 0-81-28-95-61s-13-71-13-89v-54h182c72 0 90 4 116 15V133c0-44 6-96 70-96V0H622v37c76 0 76 57 76 96v215c0 55-41 55-71 55H484V133c0-42 1-96 74-96V0H325v37c75 0 75 57 75 96v270zm-212 47h171c38 0 41 31 43 53 2 17 4 45 16 64-27 2-42 18-54 36-11 16-23 35-61 35-58 0-87-36-101-75-14-38-14-81-14-91v-22z"/><glyph glyph-name="f_f_l" unicode="ffl" horiz-adv-x="865" d="M400 403H188V133c0-49 7-96 73-96V0H27v37c78 0 77 50 77 96v270H19v34c0 13 4 13 17 13h14c47 0 52 24 56 42 11 50 23 93 70 132 52 43 117 55 158 55 48 0 99-9 124-49 45 46 103 65 168 65 16 0 51 0 95-16l44 16h16V133c0-68 19-96 69-96V0H626v37c54 0 71 32 71 96v270H484V133c0-64 14-96 74-96V0H325v37c75 0 75 56 75 96v270zm-212 47h156c52 0 55 21 58 54 0 11 3 42 12 63-30 5-39 19-51 36-10 16-23 35-60 35-58 0-87-36-101-75-14-38-14-80-14-90v-23zm296 0h213v138c-7 5-11 9-25 26s-34 40-81 40c-54 0-81-28-94-61-13-32-13-70-13-88v-55z"/><glyph glyph-name=".notdef" horiz-adv-x="500" d="M0 0v700h500V0H0zm250 395l170 255H80zm30-45L450 95v510zM80 50h340L250 305zM50 605V95l170 255z"/><glyph glyph-name="space" horiz-adv-x="278"/><glyph glyph-name="exclam" unicode="!" horiz-adv-x="292" d="M145 112c34 0 62-27 62-61s-28-62-62-62-61 28-61 62 27 61 61 61zm8 77h-14c-10 0-14 4-15 19L90 655c-2 31 5 44 39 44h34c34 0 41-13 39-44l-34-447c-1-15-5-19-15-19z"/><glyph glyph-name="quotedbl" unicode="&quot;" horiz-adv-x="408" d="M105 396L78 541l-9 49-3 38c0 32 20 54 49 54 30 0 50-22 50-54l-4-38-9-49-26-145h-21zm176 0l-26 145-9 49-4 38c0 32 20 54 50 54s50-22 50-54l-4-38-9-49-26-145h-22z"/><glyph glyph-name="numbersign" unicode="#" horiz-adv-x="668" d="M41 488h157l42 194h69l-41-194h195l41 194h70l-41-194h93v-70H519l-35-171h142v-70H470L429-16h-70l41 193H203L164-16H93l41 193H41v70h107l36 171H41v70zm213-70l-36-170h196l36 170H254z"/><glyph glyph-name="dollar" unicode="$" horiz-adv-x="552" d="M221 682v-37c15 2 33 4 49 4 17 0 33-2 50-4v37h37v-46c70-20 122-66 122-108 0-20-15-39-29-39-66 0-61 76-93 94V357c86-28 139-95 139-175 0-86-54-157-139-182v-113h-37V-8c-8-1-15-2-21-3-7-1-14-1-22-1-19 0-35 1-56 5v-106h-37V0C112 21 55 71 55 113c0 25 20 46 47 46 55 0 38-72 82-104v266c-82 36-119 90-119 161 0 74 41 128 119 154v46h37zm0-81V404c33-14 63-23 99-35v232c-18 3-32 5-48 5-15 0-33-2-51-5zm-37-181v170c-37-17-58-46-58-83s21-67 58-87zm37-115V39c34-9 67-8 99-8v240c-36 11-66 22-99 34zm136-50V41c47 20 77 64 77 110s-22 76-77 104z"/><glyph glyph-name="percent" unicode="%" horiz-adv-x="906" d="M294 510c0 110-22 158-72 158-48 0-71-48-71-153 0-102 23-150 72-150 48 0 71 48 71 145zm-218 3c0 104 62 181 147 181 84 0 146-75 146-178 0-101-62-177-146-177-85 0-147 73-147 174zM243-31h-52l462 725h51zm293 193c0 104 62 181 147 181 84 0 146-75 146-178 0-101-62-177-146-177-85 0-147 73-147 174zm218-3c0 110-22 158-72 158-48 0-71-48-71-153 0-102 23-150 72-150 48 0 71 48 71 145z"/><glyph glyph-name="ampersand" unicode="&amp;" horiz-adv-x="750" d="M510 439h210v-38c-95-20-86-92-190-231 19-23 42-52 55-65 69-69 134-41 134-90 0-18-13-26-44-26h-35c-78 0-137 32-181 98-79-72-138-99-216-99C104-12 35 84 35 173c0 82 48 133 183 228-52 57-73 97-73 136 0 82 131 162 193 162 78 0 128-90 128-129 0-43-31-75-133-139 53-46 113-135 172-224 42 56 68 112 68 138 0 27-25 49-63 56v38zM130 222c0-81 87-159 177-159 48 0 80 14 128 56-55 97-138 208-190 254-81-56-115-101-115-151zm89 349c0-30 31-64 85-111 60 35 87 65 87 98 0 35-43 91-81 91-45 0-91-39-91-78z"/><glyph glyph-name="quoteright" unicode="’" horiz-adv-x="292" d="M79 416l-15 34c72 22 107 58 107 101 0 23-9 34-35 34-45 0-67 18-67 53s25 57 63 57c51 0 96-44 96-114 0-72-47-138-149-165z"/><glyph glyph-name="parenleft" unicode="(" horiz-adv-x="385" d="M370-147l-31-38C178-90 95 64 95 255s83 345 244 440l31-38c-136-83-212-220-212-402s76-319 212-402z"/><glyph glyph-name="parenright" unicode=")" horiz-adv-x="385" d="M15 657l31 38c161-95 244-249 244-440S207-90 46-185l-31 38C151-64 227 73 227 255S151 574 15 657z"/><glyph glyph-name="asterisk" unicode="*" horiz-adv-x="500" d="M262 424L131 310l-21 24 85 142-161 68 9 28h166l27 157h28l38-150 157 28 7-28-136-92 83-153-21-24z"/><glyph glyph-name="plus" unicode="+" horiz-adv-x="667" d="M66 364h229v229h77V364h229v-77H372V58h-77v229H66v77z"/><glyph glyph-name="comma" unicode="," horiz-adv-x="292" d="M33-153v37c89 10 142 38 142 102 0 39-13 57-48 57-39 0-62 21-62 57 0 39 25 63 64 63 59 0 104-63 104-146 0-106-73-168-200-170z"/><glyph glyph-name="hyphen" unicode="-" horiz-adv-x="365" d="M29 199v76h307v-76H29z"/><glyph glyph-name="period" unicode="." horiz-adv-x="292" d="M145 112c34 0 62-27 62-61s-28-62-62-62-61 28-61 62 27 61 61 61z"/><glyph glyph-name="slash" unicode="/" horiz-adv-x="278" d="M278 699L44-12H0l234 711h44z"/><glyph glyph-name="zero" unicode="0" horiz-adv-x="552" d="M49 306c0 199 100 358 228 358 131 0 226-136 226-321 0-87-20-170-59-240C401 28 343-12 274-12c-66 0-121 33-165 100-41 62-60 134-60 218zm94 60c0-61 5-121 13-171 6-35 18-70 36-105 21-42 54-65 90-65 43 0 82 33 101 86 18 49 26 102 26 183 0 210-52 327-144 327-39 0-77-30-96-76-19-45-26-91-26-179z"/><glyph glyph-name="one" unicode="1" horiz-adv-x="552" d="M327 664V130c0-61 22-94 81-94h10V0H134v36h16c57 0 83 30 83 91v368c0 54-21 82-79 82h-17v36c71 0 112 13 161 51h29z"/><glyph glyph-name="two" unicode="2" horiz-adv-x="552" d="M504 165L455 0H49v36c184 203 331 301 331 423 0 73-53 133-117 133-70 0-132-55-173-152l-37 15c48 134 132 209 235 209 104 0 186-83 186-186 0-165-186-220-332-397h210c64 0 89 18 117 84h35z"/><glyph glyph-name="three" unicode="3" horiz-adv-x="552" d="M176 305l-16 33c125 70 186 115 186 180 0 46-37 83-87 83-54 0-114-35-173-101l-28 22c69 93 141 142 230 142 88 0 152-49 152-119 0-51-33-91-118-147l2-2c96 14 164-71 164-157 0-133-131-251-286-251C143-12 79 6 43 33l20 29c48-23 81-31 123-31 114 0 208 80 208 185 0 74-50 127-115 127-31 0-66-13-103-38z"/><glyph glyph-name="four" unicode="4" horiz-adv-x="552" d="M406 187v-72c0-58 25-79 88-79V0H222v36c68 0 90 24 90 81v70H38v58l288 419h80V236c40 0 54 15 69 64h34l-15-113h-88zm-94 49v341h-2L79 236h233z"/><glyph glyph-name="five" unicode="5" horiz-adv-x="552" d="M140 652h246c40 0 50 2 58 12h34l-19-93H159l-30-133c46 19 78 27 116 27 130 0 231-100 231-229C476 93 355-12 192-12c-45 0-91 7-133 21l15 34c38-8 67-12 95-12 116 0 210 85 210 191 0 95-69 162-164 162-47 0-84-13-123-44l-23 6z"/><glyph glyph-name="six" unicode="6" horiz-adv-x="552" d="M439 664v-35c-137-5-249-95-271-256l2-2c49 53 97 71 151 71 103 0 178-90 178-210 0-134-92-244-203-244C191-12 64 82 64 279c0 224 183 389 375 385zM162 303C151 151 210 31 295 31c60 0 110 61 110 179 0 109-47 182-115 182-49 0-84-25-128-89z"/><glyph glyph-name="seven" unicode="7" horiz-adv-x="552" d="M296 0h-98c0 138 83 316 225 571H197c-64 0-94-23-111-87H49l41 180h24c9-7 20-10 32-11s26-1 42-1h296v-51C391 455 297 178 296 0z"/><glyph glyph-name="eight" unicode="8" horiz-adv-x="552" d="M199 331c-87 46-126 94-126 162 0 94 92 171 204 171 111 0 199-69 199-156 0-62-38-106-123-142 94-46 141-111 141-191 0-110-90-187-219-187C152-12 58 63 58 161c0 78 57 134 141 170zm116 53c59 27 88 65 88 116 0 70-56 121-133 121-66 0-117-43-117-98 0-83 92-106 162-139zm-80-71c-64-30-99-81-99-144 0-85 60-144 147-144 81 0 138 50 138 119 0 82-67 119-186 169z"/><glyph glyph-name="nine" unicode="9" horiz-adv-x="552" d="M113-12v35c144 10 244 90 270 255l-2 2c-52-50-96-70-150-70-103 0-178 90-178 210 0 133 92 244 203 244 102 0 232-90 232-292 0-194-150-383-375-384zm277 361c11 169-55 272-131 272-66 0-112-63-112-179 0-108 47-182 115-182 49 0 92 29 128 89z"/><glyph glyph-name="colon" unicode=":" horiz-adv-x="292" d="M145 461c34 0 62-27 62-61s-28-62-62-62-61 28-61 62 27 61 61 61zm0-349c34 0 62-27 62-61s-28-62-62-62-61 28-61 62 27 61 61 61z"/><glyph glyph-name="semicolon" unicode=";" horiz-adv-x="292" d="M33-153v37c89 10 142 38 142 102 0 39-13 57-48 57-39 0-62 21-62 57 0 39 25 63 64 63 59 0 104-63 104-146 0-106-73-168-200-170zm112 614c34 0 62-27 62-61s-28-62-62-62-61 28-61 62 27 61 61 61z"/><glyph glyph-name="less" unicode="&lt;" horiz-adv-x="667" d="M600 67L66 291v70l534 224v-83L170 326l430-176V67z"/><glyph glyph-name="equal" unicode="=" horiz-adv-x="667" d="M66 480h535v-77H66v77zm0-231h535v-77H66v77z"/><glyph glyph-name="greater" unicode="&gt;" horiz-adv-x="667" d="M66 585l534-225v-69L66 67v83l430 175L66 501v84z"/><glyph glyph-name="question" unicode="?" horiz-adv-x="385" d="M146 175h-36c0 95-15 128-15 149 0 8 1 13 6 18 17 17 110 16 160 66 18 18 30 42 30 65 0 67-72 146-133 146-36 0-51-22-81-22-25 0-42 17-42 41 0 37 35 61 88 61 140 0 231-209 231-270 0-37-11-70-38-97-53-53-117-51-151-85-14-14-18-40-19-72zm-15-63c34 0 62-27 62-61s-28-62-62-62-61 28-61 62 27 61 61 61z"/><glyph glyph-name="at" unicode="@" horiz-adv-x="921" d="M692 468l-95-327c-17-57-2-91 31-91 84 0 204 130 204 318 0 176-131 301-316 301-260 0-419-235-419-465 0-229 158-390 382-390 178 0 319 97 393 270h28C853-82 684-216 477-216 232-216 51-33 51 217c0 267 203 477 462 477 208 0 349-136 349-335 0-136-84-344-268-344-50 0-76 23-76 68 0 20 2 37 8 69l-2 2C471 84 403 15 335 15c-50 0-89 50-89 115 0 155 160 341 269 341 39 0 75-21 83-68h2l15 54zm-171-20c-98 0-198-226-198-303 0-40 25-71 57-71 81 0 201 156 201 302 0 43-25 72-60 72z"/><glyph glyph-name="A" unicode="A" horiz-adv-x="719" d="M510 144l-51 122H195l-36-94c-27-70-2-130 74-134V0H3v38c52 13 68 40 97 112l201 500-16 32h107l248-577c20-46 39-67 76-67V0H436v38c80 8 99 46 74 106zm-74 176L323 591 216 320h220z"/><glyph glyph-name="B" unicode="B" horiz-adv-x="688" d="M139 141v406c0 67-30 97-106 97v38h363c139 0 218-60 218-165 0-92-62-138-203-159v-2c176-4 230-97 230-174C641 68 534 0 413 0H33v38c83 0 106 37 106 103zm105 239h95c106 0 154 30 154 121 0 92-61 138-169 138h-80V380zm0-47V144c0-65 31-101 94-101h51c81 0 131 51 131 132 0 75-49 158-175 158H244z"/><glyph glyph-name="C" unicode="C" horiz-adv-x="781" d="M716 488h-32c-46 100-138 163-237 163-136 0-264-101-264-303 0-170 100-317 278-317 112 0 198 55 223 168h37l-5-157c-76-31-192-54-272-54C220-12 62 130 62 331c0 175 130 363 396 363 74 0 151-16 234-47z"/><glyph glyph-name="D" unicode="D" horiz-adv-x="844" d="M141 139v397c0 65-18 108-112 108v38h388c127 0 211-33 279-101 76-76 101-151 101-235C797 190 684 0 409 0H29v38c83 0 112 26 112 101zm105 500V149c0-64 40-106 105-106h57c179 0 264 132 264 278 0 156-93 318-329 318h-97z"/><glyph glyph-name="E" unicode="E" horiz-adv-x="677" d="M658 167L613 0H26v38c76 0 107 29 107 102v402c0 66-26 102-107 102v38h578V530h-36c-36 90-87 109-170 109H238V377h134c94 0 129 25 134 96h41V232h-41c-12 76-46 102-132 102H238V169c0-96 27-126 117-126h50c111 0 161 30 208 124h45z"/><glyph glyph-name="F" unicode="F" horiz-adv-x="656" d="M557 473V227h-41c-15 82-49 113-126 113H245V138c0-76 30-100 121-100V0H34v38c82 0 106 36 106 101v396c0 77-25 109-112 109v38h607V528h-30c-44 88-81 111-167 111H245V383h164c77 0 99 26 106 90h42z"/><glyph glyph-name="G" unicode="G" horiz-adv-x="833" d="M735 212V36C621 2 533-12 455-12 176-12 45 162 45 329c0 203 188 365 422 365 78 0 145-12 244-45l14-160h-41c-52 110-127 162-235 162-159 0-279-131-279-307 0-177 127-313 290-313 56 0 107 13 166 44v144c0 61-31 94-99 94h-21v38h320v-38c-70-6-91-35-91-101z"/><glyph glyph-name="H" unicode="H" horiz-adv-x="854" d="M241 323V139c0-74 33-101 108-101V0H31v38c87 0 105 38 105 104v404c0 70-31 98-105 98v38h318v-38c-69 0-108-23-108-99V375h370v178c0 56-31 91-97 91v38h309v-38c-81 0-107-33-107-104V146c0-70 19-108 107-108V0H514v38c68 0 97 35 97 97v188H241z"/><glyph glyph-name="I" unicode="I" horiz-adv-x="375" d="M241 541V139c0-65 24-101 107-101V0H27v38c93 0 109 35 109 115v384c0 75-24 107-109 107v38h321v-38c-73 0-107-26-107-103z"/><glyph glyph-name="J" unicode="J" horiz-adv-x="354" d="M30 682h325v-38c-73 0-110-25-110-91V102c0-196-73-273-177-273-60 0-103 27-103 66 0 27 18 47 46 47 54 0 53-70 95-70 30 0 34 32 34 83v588c0 70-29 101-110 101v38z"/><glyph glyph-name="K" unicode="K" horiz-adv-x="802" d="M31 682h317v-38c-71 0-106-26-106-94V136c0-62 23-98 112-98V0H31v38c79 0 106 30 106 107v388c0 72-18 111-106 111v38zm429 0h283v-38c-49-5-83-17-123-47-63-47-115-112-255-215 93-71 218-201 319-278 56-42 91-56 133-64V0H641c-84 67-208 196-378 339l-13 12c193 133 271 212 271 252 0 26-19 41-61 41v38z"/><glyph glyph-name="L" unicode="L" horiz-adv-x="677" d="M135 153v391c0 67-23 100-113 100v38h331v-38c-92 0-113-39-113-96V175c0-92 34-132 132-132h89c88 0 145 34 196 124h42L657 0H22v38c94 6 113 28 113 115z"/><glyph glyph-name="M" unicode="M" horiz-adv-x="1010" d="M843 529l51-391c8-58 30-92 104-100V0H696v38c68 0 95 41 87 106l-46 385h-2C665 318 532 135 503 0h-47c-21 126-176 361-235 545h-2l-52-362C151 80 177 43 256 38V0H22v38c59 0 83 31 94 102l57 371c13 86-2 128-73 133v38h199c11-173 160-378 211-537 87 171 143 289 176 367 30 71 39 121 29 170h203v-38c-77-7-84-44-75-115z"/><glyph glyph-name="N" unicode="N" horiz-adv-x="844" d="M143 147v412l-44 44c-33 30-54 37-92 41v38h162l511-518v327c-2 79-18 153-119 153v38h269v-38c-75 0-107-62-107-153V178c0-100 19-122 23-186h-66c-31 42-57 74-80 97L186 513V166c0-91 40-128 122-128V0H22v38c88 0 122 27 121 109z"/><glyph glyph-name="O" unicode="O" horiz-adv-x="813" d="M53 328c0 243 179 366 354 366 202 0 353-152 353-356 0-198-160-350-369-350C211-12 53 126 53 328zm121 54c0-183 86-351 247-351 131 0 218 108 218 269 0 174-83 351-250 351-120 0-215-93-215-269z"/><glyph glyph-name="P" unicode="P" horiz-adv-x="635" d="M135 142v411c0 60-33 91-102 91v38h350c133 0 226-72 226-181 0-117-99-194-249-194-45 0-70 10-70 29 0 28 39 20 52 20 88 0 146 54 146 133 0 73-27 150-164 150h-84V142c0-74 26-104 115-104V0H33v38c84 0 102 39 102 104z"/><glyph glyph-name="Q" unicode="Q" horiz-adv-x="813" d="M800-104v-87c-117 11-199 28-279 68C443-84 369-37 302 0 139 62 53 162 53 332c0 209 150 362 354 362 202 0 353-152 353-354C760 170 653 40 480-1v-2c95-45 207-83 320-101zM174 390c0-212 99-359 246-359 122 0 219 95 219 271 0 167-85 349-251 349-126 0-214-108-214-261z"/><glyph glyph-name="R" unicode="R" horiz-adv-x="719" d="M243 322V132c0-63 30-94 105-94V0H37v38c88 0 101 48 101 115v393c0 66-31 98-101 98v38h327c187 0 255-79 255-176 0-73-51-149-186-171l143-163C652 86 703 38 742 38V0h-80c-72 0-102 22-177 115L352 281c-24 30-35 41-80 41h-29zm0 43h94c112 0 161 49 161 129 0 76-54 145-177 145h-78V365z"/><glyph glyph-name="S" unicode="S" horiz-adv-x="594" d="M59 36v172h43c20-103 74-172 185-172 83 0 150 51 150 112 0 18-7 44-36 73-65 65-199 111-283 195-28 28-45 61-45 106 0 103 94 172 232 172 67 0 143-20 209-57V490h-43c-7 102-79 161-172 161-69 0-123-41-123-95 0-25 10-46 32-68 53-53 202-112 277-187 36-36 55-75 55-124C540 66 436-12 290-12c-73 0-181 22-231 48z"/><glyph glyph-name="T" unicode="T" horiz-adv-x="760" d="M328 141v498H220c-89 0-117-19-172-119H14l10 162h712l11-162h-34c-58 101-84 119-172 119H433V135c0-63 24-97 108-97V0H220v38c82 0 108 32 108 103z"/><glyph glyph-name="U" unicode="U" horiz-adv-x="833" d="M17 682h328v-38c-86 0-114-27-114-104V229c0-111 79-181 213-181 113 0 221 60 221 217v262c0 72-23 117-118 117v38h269v-38c-62 0-106-27-106-105V257C710 52 575-12 420-12 214-12 126 92 126 209v339c0 60-22 96-109 96v38z"/><glyph glyph-name="V" unicode="V" horiz-adv-x="708" d="M221 518l129-269c17-36 31-74 45-111 15 42 30 77 46 115l85 200c45 105 57 179-53 191v38h234v-38c-29-9-49-22-64-37-22-22-50-117-82-192L439 131c-16-38-33-89-44-143h-54c-8 36-21 72-42 118L91 556c-37 80-49 88-89 88v38h273v-38c-92-4-98-35-54-126z"/><glyph glyph-name="W" unicode="W" horiz-adv-x="1000" d="M483 307L375 544c-38 84-62 99-90 100v38h232v-38c-46-12-56-51-36-92l63-127 59 115c18 35 20 91-37 104v38h182v-38c-40-11-56-33-93-102l-89-166 87-176c12-25 20-44 30-70l154 354c38 86 31 150-41 160v38h203v-38c-36-5-61-33-88-95L708 84c-12-27-27-70-31-96h-47c-5 24-13 44-20 58L505 260l-75-146c-13-26-49-96-52-126h-53c-4 26-25 77-40 111L87 540c-34 77-42 93-86 104v38h237v-38c-67-16-58-67-34-119l80-170c20-43 74-167 102-241z"/><glyph glyph-name="X" unicode="X" horiz-adv-x="781" d="M432 376l206-248c54-65 93-90 137-90V0H448v38c81 2 99 39 49 99L363 298 242 159c-51-58-40-121 47-121V0H13v38c63 10 88 26 156 103l167 189-192 230c-56 67-79 82-137 84v38h323v-38c-80-3-91-41-50-89l124-146 103 123c42 50 42 106-41 112v38h257v-38c-47-4-92-29-166-118z"/><glyph glyph-name="Y" unicode="Y" horiz-adv-x="719" d="M413 286V132c0-64 35-94 100-94V0H206v38c66 0 102 28 102 95v153L99 592c-23 34-49 48-91 52v38h300v-38c-79 0-96-36-60-88l149-217 116 170c48 70 32 131-48 135v38h246v-38c-41-5-66-27-115-97z"/><glyph glyph-name="Z" unicode="Z" horiz-adv-x="677" d="M650 177L605 0H30v30l456 609H284c-93 0-128-24-167-112H80v155h546v-29L166 43h199c134 0 169 26 246 134h39z"/><glyph glyph-name="bracketleft" unicode="[" horiz-adv-x="375" d="M224 578V-66c0-60 19-78 78-78h57v-39H151c-6 21-11 43-11 64v750c0 21 5 43 11 64h208v-39h-57c-59 0-78-18-78-78z"/><glyph glyph-name="backslash" unicode="\" horiz-adv-x="278" d="M0 699h44L278-12h-45z"/><glyph glyph-name="bracketright" unicode="]" horiz-adv-x="375" d="M151 578c0 60-19 78-78 78H16v39h208c6-21 11-43 11-64v-750c0-21-5-43-11-64H16v39h57c59 0 78 18 78 78v644z"/><glyph glyph-name="asciicircum" unicode="^" horiz-adv-x="469" d="M254 682l205-350h-62L235 610 72 332H10l207 350h37z"/><glyph glyph-name="underscore" unicode="_" horiz-adv-x="500" d="M506-125H-6v50h512v-50z"/><glyph glyph-name="quoteleft" unicode="‘" horiz-adv-x="292" d="M213 695l15-34c-72-22-107-58-107-101 0-23 9-34 35-34 45 0 67-18 67-53s-25-57-63-57c-51 0-96 44-96 114 0 72 47 138 149 165z"/><glyph glyph-name="a" unicode="a" horiz-adv-x="479" d="M305 271v68c0 59-59 79-92 79-39 0-77-24-77-47 0-22 41-56 15-68l-59-28c-6-3-33 47-33 69 0 47 53 117 184 117 95 0 146-31 146-107V98c0-37 22-48 56-26l9-36c-29-33-54-47-81-47-38 0-63 26-68 72-58-52-99-72-148-72C92-11 45 34 45 96s42 100 153 138zm0-38l-53-20c-81-30-118-50-118-92 0-31 20-65 70-65 36 0 67 16 101 52v125z"/><glyph glyph-name="b" unicode="b" horiz-adv-x="561" d="M78 39v544L7 622v23l130 50h25V381c58 58 106 80 169 80 131 0 188-131 188-228C519 90 415-11 267-11 210-11 154 3 78 39zm84 296V166c0-99 66-134 132-134 111 0 141 106 141 162 0 100-59 195-152 195-46 0-90-20-121-54z"/><glyph glyph-name="c" unicode="c" horiz-adv-x="469" d="M417 132l23-15C419 38 349-11 257-11 108-11 44 115 44 221c0 107 66 240 236 240 82 0 158-24 158-90 0-30-15-48-38-48-65 0-22 95-137 95-83 0-138-65-138-162 0-88 58-188 163-188 63 0 101 20 129 64z"/><glyph glyph-name="d" unicode="d" horiz-adv-x="573" d="M395 442v151l-73 40v23l132 39h25V103c0-44 22-61 72-46V17L420-11h-25v75c-52-49-111-75-167-75C123-11 40 84 40 203c0 141 111 258 244 258 31 0 65-6 111-19zm0-329v142c0 122-77 163-132 163-76 0-139-73-139-163 0-70 38-199 153-199 47 0 89 20 118 57z"/><glyph glyph-name="e" unicode="e" horiz-adv-x="469" d="M437 277H118c-5-134 80-208 173-208 47 0 87 15 125 48l21-19C394 28 327-11 251-11 130-11 43 86 43 220c0 137 91 241 209 241 129 0 185-113 185-184zm-313 36h208c-8 71-44 111-99 111-58 0-100-43-109-111z"/><glyph glyph-name="f" unicode="f" horiz-adv-x="311" d="M189 403V124c0-65 15-88 104-88V0H23v36c63 0 82 29 82 79v288H23v47h23c46 0 55 6 56 44 3 113 67 205 194 205 65 0 112-31 112-74 0-25-18-42-44-42-47 0-57 73-106 73-30 0-69-24-69-92V450h119v-47H189z"/><glyph glyph-name="g" unicode="g" horiz-adv-x="500" d="M496 434v-68c-24-4-64-2-96 6 11-26 15-46 15-70 0-113-109-161-185-161-16 0-33 2-63 8-20-17-30-26-30-38 0-24 23-32 106-32h80c92 0 159-39 159-105 0-96-111-165-263-165-141 0-194 57-194 92 0 28 23 57 85 104-38 17-57 35-57 57 0 24 26 55 83 102-55 32-82 76-82 134 0 92 74 163 175 163 36 0 65-6 98-14s71-16 126-16c18 0 26 1 43 3zM142 308c0-70 35-129 99-129 57 0 86 44 86 111 0 90-59 128-100 128-45 0-85-43-85-110zM293-11h-50c-32 0-63 3-99 8-34-34-47-49-47-71 0-58 113-66 140-66 64 0 180 19 180 76 0 38-36 53-124 53z"/><glyph glyph-name="h" unicode="h" horiz-adv-x="561" d="M472 316V113c0-54 31-77 73-77V0H313v36c53 0 75 32 75 72v188c0 61-39 98-97 98-42 0-85-17-122-46V123c0-61 21-87 80-87V0H10v36c59 0 75 38 75 80v468l-75 42v23l134 46h25V386c63 56 106 75 166 75 72 0 137-39 137-145z"/><glyph glyph-name="i" unicode="i" horiz-adv-x="271" d="M102 109v242l-76 38v23l135 49h25V116c0-55 26-79 62-80V0H30v36c38 0 72 23 72 73zM86 641c0 30 24 54 54 54s54-24 54-54-24-54-54-54-54 24-54 54z"/><glyph glyph-name="j" unicode="j" horiz-adv-x="260" d="M102 45v303l-80 41v23l139 49h25V63c0-111-14-118-138-254l-34 22c68 98 88 156 88 214zM86 641c0 30 24 54 54 54s54-24 54-54-24-54-54-54-54 24-54 54z"/><glyph glyph-name="k" unicode="k" horiz-adv-x="510" d="M180 695V111c0-45 22-75 73-75V0H32v36c27 0 64 22 64 73v480l-64 35v23l123 48h25zm85-433L513 42V0h-77c-23 15-38 26-54 42L183 236l95 88c57 52 37 90-34 90v36h248v-36c-38 0-84-30-135-74z"/><glyph glyph-name="l" unicode="l" horiz-adv-x="271" d="M181 695V119c0-50 17-80 62-83V0H28v36c50 3 69 33 69 76v476l-69 38v23l128 46h25z"/><glyph glyph-name="m" unicode="m" horiz-adv-x="865" d="M180 344V125c0-60 13-83 70-89V0H22v36c46 2 74 25 74 76v237l-72 42v23l131 47h25v-76c60 56 104 76 167 76 65 0 102-22 126-76 61 57 102 76 162 76 80 0 139-41 139-125V116c0-48 17-74 69-80V0H614v36c55 3 76 27 76 83v188c0 60-43 88-99 88-38 0-81-20-114-46V121c0-53 13-79 70-85V0H312v36c57 0 81 25 81 83v172c0 74-25 103-90 103-50 0-83-13-123-50z"/><glyph glyph-name="n" unicode="n" horiz-adv-x="573" d="M175 335V118c0-55 22-82 81-82V0H17v36c50 2 74 26 74 76v241l-67 38v23l126 47h25v-85h2c41 54 105 85 160 85 93 0 147-47 147-155V116c0-50 14-74 71-80V0H319v36c58 0 81 28 81 82v166c0 63-29 110-94 110-46 0-88-23-131-59z"/><glyph glyph-name="o" unicode="o" horiz-adv-x="542" d="M43 228c0 130 99 233 223 233 137 0 233-96 233-232S402-11 274-11C148-11 43 98 43 228zm95 38c0-89 42-240 145-240 78 0 126 55 126 142 0 86-34 256-147 256-75 0-124-42-124-158z"/><glyph glyph-name="p" unicode="p" horiz-adv-x="561" d="M169 18v-90c0-66 28-83 85-83v-36H11v36c49 0 74 31 74 73v433l-71 38v23l130 49h25v-75c52 52 102 75 163 75 108 0 184-88 184-212 0-144-103-260-230-260-39 0-79 10-117 29zm0 327V167c0-86 54-135 125-135 85 0 138 61 138 171 0 139-85 188-145 188-38 0-80-16-118-46z"/><glyph glyph-name="q" unicode="q" horiz-adv-x="561" d="M400-75V66C332 7 292-12 238-12 100-12 44 105 44 207c0 150 96 254 241 254 57 0 110-13 161-42v31c0 6 4 11 11 11h16c7 0 11-4 11-11V-71c0-53 13-77 68-85v-35H317v35c57 0 83 22 83 81zm0 186v148c0 103-50 165-134 165-85 0-143-67-143-166 0-112 68-196 158-196 38 0 67 12 119 49z"/><glyph glyph-name="r" unicode="r" horiz-adv-x="375" d="M180 308V132c0-75 14-96 102-96V0H22v36c40 0 74 20 74 77v234l-74 37v23l133 54h25v-99h2c45 74 70 95 122 95 44 0 74-37 74-57 0-5-10-65-41-65-34 0-42 47-75 47-24 0-42-17-82-74z"/><glyph glyph-name="s" unicode="s" horiz-adv-x="396" d="M322 418V310h-31c-15 79-47 114-102 114-47 0-75-24-75-67 0-75 152-93 209-150 21-21 32-53 32-86 0-82-59-132-153-132C152-11 93 2 55 21v126h33C98 69 135 26 195 26c53 0 91 30 91 71 0 77-132 75-214 157-20 20-31 54-31 83 0 73 60 124 146 124 53 0 98-14 135-43z"/><glyph glyph-name="t" unicode="t" d="M179 400V110c0-46 11-60 70-60 20 0 53 2 71 5V6c-44-7-89-17-131-17-66 0-94 27-94 88v323H20v27c57 20 94 64 125 103h34v-80h136v-50H179z"/><glyph glyph-name="u" unicode="u" horiz-adv-x="573" d="M553 56V17L401-11v77c-58-54-108-77-167-77-74 0-135 37-135 131v196c0 79-18 87-80 87v36l164 11V171c0-76 31-111 91-111 44 0 79 14 127 52v204c0 79-17 87-86 87v36l170 11V104c0-45 13-60 68-48z"/><glyph glyph-name="v" unicode="v" horiz-adv-x="479" d="M405 342L247-11h-32L61 363c-15 37-24 46-59 51v36h210v-36c-61-2-74-25-57-66l103-243 96 219c22 50 4 89-53 90v36h177v-36c-38-7-48-17-73-72z"/><glyph glyph-name="w" unicode="w" horiz-adv-x="729" d="M152 336l97-232 99 221c-29 76-36 89-86 89v36h217v-36c-63-5-70-31-44-96l83-207 89 214c16 39 17 89-50 89v36h164v-36c-31-6-43-15-58-51L508-11h-32L366 274 240-11h-34L61 349c-19 48-28 59-53 65v36h184v-36c-51-2-60-30-40-78z"/><glyph glyph-name="x" unicode="x" horiz-adv-x="500" d="M95 95l112 120L65 382c-20 24-30 30-55 32v36h207v-36c-52-5-50-28-29-53l72-86 63 69c30 33 22 70-31 70v36h184v-36c-44-9-53-16-115-86l-73-82L431 82c27-31 38-42 60-46V0H268v36c64 10 67 31 35 68l-73 83-62-68c-36-40-29-83 34-83V0H10v36c29 7 51 22 85 59z"/><glyph glyph-name="y" unicode="y" horiz-adv-x="479" d="M233-5L74 355c-26 59-40 59-72 59v36h218v-36c-59-2-72-24-49-76l103-236 86 219c20 52 6 90-55 93v36h173v-36c-38-8-50-25-70-76L242-84c-29-73-71-107-131-107-47 0-80 23-80 57 0 23 19 41 43 41 35 0 35-32 71-32 38 0 62 34 88 120z"/><glyph glyph-name="z" unicode="z" horiz-adv-x="436" d="M409 414L127 36h113c84 0 116 42 143 106h36L398 0H14v16l293 398H202c-60 0-96-19-134-70H40v123h22c8-7 13-12 23-14s24-3 47-3h277v-36z"/><glyph glyph-name="braceleft" unicode="{" horiz-adv-x="480" d="M153 243v22c66 9 112 52 112 104 0 22-6 45-12 70s-11 51-11 80c0 95 76 174 183 188v-13c-78-19-111-64-111-116 0-21 5-47 11-74s12-55 12-80c0-71-56-137-144-170 88-33 144-99 144-170 0-25-6-53-12-80s-11-53-11-74c0-52 33-97 111-116v-13c-107 14-183 93-183 188 0 29 5 56 11 81s12 48 12 69c0 52-46 95-112 104z"/><glyph glyph-name="bar" unicode="|" horiz-adv-x="527" d="M241 750h44V-250h-44V750z"/><glyph glyph-name="braceright" unicode="}" horiz-adv-x="480" d="M327 265v-22c-66-9-112-52-112-104 0-21 5-44 11-69s12-52 12-81c0-95-76-174-183-188v13c78 19 111 64 111 116 0 21-6 47-12 74s-11 55-11 80c0 71 56 137 144 170-88 33-144 99-144 170 0 25 5 53 11 80s12 53 12 74c0 52-33 97-111 116v13c107-14 183-93 183-188 0-29-6-55-12-80s-11-48-11-70c0-52 46-95 112-104z"/><glyph glyph-name="asciitilde" unicode="~" horiz-adv-x="469" d="M472 405h28c-3-97-54-158-131-158-39 0-61 7-184 58-52 22-79 30-102 30-48 0-77-29-86-87h-29c3 49 10 77 27 103 23 35 61 55 100 55 27 0 48-5 90-20 24-9 66-25 97-39 55-25 80-31 104-31 49 0 80 33 86 89z"/><glyph glyph-name="exclamdown" unicode="¡" horiz-adv-x="292" d="M147 396c-34 0-62 27-62 61s28 62 62 62 61-28 61-62-27-61-61-61zm-8-77h14c10 0 14-4 15-19l34-447c2-31-5-44-39-44h-34c-34 0-41 13-39 44l34 447c1 15 5 19 15 19z"/><glyph glyph-name="cent" unicode="¢" horiz-adv-x="552" d="M155-115l44 126C126 52 84 131 84 220c0 95 64 262 270 239l50 141h39l-51-147c56-14 86-43 86-84 0-27-15-44-36-44-44 0-40 40-69 74L263 84c25-12 45-16 72-16 53 0 100 25 123 65l23-15C462 41 387-12 299-12c-24 0-45 3-66 10l-39-113h-39zm77 219l108 312c-12 3-22 4-36 4-77 0-136-57-136-152 0-81 20-125 64-164z"/><glyph glyph-name="sterling" unicode="£" horiz-adv-x="677" d="M387 114H258c-21-64-32-90-61-143 33 11 48 13 73 13 108 0 154-109 225-109 27 0 48 16 48 36 0 34-35 47-35 78 0 27 21 51 47 51 29 0 52-28 52-64 0-122-106-167-157-167-112 0-151 144-276 114-39-80-73-114-100-114-22 0-41 18-41 41 0 35 30 69 88 101l47 163H46l8 43h126l51 183c60 214 144 355 303 355 72 0 122-28 122-66 0-28-17-51-37-51-41 0-64 68-132 68-123 0-136-241-216-489h127z"/><glyph glyph-name="fraction" unicode="⁄" horiz-adv-x="240" d="M-79-22h-53l461 728h53z"/><glyph glyph-name="yen" unicode="¥" horiz-adv-x="663" d="M285 286L161 468H14v40h118l-42 62c-28 42-37 50-57 60-15 9-30 11-53 14v38h300v-38c-61-4-78-14-78-44 0-12 6-26 15-40l36-52h231l1 2c20 29 27 48 27 69 0 22-10 42-26 52-12 7-22 10-49 13v38h246v-38c-41-5-64-23-115-97l-27-39h108v-40H513L385 286h263v-40H385v-93c0-38 3-60 11-74 12-24 47-41 89-41V0H178v38c47 0 83 15 95 39 8 14 12 38 12 76v93H14v40h271zm171 182H281l88-129z"/><glyph glyph-name="florin" unicode="ƒ" horiz-adv-x="579" d="M301 426c45 176 112 269 206 269 35 0 65-25 65-54 0-23-18-41-40-41-43 0-29 52-65 52-31 0-46-47-61-113l-26-113h87l-12-38h-87L291 76C253-77 184-191 81-191c-44 0-75 20-75 54 0 23 17 39 39 39 40 0 40-50 72-50 42 0 61 82 74 135l98 401H184l12 38h105z"/><glyph glyph-name="section" unicode="§" horiz-adv-x="427" d="M41 451c0 147 89 248 216 248 71 0 117-26 117-72 0-22-16-40-46-40-34 0-83 69-130 69-29 0-50-24-50-54 0-107 238-298 238-560 0-151-76-233-215-233-69 0-118 29-118 69 0 24 21 42 49 42 52 0 64-68 127-68 29 0 51 24 51 55C280 18 41 184 41 451zM341 14c0 243-203 400-231 564h-2c-11-24-21-71-21-109C87 223 324 61 320-84l2-2c14 42 19 63 19 100z"/><glyph glyph-name="currency" unicode="¤" horiz-adv-x="667" d="M465 507l62 63 51-52-62-63c30-44 42-82 42-130s-12-85-42-129l62-62-51-52-62 62c-45-30-81-42-129-42-49 0-87 13-131 42l-63-62-52 52 63 62c-30 44-42 81-42 130 0 48 12 85 42 130l-63 62 52 52 63-63c46 30 82 42 129 42 49 0 85-12 131-42zM184 326c0-83 68-151 151-151 82 0 150 68 150 151 0 82-68 150-150 150-83 0-151-68-151-150z"/><glyph glyph-name="quotesingle" unicode="'" horiz-adv-x="180" d="M79 396L53 541l-9 49-4 38c0 32 20 54 50 54 29 0 49-22 49-54l-4-38-8-49-27-145H79z"/><glyph glyph-name="quotedblleft" unicode="“" horiz-adv-x="510" d="M434 695l15-34c-72-22-107-58-107-101 0-23 9-34 35-34 45 0 67-18 67-53s-25-57-63-57c-51 0-96 44-96 114 0 72 47 138 149 165zm-224 0l15-34c-72-22-107-58-107-101 0-23 9-34 35-34 45 0 67-18 67-53s-25-57-63-57c-51 0-96 44-96 114 0 72 47 138 149 165z"/><glyph glyph-name="guillemotleft" unicode="«" horiz-adv-x="344" d="M255 252l53-178h-24L183 252l101 178h24zm-142 0l90-220h-24L31 252l148 220h24z"/><glyph glyph-name="guilsinglleft" unicode="‹" horiz-adv-x="250" d="M122 252l90-220h-24L40 252l148 220h24z"/><glyph glyph-name="guilsinglright" unicode="›" horiz-adv-x="250" d="M128 252L38 472h24l148-220L62 32H38z"/><glyph glyph-name="endash" unicode="–" horiz-adv-x="500" d="M-6 270h512v-43H-6v43z"/><glyph glyph-name="dagger" unicode="†" horiz-adv-x="521" d="M283 419l167 31c31 6 44-2 44-36v-30c0-34-13-42-44-36l-167 31 34-526c2-31-5-44-39-44h-36c-34 0-41 13-39 44l34 526-167-31c-31-6-44 2-44 36v30c0 34 13 42 44 36l167-31-28 236c-4 31-1 44 33 44h36c34 0 37-13 33-44z"/><glyph glyph-name="daggerdbl" unicode="‡" horiz-adv-x="500" d="M286 254L269 85l152 37c31 7 44-2 44-36V50c0-34-13-42-44-36L269 45l34-192c5-31 1-44-33-44h-40c-34 0-38 13-33 44l34 192L79 14c-31-6-44 2-44 36v36c0 34 13 43 44 36l152-37-18 169 18 169-152-37c-31-7-44 2-44 36v36c0 34 13 42 44 36l152-31-34 192c-5 31-1 44 33 44h40c34 0 38-13 33-44l-34-192 152 31c31 6 44-2 44-36v-36c0-34-13-43-44-36l-152 37z"/><glyph glyph-name="periodcentered" unicode="·" horiz-adv-x="292" d="M145 389c34 0 62-27 62-61s-28-62-62-62-61 28-61 62 27 61 61 61z"/><glyph glyph-name="paragraph" unicode="¶" horiz-adv-x="453" d="M392 655v-846h-36v846h-91v-846h-36v505C97 314-4 359-4 500c0 116 81 182 219 182h241v-27h-64z"/><glyph glyph-name="bullet" unicode="•" horiz-adv-x="350" d="M175 453c68 0 123-54 123-122s-55-123-123-123S53 263 53 331s54 122 122 122z"/><glyph glyph-name="quotesinglbase" unicode="‚" d="M98-115L84-83c70 25 107 57 107 101 0 25-10 35-37 35-43 0-65 19-65 53 0 31 21 57 64 57 49 0 95-45 95-112 0-71-43-140-150-166z"/><glyph glyph-name="quotedblbase" unicode="„" horiz-adv-x="510" d="M299-115l-14 32c70 25 107 57 107 101 0 25-10 35-37 35-43 0-65 19-65 53 0 31 21 57 64 57 49 0 95-45 95-112 0-71-43-140-150-166zm-224 0L61-83c70 25 107 57 107 101 0 25-10 35-37 35-43 0-65 19-65 53 0 31 21 57 64 57 49 0 95-45 95-112 0-71-43-140-150-166z"/><glyph glyph-name="quotedblright" unicode="”" horiz-adv-x="510" d="M300 416l-15 34c72 22 107 58 107 101 0 23-9 34-35 34-45 0-67 18-67 53s25 57 63 57c51 0 96-44 96-114 0-72-47-138-149-165zm-224 0l-15 34c72 22 107 58 107 101 0 23-9 34-35 34-45 0-67 18-67 53s25 57 63 57c51 0 96-44 96-114 0-72-47-138-149-165z"/><glyph glyph-name="guillemotright" unicode="»" horiz-adv-x="344" d="M89 252L36 430h24l101-178L60 74H36zm142 0l-90 220h24l148-220L165 32h-24z"/><glyph glyph-name="ellipsis" unicode="…" horiz-adv-x="1000" d="M833 112c34 0 62-27 62-61s-28-62-62-62-61 28-61 62 27 61 61 61zm-333 0c34 0 62-27 62-61s-28-62-62-62-61 28-61 62 27 61 61 61zm-333 0c34 0 62-27 62-61s-28-62-62-62-61 28-61 62 27 61 61 61z"/><glyph glyph-name="perthousand" unicode="‰" horiz-adv-x="1083" d="M759 162c0 105 62 181 147 181 84 0 146-75 146-178 0-101-62-177-146-177-85 0-147 73-147 174zm73 2c0-102 24-150 74-150 49 0 73 48 73 145 0 110-23 158-75 158-49 0-72-48-72-153zm-428-2c0 105 62 181 147 181 84 0 146-75 146-178 0-101-62-177-146-177-85 0-147 73-147 174zm73 2c0-102 24-150 74-150 49 0 73 48 73 145 0 110-23 158-75 158-49 0-72-48-72-153zM31 513c0 105 62 181 147 181 84 0 146-75 146-178 0-101-62-177-146-177-85 0-147 73-147 174zm73 2c0-102 24-150 74-150 49 0 73 48 73 145 0 110-23 158-75 158-49 0-72-48-72-153zm54-537h-52l463 728h51z"/><glyph glyph-name="questiondown" unicode="¿" horiz-adv-x="385" d="M239 333h36c0-95 15-128 15-149 0-8-1-13-6-18-17-17-110-16-160-66-18-18-30-42-30-65 0-67 72-146 133-146 36 0 51 22 81 22 25 0 42-17 42-41 0-37-35-61-88-61C122-191 31 18 31 79c0 37 11 70 38 97 53 53 117 51 151 85 14 14 18 40 19 72zm15 63c-34 0-62 27-62 61s28 62 62 62 61-28 61-62-27-61-61-61z"/><glyph glyph-name="grave" unicode="`" d="M58 694h109l51-169h-16z"/><glyph glyph-name="acute" unicode="´" d="M276 694L132 525h-16l51 169h109z"/><glyph glyph-name="circumflex" unicode="ˆ" d="M121 682h90l93-161h-15L156 626 44 521H29z"/><glyph glyph-name="tilde" unicode="˜" d="M26 539H11c2 82 35 127 92 127 63 0 119-69 158-69 26 0 42 24 47 69h15v-9c0-70-39-120-94-120-32 0-61 18-87 35s-50 34-71 34c-27 0-41-29-45-67z"/><glyph glyph-name="macron" unicode="¯" d="M11 632h311v-63H11v63z"/><glyph glyph-name="breve" unicode="˘" d="M27 687h15c25-44 61-62 125-62 66 0 108 21 123 62h16c-6-80-64-136-139-136-76 0-133 55-140 136z"/><glyph glyph-name="dotaccent" unicode="˙" d="M167 653c29 0 53-24 53-53s-24-53-53-53-53 24-53 53 24 53 53 53z"/><glyph glyph-name="dieresis" unicode="¨" d="M253 653c29 0 53-24 53-53s-24-53-53-53-53 24-53 53 24 53 53 53zm-172 0c29 0 53-24 53-53s-24-53-53-53-53 24-53 53 24 53 53 53z"/><glyph glyph-name="ring" unicode="˚" d="M166 694c52 0 94-41 94-93s-42-94-94-94-93 42-93 94 41 93 93 93zm0-34c-33 0-59-26-59-59s26-60 59-60 60 27 60 60-27 59-60 59z"/><glyph glyph-name="cedilla" unicode="¸" d="M175-12c60-5 83-36 83-68 0-53-54-94-124-94-17 0-30 2-58 8l4 16c18-4 27-5 36-5 35 0 64 24 64 54s-24 49-70 54z"/><glyph glyph-name="hungarumlaut" unicode="˝" d="M161 694L55 525H38l32 169h91zm153 0L208 525h-17l32 169h91z"/><glyph glyph-name="ogonek" unicode="˛" d="M112 8h25c-10-20-13-32-13-49 0-62 54-95 104-95 20 0 38 4 59 11l10-15c-56-31-75-37-113-37-67 0-112 37-112 91 0 35 15 70 40 94z"/><glyph glyph-name="caron" unicode="ˇ" d="M212 530h-90L29 691h15l133-105 112 105h15z"/><glyph glyph-name="emdash" unicode="—" horiz-adv-x="1000" d="M-6 270h1012v-43H-6v43z"/><glyph glyph-name="AE" unicode="Æ" horiz-adv-x="1000" d="M528 332l60-185c28-86 38-104 116-104h46c82 0 98 15 182 132h38L932 0H400v38c82 0 101 38 74 120l-57 174H210l-59-129c-37-81-35-162 70-165V0H-18v38c39 5 63 31 84 78l197 430c31 68 7 97-53 98v38h593l48-152h-35c-85 91-105 109-193 109H425l90-264h156c71 0 92 24 79 98h38l81-237h-41c-40 72-89 96-134 96H528zm-122 43l-73 220-103-220h176z"/><glyph glyph-name="ordfeminine" unicode="ª" horiz-adv-x="313" d="M199 551v43c0 32-39 45-60 45-26 0-50-14-50-29 0-16 27-34 10-41l-37-15c-6-3-23 24-23 40 0 39 53 70 120 70 59 0 94-19 94-65V450c0-26 8-33 36-19l6-21c-19-20-35-29-53-29-24 0-40 16-43 43-40-32-64-43-96-43-42 0-73 27-73 64 0 65 85 78 169 106zm0-99v75c-78-30-112-36-112-68 0-22 19-38 46-38 24 0 44 10 66 31z"/><glyph glyph-name="Lslash" unicode="Ł" horiz-adv-x="677" d="M240 361V175c0-92 34-132 132-132h89c88 0 145 34 196 124h42L657 0H22v38c94 6 113 28 113 115v142L30 213v58l105 82v191c0 67-23 100-113 100v38h331v-38c-92 0-113-39-113-96V419l132 103v-58z"/><glyph glyph-name="Oslash" unicode="Ø" horiz-adv-x="813" d="M614 631l65 78 33-29-64-76c72-69 112-164 112-266 0-199-160-350-370-350-76 0-145 21-199 66l-69-83L91 0l68 80C85 150 53 226 53 332c0 209 150 362 355 362 78 0 145-20 206-63zM224 159l337 407c-41 53-104 85-172 85-121 0-215-103-215-266 0-80 19-167 50-226zm361 368L248 121c44-58 105-90 173-90 131 0 218 108 218 270 0 80-20 164-54 226z"/><glyph glyph-name="OE" unicode="Œ" horiz-adv-x="1031" d="M680 379h75c76 0 99 22 104 98h46V231h-46c-12 82-36 105-110 105h-67c0-123-46-212-158-291v-2h262c82 0 121 44 178 131h42L972 0H379C150 0 45 175 45 345c0 204 137 337 346 337h564V526h-35c-35 78-53 113-180 113H519v-2c94-48 149-135 161-258zm-514 2c0-116 52-335 211-335 108 0 184 112 184 270 0 184-86 322-205 322-106 0-190-85-190-257z"/><glyph glyph-name="ordmasculine" unicode="º" horiz-adv-x="354" d="M29 528c0 74 66 136 145 136 89 0 151-58 151-139 0-82-63-144-146-144S29 447 29 528zm62 18c0-82 41-140 95-140 47 0 82 35 82 83 0 39-16 150-97 150-53 0-80-32-80-93z"/><glyph glyph-name="ae" unicode="æ" horiz-adv-x="686" d="M656 301l-272-59c-4-123 39-168 129-168 58 0 102 19 134 56l21-20C622 26 563-11 477-11c-66 0-118 28-158 84-58-56-116-84-174-84C78-11 34 30 34 93c0 113 136 138 265 167v57c0 61-31 101-77 101-15 0-91-10-91-51 0-32 43-50 13-66l-45-24c-27-15-48 46-48 73 0 78 125 111 202 111 59 0 95-18 117-60 28 40 71 60 126 60 91 0 154-63 160-160zM299 108v117c-116-28-179-49-179-109 0-34 30-60 69-60 37 0 75 18 110 52zm85 170l178 39c-16 70-43 101-91 101-65 0-91-46-87-140z"/><glyph glyph-name="dotlessi" unicode="ı" horiz-adv-x="271" d="M102 109v242l-76 38v23l135 49h25V116c0-55 26-79 62-80V0H30v36c38 0 72 23 72 73z"/><glyph glyph-name="lslash" unicode="ł" horiz-adv-x="271" d="M181 342V119c0-50 17-80 62-83V0H28v36c50 3 69 33 69 76v167L7 194v50l90 84v260l-69 38v23l128 46h25V390l83 79v-50z"/><glyph glyph-name="oslash" unicode="ø" horiz-adv-x="542" d="M64 14l42 51c-42 49-63 105-63 166 0 128 99 230 223 230 53 0 100-14 144-44l39 45 29-24-39-47c39-41 60-99 60-163 0-136-97-239-226-239-51 0-96 17-138 49L94-10zm100 116l197 231c-25 43-58 63-105 63-63 0-118-42-118-150 0-60 10-102 26-144zm216 193L182 93c30-47 62-67 99-67 83 0 128 60 128 141 0 50-10 110-29 156z"/><glyph glyph-name="oe" unicode="œ" horiz-adv-x="760" d="M731 279H449c3-77 14-131 48-165 27-27 66-45 109-45 46 0 85 20 114 58l21-13C711 38 643-11 570-11c-61 0-116 27-156 74-44-48-101-74-160-74C139-11 48 85 48 223c0 101 66 238 213 238 62 0 109-21 153-70 40 51 79 70 143 70 103 0 161-61 174-182zm-589-22c0-119 22-231 125-231 85 0 103 83 103 161 0 131-38 237-124 237-63 0-104-48-104-167zm307 58h183c-6 73-43 109-95 109s-82-38-88-109z"/><glyph glyph-name="germandbls" unicode="ß" horiz-adv-x="573" d="M98 396H22v34c0 26 45 2 66 23 36 36 5 118 75 188 38 38 81 58 147 58 111 0 189-60 189-146 0-67-40-108-141-142v-2c131-16 174-127 174-207 0-77-52-209-165-209-60 0-91 30-91 66 0 25 18 43 41 43 57 0 12-76 69-76 37 0 65 55 65 125 0 84-50 214-173 229v42c91 14 129 64 129 126 0 61-50 108-114 108-67 0-111-47-111-144V132c0-60 8-86 56-96V0H22v38c53 5 76 41 76 96v262z"/><glyph glyph-name="logicalnot" unicode="¬" horiz-adv-x="667" d="M66 480h535V172h-77v231H66v77z"/><glyph glyph-name="mu" unicode="µ" horiz-adv-x="500" d="M55 450h84V164c0-82 22-115 69-115 38 0 77 20 112 65v336h84V95c0-36 16-53 32-53 20 0 33 20 39 60h21c-2-79-49-113-97-113-47 0-69 22-79 93-55-66-98-93-151-93-34 0-56 12-75 43h-2c0-111 24-138 24-191 0-31-20-54-46-54s-43 21-43 54c0 55 28 74 28 215v394z"/><glyph glyph-name="trademark" unicode="™" horiz-adv-x="980" d="M25 664h356l10-98h-16c-9 51-33 69-94 69h-35V351c0-53 7-62 49-64v-17H112v17c45 5 50 11 50 64v284h-38c-60 0-83-17-93-69H15zm540 0l133-280 128 280h138v-18c-47-1-54-9-54-67V351c0-55 5-61 54-64v-17H769v17c49 1 57 10 57 64v240h-2L678 270h-16L513 587h-2V351c0-53 8-64 47-64h17v-17H425v17c48 0 55 9 55 64v228c0 60-6 67-55 67v18h140z"/><glyph glyph-name="Eth" unicode="Ð" horiz-adv-x="844" d="M29 682h388c127 0 211-33 279-101 76-76 101-151 101-235C797 190 684 0 409 0H29v38c83 0 112 26 112 101v191H29v47h112v159c0 65-18 108-112 108v38zm217-43V377h213v-47H246V149c0-64 40-106 105-106h57c179 0 264 132 264 278 0 156-93 318-329 318h-97z"/><glyph glyph-name="onehalf" unicode="½" horiz-adv-x="906" d="M808 91L777 0H526v22c118 109 195 159 195 215 0 36-28 65-64 65-35 0-75-28-97-79l-32 11c32 73 82 111 145 111 65 0 116-42 116-98 0-80-85-99-193-199h115c33 0 51 10 65 43h32zM214-22h-53l461 728h53zm-17 686V389c0-31 12-45 39-45h15v-25H72v25h17c29 0 40 13 40 45v181c0 30-7 43-39 43H74v25c53 0 81 11 96 26h27z"/><glyph glyph-name="plusminus" unicode="±" horiz-adv-x="667" d="M66 470h229v227h77V470h229v-77H372V166h-77v227H66v77zm0-393h535V0H66v77z"/><glyph glyph-name="Thorn" unicode="Þ" horiz-adv-x="635" d="M135 135v420c0 69-41 89-102 89v38h310v-38c-63 0-103-25-103-92v-21h133c181 0 236-96 236-182 0-71-41-195-262-195H240v-27c0-53 30-90 115-90V0H33v38c69 0 102 29 102 97zm105 353V197h89c122 0 159 77 159 140 0 62-33 151-164 151h-84z"/><glyph glyph-name="onequarter" unicode="¼" horiz-adv-x="906" d="M757 95V60c0-24 8-35 51-35V0H636v25c39 0 53 6 53 34v36H528v34l172 216h57V127c14 0 22 10 30 32h31l-10-64h-51zm-68 32v155h-2L567 127h122zM234-22h-53l461 728h53zm-37 686V389c0-31 12-45 39-45h15v-25H72v25h17c29 0 40 13 40 45v181c0 30-7 43-39 43H74v25c53 0 81 11 96 26h27z"/><glyph glyph-name="divide" unicode="÷" horiz-adv-x="668" d="M66 364h535v-77H66v77zM333 74c-26 0-47 21-47 47s21 48 47 48 48-22 48-48-22-47-48-47zm0 408c-26 0-47 21-47 47s21 48 47 48 48-22 48-48-22-47-48-47z"/><glyph glyph-name="brokenbar" unicode="¦" horiz-adv-x="527" d="M241 675h44V325h-44v350zm0-500h44v-350h-44v350z"/><glyph glyph-name="degree" unicode="°" horiz-adv-x="399" d="M349 532c0-83-67-150-150-150S49 449 49 532s67 150 150 150 150-67 150-150zm-48 0c0 56-46 102-102 102S97 588 97 532s46-102 102-102 102 46 102 102z"/><glyph glyph-name="thorn" unicode="þ" horiz-adv-x="561" d="M169 18v-90c0-66 28-83 85-83v-36H11v36c49 0 74 31 74 73v667l-71 39v23l130 48h25V386c52 52 102 75 163 75 108 0 184-88 184-212 0-144-103-260-230-260-39 0-79 10-117 29zm0 327V167c0-86 54-135 125-135 85 0 138 61 138 171 0 139-85 188-145 188-38 0-80-16-118-46z"/><glyph glyph-name="threequarters" unicode="¾" horiz-adv-x="906" d="M777 95V60c0-24 8-35 51-35V0H656v25c39 0 53 6 53 34v36H548v34l172 216h57V127c14 0 22 10 30 32h31l-10-64h-51zm-68 32v155h-2L587 127h122zM254-22h-53l461 728h53zM126 472l-13 23c88 45 111 63 111 91 0 22-21 39-46 39-29 0-65-17-101-53l-25 16c37 48 91 76 142 76 57 0 96-27 96-64 0-27-19-47-61-71v-2c58-2 90-43 90-84 0-70-81-130-175-130-38 0-75 9-100 25l16 21c29-14 51-19 75-19 64 0 118 41 118 92 0 34-28 61-63 61-18 0-41-7-64-21z"/><glyph glyph-name="registered" unicode="®" horiz-adv-x="760" d="M305 324V179c0-28 17-37 57-36v-17H183v17c39-1 51 13 51 44v299c0 29-8 45-45 46v17h188c88 0 146-44 146-110 0-54-36-89-109-108l102-145c23-33 35-42 59-43v-17h-90L341 324h-36zm0 21h16c74 0 123 31 123 89 0 54-42 93-99 93-14 0-23-1-40-7V345zm421-9c0-191-155-346-346-346S34 145 34 336s155 346 346 346 346-155 346-346zm-30 0c0 175-141 316-316 316S64 511 64 336 205 20 380 20s316 141 316 316z"/><glyph glyph-name="minus" unicode="−" horiz-adv-x="667" d="M66 364h535v-77H66v77z"/><glyph glyph-name="eth" unicode="ð" horiz-adv-x="514" d="M123 266c0-89 42-240 145-240 78 0 126 55 126 142 0 86-34 256-147 256-75 0-124-42-124-158zm287 398l-97-59c125-107 172-260 172-371C485 97 385-11 259-11S28 98 28 228s99 233 223 233c22 0 60-7 87-30l2 2c-15 39-39 89-83 138l-111-68-18 27 106 64c-27 25-61 51-104 74l38 23c45-18 85-40 118-65l106 65z"/><glyph glyph-name="multiply" unicode="×" horiz-adv-x="668" d="M86 519l54 54 194-194 194 194 54-54-194-194 194-194-54-54-194 194L141 78l-54 54 193 193z"/><glyph glyph-name="copyright" unicode="©" horiz-adv-x="760" d="M551 559l10-137h-19c-23 76-73 115-148 115-97 0-157-73-157-190 0-132 59-200 164-200 69 0 115 30 150 78l19-9c-46-68-107-100-188-100-128 0-226 94-226 217 0 129 105 226 244 226 58 0 90-22 109-22 10 0 16 5 23 22h19zm175-223c0-191-155-346-346-346S34 145 34 336s155 346 346 346 346-155 346-346zm-30 0c0 175-141 316-316 316S64 511 64 336 205 20 380 20s316 141 316 316z"/><glyph glyph-name="Aacute" unicode="Á" horiz-adv-x="719" d="M510 144l-51 122H195l-36-94c-27-70-2-130 74-134V0H3v38c52 13 68 40 97 112l201 500-16 32h107l248-577c20-46 39-67 76-67V0H436v38c80 8 99 46 74 106zm-74 176L323 591 216 320h220zm33 588L325 739h-16l51 169h109z"/><glyph glyph-name="Acircumflex" unicode="Â" horiz-adv-x="719" d="M510 144l-51 122H195l-36-94c-27-70-2-130 74-134V0H3v38c52 13 68 40 97 112l201 500-16 32h107l248-577c20-46 39-67 76-67V0H436v38c80 8 99 46 74 106zm-74 176L323 591 216 320h220zM314 896h90l93-161h-15L349 840 237 735h-15z"/><glyph glyph-name="Adieresis" unicode="Ä" horiz-adv-x="719" d="M510 144l-51 122H195l-36-94c-27-70-2-130 74-134V0H3v38c52 13 68 40 97 112l201 500-16 32h107l248-577c20-46 39-67 76-67V0H436v38c80 8 99 46 74 106zm-74 176L323 591 216 320h220zm10 547c29 0 53-24 53-53s-24-53-53-53-53 24-53 53 24 53 53 53zm-172 0c29 0 53-24 53-53s-24-53-53-53-53 24-53 53 24 53 53 53z"/><glyph glyph-name="Agrave" unicode="À" horiz-adv-x="719" d="M510 144l-51 122H195l-36-94c-27-70-2-130 74-134V0H3v38c52 13 68 40 97 112l201 500-16 32h107l248-577c20-46 39-67 76-67V0H436v38c80 8 99 46 74 106zm-74 176L323 591 216 320h220zM251 908h109l51-169h-16z"/><glyph glyph-name="Aring" unicode="Å" horiz-adv-x="719" d="M510 144l-51 122H195l-36-94c-27-70-2-130 74-134V0H3v38c52 13 68 40 97 112l201 500-16 32h107l248-577c20-46 39-67 76-67V0H436v38c80 8 99 46 74 106zm-74 176L323 591 216 320h220zm-77 588c52 0 94-41 94-93s-42-94-94-94-93 42-93 94 41 93 93 93zm0-34c-33 0-59-26-59-59s26-60 59-60 60 27 60 60-27 59-60 59z"/><glyph glyph-name="Atilde" unicode="Ã" horiz-adv-x="719" d="M510 144l-51 122H195l-36-94c-27-70-2-130 74-134V0H3v38c52 13 68 40 97 112l201 500-16 32h107l248-577c20-46 39-67 76-67V0H436v38c80 8 99 46 74 106zm-74 176L323 591 216 320h220zM219 753h-15c2 82 35 127 92 127 63 0 119-69 158-69 26 0 42 24 47 69h15v-9c0-70-39-120-94-120-32 0-61 18-87 35s-50 34-71 34c-27 0-41-29-45-67z"/><glyph glyph-name="Ccedilla" unicode="Ç" horiz-adv-x="781" d="M716 488h-32c-46 100-138 163-237 163-136 0-264-101-264-303 0-170 100-317 278-317 112 0 198 55 223 168h37l-5-157c-76-31-192-54-272-54C220-12 62 130 62 331c0 175 130 363 396 363 74 0 151-16 234-47zM281-166l4 16c18-4 27-5 36-5 35 0 64 24 64 54s-24 49-70 54l65 35c60-5 83-36 83-68 0-53-54-94-124-94-17 0-30 2-58 8z"/><glyph glyph-name="Eacute" unicode="É" horiz-adv-x="677" d="M658 167L613 0H26v38c76 0 107 29 107 102v402c0 66-26 102-107 102v38h578V530h-36c-36 90-87 109-170 109H238V377h134c94 0 129 25 134 96h41V232h-41c-12 76-46 102-132 102H238V169c0-96 27-126 117-126h50c111 0 161 30 208 124h45zM448 908L304 739h-16l51 169h109z"/><glyph glyph-name="Ecircumflex" unicode="Ê" horiz-adv-x="677" d="M658 167L613 0H26v38c76 0 107 29 107 102v402c0 66-26 102-107 102v38h578V530h-36c-36 90-87 109-170 109H238V377h134c94 0 129 25 134 96h41V232h-41c-12 76-46 102-132 102H238V169c0-96 27-126 117-126h50c111 0 161 30 208 124h45zM293 896h90l93-161h-15L328 840 216 735h-15z"/><glyph glyph-name="Edieresis" unicode="Ë" horiz-adv-x="677" d="M658 167L613 0H26v38c76 0 107 29 107 102v402c0 66-26 102-107 102v38h578V530h-36c-36 90-87 109-170 109H238V377h134c94 0 129 25 134 96h41V232h-41c-12 76-46 102-132 102H238V169c0-96 27-126 117-126h50c111 0 161 30 208 124h45zM425 867c29 0 53-24 53-53s-24-53-53-53-53 24-53 53 24 53 53 53zm-172 0c29 0 53-24 53-53s-24-53-53-53-53 24-53 53 24 53 53 53z"/><glyph glyph-name="Egrave" unicode="È" horiz-adv-x="677" d="M658 167L613 0H26v38c76 0 107 29 107 102v402c0 66-26 102-107 102v38h578V530h-36c-36 90-87 109-170 109H238V377h134c94 0 129 25 134 96h41V232h-41c-12 76-46 102-132 102H238V169c0-96 27-126 117-126h50c111 0 161 30 208 124h45zM230 908h109l51-169h-16z"/><glyph glyph-name="Iacute" unicode="Í" horiz-adv-x="375" d="M241 541V139c0-65 24-101 107-101V0H27v38c93 0 109 35 109 115v384c0 75-24 107-109 107v38h321v-38c-73 0-107-26-107-103zm56 367L153 739h-16l51 169h109z"/><glyph glyph-name="Icircumflex" unicode="Î" horiz-adv-x="375" d="M241 541V139c0-65 24-101 107-101V0H27v38c93 0 109 35 109 115v384c0 75-24 107-109 107v38h321v-38c-73 0-107-26-107-103zm-99 355h90l93-161h-15L177 840 65 735H50z"/><glyph glyph-name="Idieresis" unicode="Ï" horiz-adv-x="375" d="M241 541V139c0-65 24-101 107-101V0H27v38c93 0 109 35 109 115v384c0 75-24 107-109 107v38h321v-38c-73 0-107-26-107-103zm33 326c29 0 53-24 53-53s-24-53-53-53-53 24-53 53 24 53 53 53zm-172 0c29 0 53-24 53-53s-24-53-53-53-53 24-53 53 24 53 53 53z"/><glyph glyph-name="Igrave" unicode="Ì" horiz-adv-x="375" d="M241 541V139c0-65 24-101 107-101V0H27v38c93 0 109 35 109 115v384c0 75-24 107-109 107v38h321v-38c-73 0-107-26-107-103zM79 908h109l51-169h-16z"/><glyph glyph-name="Ntilde" unicode="Ñ" horiz-adv-x="844" d="M143 147v412l-44 44c-33 30-54 37-92 41v38h162l511-518v327c-2 79-18 153-119 153v38h269v-38c-75 0-107-62-107-153V178c0-100 19-122 23-186h-66c-31 42-57 74-80 97L186 513V166c0-91 40-128 122-128V0H22v38c88 0 122 27 121 109zm139 606h-15c2 82 35 127 92 127 63 0 119-69 158-69 26 0 42 24 47 69h15v-9c0-70-39-120-94-120-32 0-61 18-87 35s-50 34-71 34c-27 0-41-29-45-67z"/><glyph glyph-name="Oacute" unicode="Ó" horiz-adv-x="813" d="M53 328c0 243 179 366 354 366 202 0 353-152 353-356 0-198-160-350-369-350C211-12 53 126 53 328zm121 54c0-183 86-351 247-351 131 0 218 108 218 269 0 174-83 351-250 351-120 0-215-93-215-269zm342 526L372 739h-16l51 169h109z"/><glyph glyph-name="Ocircumflex" unicode="Ô" horiz-adv-x="813" d="M53 328c0 243 179 366 354 366 202 0 353-152 353-356 0-198-160-350-369-350C211-12 53 126 53 328zm121 54c0-183 86-351 247-351 131 0 218 108 218 269 0 174-83 351-250 351-120 0-215-93-215-269zm187 514h90l93-161h-15L396 840 284 735h-15z"/><glyph glyph-name="Odieresis" unicode="Ö" horiz-adv-x="813" d="M53 328c0 243 179 366 354 366 202 0 353-152 353-356 0-198-160-350-369-350C211-12 53 126 53 328zm121 54c0-183 86-351 247-351 131 0 218 108 218 269 0 174-83 351-250 351-120 0-215-93-215-269zm319 485c29 0 53-24 53-53s-24-53-53-53-53 24-53 53 24 53 53 53zm-172 0c29 0 53-24 53-53s-24-53-53-53-53 24-53 53 24 53 53 53z"/><glyph glyph-name="Ograve" unicode="Ò" horiz-adv-x="813" d="M53 328c0 243 179 366 354 366 202 0 353-152 353-356 0-198-160-350-369-350C211-12 53 126 53 328zm121 54c0-183 86-351 247-351 131 0 218 108 218 269 0 174-83 351-250 351-120 0-215-93-215-269zm124 526h109l51-169h-16z"/><glyph glyph-name="Otilde" unicode="Õ" horiz-adv-x="813" d="M53 328c0 243 179 366 354 366 202 0 353-152 353-356 0-198-160-350-369-350C211-12 53 126 53 328zm121 54c0-183 86-351 247-351 131 0 218 108 218 269 0 174-83 351-250 351-120 0-215-93-215-269zm92 371h-15c2 82 35 127 92 127 63 0 119-69 158-69 26 0 42 24 47 69h15v-9c0-70-39-120-94-120-32 0-61 18-87 35s-50 34-71 34c-27 0-41-29-45-67z"/><glyph glyph-name="Scaron" unicode="Š" horiz-adv-x="594" d="M59 36v172h43c20-103 74-172 185-172 83 0 150 51 150 112 0 18-7 44-36 73-65 65-199 111-283 195-28 28-45 61-45 106 0 103 94 172 232 172 67 0 143-20 209-57V490h-43c-7 102-79 161-172 161-69 0-123-41-123-95 0-25 10-46 32-68 53-53 202-112 277-187 36-36 55-75 55-124C540 66 436-12 290-12c-73 0-181 22-231 48zm284 708h-90l-93 161h15l133-105 112 105h15z"/><glyph glyph-name="Uacute" unicode="Ú" horiz-adv-x="833" d="M17 682h328v-38c-86 0-114-27-114-104V229c0-111 79-181 213-181 113 0 221 60 221 217v262c0 72-23 117-118 117v38h269v-38c-62 0-106-27-106-105V257C710 52 575-12 420-12 214-12 126 92 126 209v339c0 60-22 96-109 96v38zm509 226L382 739h-16l51 169h109z"/><glyph glyph-name="Ucircumflex" unicode="Û" horiz-adv-x="833" d="M17 682h328v-38c-86 0-114-27-114-104V229c0-111 79-181 213-181 113 0 221 60 221 217v262c0 72-23 117-118 117v38h269v-38c-62 0-106-27-106-105V257C710 52 575-12 420-12 214-12 126 92 126 209v339c0 60-22 96-109 96v38zm354 214h90l93-161h-15L406 840 294 735h-15z"/><glyph glyph-name="Udieresis" unicode="Ü" horiz-adv-x="833" d="M17 682h328v-38c-86 0-114-27-114-104V229c0-111 79-181 213-181 113 0 221 60 221 217v262c0 72-23 117-118 117v38h269v-38c-62 0-106-27-106-105V257C710 52 575-12 420-12 214-12 126 92 126 209v339c0 60-22 96-109 96v38zm486 185c29 0 53-24 53-53s-24-53-53-53-53 24-53 53 24 53 53 53zm-172 0c29 0 53-24 53-53s-24-53-53-53-53 24-53 53 24 53 53 53z"/><glyph glyph-name="Ugrave" unicode="Ù" horiz-adv-x="833" d="M17 682h328v-38c-86 0-114-27-114-104V229c0-111 79-181 213-181 113 0 221 60 221 217v262c0 72-23 117-118 117v38h269v-38c-62 0-106-27-106-105V257C710 52 575-12 420-12 214-12 126 92 126 209v339c0 60-22 96-109 96v38zm291 226h109l51-169h-16z"/><glyph glyph-name="Yacute" unicode="Ý" horiz-adv-x="719" d="M413 286V132c0-64 35-94 100-94V0H206v38c66 0 102 28 102 95v153L99 592c-23 34-49 48-91 52v38h300v-38c-79 0-96-36-60-88l149-217 116 170c48 70 32 131-48 135v38h246v-38c-41-5-66-27-115-97zm56 622L325 739h-16l51 169h109z"/><glyph glyph-name="Ydieresis" unicode="Ÿ" horiz-adv-x="719" d="M413 286V132c0-64 35-94 100-94V0H206v38c66 0 102 28 102 95v153L99 592c-23 34-49 48-91 52v38h300v-38c-79 0-96-36-60-88l149-217 116 170c48 70 32 131-48 135v38h246v-38c-41-5-66-27-115-97zm33 581c29 0 53-24 53-53s-24-53-53-53-53 24-53 53 24 53 53 53zm-172 0c29 0 53-24 53-53s-24-53-53-53-53 24-53 53 24 53 53 53z"/><glyph glyph-name="Zcaron" unicode="Ž" horiz-adv-x="677" d="M650 177L605 0H30v30l456 609H284c-93 0-128-24-167-112H80v155h546v-29L166 43h199c134 0 169 26 246 134h39zM384 744h-90l-93 161h15l133-105 112 105h15z"/><glyph glyph-name="aacute" unicode="á" horiz-adv-x="479" d="M305 271v68c0 59-59 79-92 79-39 0-77-24-77-47 0-22 41-56 15-68l-59-28c-6-3-33 47-33 69 0 47 53 117 184 117 95 0 146-31 146-107V98c0-37 22-48 56-26l9-36c-29-33-54-47-81-47-38 0-63 26-68 72-58-52-99-72-148-72C92-11 45 34 45 96s42 100 153 138zm0-38l-53-20c-81-30-118-50-118-92 0-31 20-65 70-65 36 0 67 16 101 52v125zm44 461L205 525h-16l51 169h109z"/><glyph glyph-name="acircumflex" unicode="â" horiz-adv-x="479" d="M305 271v68c0 59-59 79-92 79-39 0-77-24-77-47 0-22 41-56 15-68l-59-28c-6-3-33 47-33 69 0 47 53 117 184 117 95 0 146-31 146-107V98c0-37 22-48 56-26l9-36c-29-33-54-47-81-47-38 0-63 26-68 72-58-52-99-72-148-72C92-11 45 34 45 96s42 100 153 138zm0-38l-53-20c-81-30-118-50-118-92 0-31 20-65 70-65 36 0 67 16 101 52v125zM194 682h90l93-161h-15L229 626 117 521h-15z"/><glyph glyph-name="adieresis" unicode="ä" horiz-adv-x="479" d="M305 271v68c0 59-59 79-92 79-39 0-77-24-77-47 0-22 41-56 15-68l-59-28c-6-3-33 47-33 69 0 47 53 117 184 117 95 0 146-31 146-107V98c0-37 22-48 56-26l9-36c-29-33-54-47-81-47-38 0-63 26-68 72-58-52-99-72-148-72C92-11 45 34 45 96s42 100 153 138zm0-38l-53-20c-81-30-118-50-118-92 0-31 20-65 70-65 36 0 67 16 101 52v125zm21 420c29 0 53-24 53-53s-24-53-53-53-53 24-53 53 24 53 53 53zm-172 0c29 0 53-24 53-53s-24-53-53-53-53 24-53 53 24 53 53 53z"/><glyph glyph-name="agrave" unicode="à" horiz-adv-x="479" d="M305 271v68c0 59-59 79-92 79-39 0-77-24-77-47 0-22 41-56 15-68l-59-28c-6-3-33 47-33 69 0 47 53 117 184 117 95 0 146-31 146-107V98c0-37 22-48 56-26l9-36c-29-33-54-47-81-47-38 0-63 26-68 72-58-52-99-72-148-72C92-11 45 34 45 96s42 100 153 138zm0-38l-53-20c-81-30-118-50-118-92 0-31 20-65 70-65 36 0 67 16 101 52v125zM141 694h109l51-169h-16z"/><glyph glyph-name="aring" unicode="å" horiz-adv-x="479" d="M305 271v68c0 59-59 79-92 79-39 0-77-24-77-47 0-22 41-56 15-68l-59-28c-6-3-33 47-33 69 0 47 53 117 184 117 95 0 146-31 146-107V98c0-37 22-48 56-26l9-36c-29-33-54-47-81-47-38 0-63 26-68 72-58-52-99-72-148-72C92-11 45 34 45 96s42 100 153 138zm0-38l-53-20c-81-30-118-50-118-92 0-31 20-65 70-65 36 0 67 16 101 52v125zm-66 461c52 0 94-41 94-93s-42-94-94-94-93 42-93 94 41 93 93 93zm0-34c-33 0-59-26-59-59s26-60 59-60 60 27 60 60-27 59-60 59z"/><glyph glyph-name="atilde" unicode="ã" horiz-adv-x="479" d="M305 271v68c0 59-59 79-92 79-39 0-77-24-77-47 0-22 41-56 15-68l-59-28c-6-3-33 47-33 69 0 47 53 117 184 117 95 0 146-31 146-107V98c0-37 22-48 56-26l9-36c-29-33-54-47-81-47-38 0-63 26-68 72-58-52-99-72-148-72C92-11 45 34 45 96s42 100 153 138zm0-38l-53-20c-81-30-118-50-118-92 0-31 20-65 70-65 36 0 67 16 101 52v125zM99 539H84c2 82 35 127 92 127 63 0 119-69 158-69 26 0 42 24 47 69h15v-9c0-70-39-120-94-120-32 0-61 18-87 35s-50 34-71 34c-27 0-41-29-45-67z"/><glyph glyph-name="ccedilla" unicode="ç" horiz-adv-x="469" d="M417 132l23-15C419 38 349-11 257-11 108-11 44 115 44 221c0 107 66 240 236 240 82 0 158-24 158-90 0-30-15-48-38-48-65 0-22 95-137 95-83 0-138-65-138-162 0-88 58-188 163-188 63 0 101 20 129 64zM121-166l4 16c18-4 27-5 36-5 35 0 64 24 64 54s-24 49-70 54l65 35c60-5 83-36 83-68 0-53-54-94-124-94-17 0-30 2-58 8z"/><glyph glyph-name="eacute" unicode="é" horiz-adv-x="469" d="M437 277H118c-5-134 80-208 173-208 47 0 87 15 125 48l21-19C394 28 327-11 251-11 130-11 43 86 43 220c0 137 91 241 209 241 129 0 185-113 185-184zm-313 36h208c-8 71-44 111-99 111-58 0-100-43-109-111zm220 381L200 525h-16l51 169h109z"/><glyph glyph-name="ecircumflex" unicode="ê" horiz-adv-x="469" d="M437 277H118c-5-134 80-208 173-208 47 0 87 15 125 48l21-19C394 28 327-11 251-11 130-11 43 86 43 220c0 137 91 241 209 241 129 0 185-113 185-184zm-313 36h208c-8 71-44 111-99 111-58 0-100-43-109-111zm75 369h90l93-161h-15L234 626 122 521h-15z"/><glyph glyph-name="edieresis" unicode="ë" horiz-adv-x="469" d="M437 277H118c-5-134 80-208 173-208 47 0 87 15 125 48l21-19C394 28 327-11 251-11 130-11 43 86 43 220c0 137 91 241 209 241 129 0 185-113 185-184zm-313 36h208c-8 71-44 111-99 111-58 0-100-43-109-111zm207 340c29 0 53-24 53-53s-24-53-53-53-53 24-53 53 24 53 53 53zm-172 0c29 0 53-24 53-53s-24-53-53-53-53 24-53 53 24 53 53 53z"/><glyph glyph-name="egrave" unicode="è" horiz-adv-x="469" d="M437 277H118c-5-134 80-208 173-208 47 0 87 15 125 48l21-19C394 28 327-11 251-11 130-11 43 86 43 220c0 137 91 241 209 241 129 0 185-113 185-184zm-313 36h208c-8 71-44 111-99 111-58 0-100-43-109-111zm12 381h109l51-169h-16z"/><glyph glyph-name="iacute" unicode="í" horiz-adv-x="271" d="M102 109v242l-76 38v23l135 49h25V116c0-55 26-79 62-80V0H30v36c38 0 72 23 72 73zm143 585L101 525H85l51 169h109z"/><glyph glyph-name="icircumflex" unicode="î" horiz-adv-x="271" d="M102 109v242l-76 38v23l135 49h25V116c0-55 26-79 62-80V0H30v36c38 0 72 23 72 73zM90 682h90l93-161h-15L125 626 13 521H-2z"/><glyph glyph-name="idieresis" unicode="ï" horiz-adv-x="271" d="M102 109v242l-76 38v23l135 49h25V116c0-55 26-79 62-80V0H30v36c38 0 72 23 72 73zm120 544c29 0 53-24 53-53s-24-53-53-53-53 24-53 53 24 53 53 53zm-172 0c29 0 53-24 53-53s-24-53-53-53-53 24-53 53 24 53 53 53z"/><glyph glyph-name="igrave" unicode="ì" horiz-adv-x="271" d="M102 109v242l-76 38v23l135 49h25V116c0-55 26-79 62-80V0H30v36c38 0 72 23 72 73zM37 694h109l51-169h-16z"/><glyph glyph-name="ntilde" unicode="ñ" horiz-adv-x="573" d="M175 335V118c0-55 22-82 81-82V0H17v36c50 2 74 26 74 76v241l-67 38v23l126 47h25v-85h2c41 54 105 85 160 85 93 0 147-47 147-155V116c0-50 14-74 71-80V0H319v36c58 0 81 28 81 82v166c0 63-29 110-94 110-46 0-88-23-131-59zm-29 204h-15c2 82 35 127 92 127 63 0 119-69 158-69 26 0 42 24 47 69h15v-9c0-70-39-120-94-120-32 0-61 18-87 35s-50 34-71 34c-27 0-41-29-45-67z"/><glyph glyph-name="oacute" unicode="ó" horiz-adv-x="542" d="M43 228c0 130 99 233 223 233 137 0 233-96 233-232S402-11 274-11C148-11 43 98 43 228zm95 38c0-89 42-240 145-240 78 0 126 55 126 142 0 86-34 256-147 256-75 0-124-42-124-158zm243 428L237 525h-16l51 169h109z"/><glyph glyph-name="ocircumflex" unicode="ô" horiz-adv-x="542" d="M43 228c0 130 99 233 223 233 137 0 233-96 233-232S402-11 274-11C148-11 43 98 43 228zm95 38c0-89 42-240 145-240 78 0 126 55 126 142 0 86-34 256-147 256-75 0-124-42-124-158zm88 416h90l93-161h-15L261 626 149 521h-15z"/><glyph glyph-name="odieresis" unicode="ö" horiz-adv-x="542" d="M43 228c0 130 99 233 223 233 137 0 233-96 233-232S402-11 274-11C148-11 43 98 43 228zm95 38c0-89 42-240 145-240 78 0 126 55 126 142 0 86-34 256-147 256-75 0-124-42-124-158zm220 387c29 0 53-24 53-53s-24-53-53-53-53 24-53 53 24 53 53 53zm-172 0c29 0 53-24 53-53s-24-53-53-53-53 24-53 53 24 53 53 53z"/><glyph glyph-name="ograve" unicode="ò" horiz-adv-x="542" d="M43 228c0 130 99 233 223 233 137 0 233-96 233-232S402-11 274-11C148-11 43 98 43 228zm95 38c0-89 42-240 145-240 78 0 126 55 126 142 0 86-34 256-147 256-75 0-124-42-124-158zm35 428h109l51-169h-16z"/><glyph glyph-name="otilde" unicode="õ" horiz-adv-x="542" d="M43 228c0 130 99 233 223 233 137 0 233-96 233-232S402-11 274-11C148-11 43 98 43 228zm95 38c0-89 42-240 145-240 78 0 126 55 126 142 0 86-34 256-147 256-75 0-124-42-124-158zm-7 273h-15c2 82 35 127 92 127 63 0 119-69 158-69 26 0 42 24 47 69h15v-9c0-70-39-120-94-120-32 0-61 18-87 35s-50 34-71 34c-27 0-41-29-45-67z"/><glyph glyph-name="scaron" unicode="š" horiz-adv-x="396" d="M322 418V310h-31c-15 79-47 114-102 114-47 0-75-24-75-67 0-75 152-93 209-150 21-21 32-53 32-86 0-82-59-132-153-132C152-11 93 2 55 21v126h33C98 69 135 26 195 26c53 0 91 30 91 71 0 77-132 75-214 157-20 20-31 54-31 83 0 73 60 124 146 124 53 0 98-14 135-43zm-78 112h-90L61 691h15l133-105 112 105h15z"/><glyph glyph-name="uacute" unicode="ú" horiz-adv-x="573" d="M553 56V17L401-11v77c-58-54-108-77-167-77-74 0-135 37-135 131v196c0 79-18 87-80 87v36l164 11V171c0-76 31-111 91-111 44 0 79 14 127 52v204c0 79-17 87-86 87v36l170 11V104c0-45 13-60 68-48zM396 694L252 525h-16l51 169h109z"/><glyph glyph-name="ucircumflex" unicode="û" horiz-adv-x="573" d="M553 56V17L401-11v77c-58-54-108-77-167-77-74 0-135 37-135 131v196c0 79-18 87-80 87v36l164 11V171c0-76 31-111 91-111 44 0 79 14 127 52v204c0 79-17 87-86 87v36l170 11V104c0-45 13-60 68-48zM241 682h90l93-161h-15L276 626 164 521h-15z"/><glyph glyph-name="udieresis" unicode="ü" horiz-adv-x="573" d="M553 56V17L401-11v77c-58-54-108-77-167-77-74 0-135 37-135 131v196c0 79-18 87-80 87v36l164 11V171c0-76 31-111 91-111 44 0 79 14 127 52v204c0 79-17 87-86 87v36l170 11V104c0-45 13-60 68-48zM373 653c29 0 53-24 53-53s-24-53-53-53-53 24-53 53 24 53 53 53zm-172 0c29 0 53-24 53-53s-24-53-53-53-53 24-53 53 24 53 53 53z"/><glyph glyph-name="ugrave" unicode="ù" horiz-adv-x="573" d="M553 56V17L401-11v77c-58-54-108-77-167-77-74 0-135 37-135 131v196c0 79-18 87-80 87v36l164 11V171c0-76 31-111 91-111 44 0 79 14 127 52v204c0 79-17 87-86 87v36l170 11V104c0-45 13-60 68-48zM178 694h109l51-169h-16z"/><glyph glyph-name="yacute" unicode="ý" horiz-adv-x="479" d="M233-5L74 355c-26 59-40 59-72 59v36h218v-36c-59-2-72-24-49-76l103-236 86 219c20 52 6 90-55 93v36h173v-36c-38-8-50-25-70-76L242-84c-29-73-71-107-131-107-47 0-80 23-80 57 0 23 19 41 43 41 35 0 35-32 71-32 38 0 62 34 88 120zm116 699L205 525h-16l51 169h109z"/><glyph glyph-name="ydieresis" unicode="ÿ" horiz-adv-x="479" d="M233-5L74 355c-26 59-40 59-72 59v36h218v-36c-59-2-72-24-49-76l103-236 86 219c20 52 6 90-55 93v36h173v-36c-38-8-50-25-70-76L242-84c-29-73-71-107-131-107-47 0-80 23-80 57 0 23 19 41 43 41 35 0 35-32 71-32 38 0 62 34 88 120zm93 658c29 0 53-24 53-53s-24-53-53-53-53 24-53 53 24 53 53 53zm-172 0c29 0 53-24 53-53s-24-53-53-53-53 24-53 53 24 53 53 53z"/><glyph glyph-name="zcaron" unicode="ž" horiz-adv-x="436" d="M409 414L127 36h113c84 0 116 42 143 106h36L398 0H14v16l293 398H202c-60 0-96-19-134-70H40v123h22c8-7 13-12 23-14s24-3 47-3h277v-36zM264 530h-90L81 691h15l133-105 112 105h15z"/><glyph glyph-name="twodotenleader" unicode="‥" horiz-adv-x="500" d="M63 50c0 34 28 62 62 62s62-28 62-62c0-35-28-62-62-62S63 16 63 50zm250 0c0 34 28 62 62 62s62-28 62-62c0-35-28-62-62-62s-62 28-62 62z"/><glyph glyph-name="onedotenleader" unicode="․" horiz-adv-x="500" d="M188 50c0 34 28 62 62 62s62-28 62-62c0-35-28-62-62-62s-62 28-62 62z"/><glyph glyph-name="colonmonetary" unicode="₡" horiz-adv-x="781" d="M296 11l-39-124h-47l44 141C133 84 62 200 62 334c0 162 111 366 403 366l15 46h47l-15-49c17-2 40-4 75-12l19 61h48l-23-73c25-7 43-14 61-21l24-158h-33c-17 39-44 74-76 103L429 31c7-1 16-1 32-1 181 0 214 133 222 169h38l-5-157c-66-27-199-59-300-53l-32-102h-48L370-6c-36 6-54 11-74 17zm202 643L315 72c19-14 40-24 69-33l185 587c-28 15-48 23-71 28zM277 103l175 556c-98 2-267-61-267-308 0-116 36-192 92-248z"/><glyph glyph-name="figuredash" unicode="‒" horiz-adv-x="552" d="M-6 273h564v-46H-6v46z"/><glyph glyph-name="oneeighth" unicode="⅛" horiz-adv-x="906" d="M641 164l18 9c-26 12-71 36-71 81 0 46 51 91 125 91 69 0 123-38 123-82 0-46-49-66-68-74 37-13 79-50 79-97 0-55-52-98-135-98-84 0-134 47-134 91 0 45 48 72 63 79zm94 38c36 15 47 35 47 57 0 37-33 59-73 59-43 0-63-27-63-48 0-34 36-48 81-64 1-1 7-3 8-4zm-45-42c-29-13-54-36-54-71 0-25 16-70 81-70 36 0 76 17 76 58s-33 54-94 79c-1 1-7 3-9 4zM215 664V389c0-13 0-45 39-45h15v-25H90v25h16c42 0 41 31 41 46v179c0 17 1 44-33 44H91v25c54 0 89 15 92 22 1 2 4 4 6 4h26zm34-686h-53l461 728h53z"/><glyph glyph-name="threeeighths" unicode="⅜" horiz-adv-x="906" d="M641 164l18 9c-26 12-71 36-71 81 0 46 51 91 125 91 69 0 123-38 123-82 0-46-49-66-68-74 37-13 79-50 79-97 0-55-52-98-135-98-84 0-134 47-134 91 0 45 48 72 63 79zm94 38c36 15 47 35 47 57 0 37-33 59-73 59-43 0-63-27-63-48 0-34 36-48 81-64 1-1 7-3 8-4zm-45-42c-29-13-54-36-54-71 0-25 16-70 81-70 36 0 76 17 76 58s-33 54-94 79c-1 1-7 3-9 4zM117 472l-13 23c4 2 5 3 12 6 59 31 98 53 98 85 0 29-28 39-46 39-45 0-84-38-100-53l-25 16c22 27 71 76 143 76 47 0 94-22 94-64 0-33-36-57-49-65l-11-5v-2c39 0 89-30 89-85 0-64-72-130-174-130-14 0-64 2-100 25l16 21c14-6 25-11 37-14s24-5 38-5c75 0 117 51 117 92 0 30-23 61-62 61-26 0-50-13-64-21zM249-22h-53l461 728h53z"/><glyph glyph-name="fiveeighths" unicode="⅝" horiz-adv-x="906" d="M641 164l18 9c-26 12-71 36-71 81 0 46 51 91 125 91 69 0 123-38 123-82 0-46-49-66-68-74 37-13 79-50 79-97 0-55-52-98-135-98-84 0-134 47-134 91 0 45 48 72 63 79zm94 38c36 15 47 35 47 57 0 37-33 59-73 59-43 0-63-27-63-48 0-34 36-48 81-64 1-1 7-3 8-4zm-45-42c-29-13-54-36-54-71 0-25 16-70 81-70 36 0 76 17 76 58s-33 54-94 79c-1 1-7 3-9 4zM122 658h150c24 0 27 0 30 6h31l-13-54H142l-15-58c8 2 35 10 67 10 51 0 136-36 136-120 0-72-72-129-173-129-41 0-71 8-85 12l12 24c7-2 39-9 59-9 87 0 119 48 119 95 0 36-26 81-91 81-32 0-54-12-65-20l-6-4-22 4zM250-22h-53l461 728h53z"/><glyph glyph-name="seveneighths" unicode="⅞" horiz-adv-x="906" d="M641 164l18 9c-26 12-71 36-71 81 0 46 51 91 125 91 69 0 123-38 123-82 0-46-49-66-68-74 37-13 79-50 79-97 0-55-52-98-135-98-84 0-134 47-134 91 0 45 48 72 63 79zm94 38c36 15 47 35 47 57 0 37-33 59-73 59-43 0-63-27-63-48 0-34 36-48 81-64 1-1 7-3 8-4zm-45-42c-29-13-54-36-54-71 0-25 16-70 81-70 36 0 76 17 76 58s-33 54-94 79c-1 1-7 3-9 4zM230 319h-70c0 74 37 136 98 240 7 10 13 21 20 31l14 20H166c-25 0-48-2-61-44H71l26 98h21c3 0 8-3 11-4s7-2 31-2h181v-30c0-1-2-2-2-3-37-48-107-191-109-306zm7-341h-53l461 728h53z"/><glyph glyph-name="onethird" unicode="⅓" horiz-adv-x="906" d="M638 153l-13 23c4 2 5 3 12 6 59 31 98 53 98 85 0 29-28 39-46 39-45 0-84-38-100-53l-25 16c22 27 71 76 143 76 47 0 94-22 94-64 0-33-36-57-49-65l-11-5v-2c39 0 89-30 89-85C830 60 758-6 656-6c-14 0-64 2-100 25l16 21c14-6 25-11 37-14s24-5 38-5c75 0 117 51 117 92 0 30-23 61-62 61-26 0-50-13-64-21zM249-22h-53l461 728h53zm-34 686V389c0-13 0-45 39-45h15v-25H90v25h16c42 0 41 31 41 46v179c0 17 1 44-33 44H91v25c54 0 89 15 92 22 1 2 4 4 6 4h26z"/><glyph glyph-name="twothirds" unicode="⅔" horiz-adv-x="906" d="M638 153l-13 23c4 2 5 3 12 6 59 31 98 53 98 85 0 29-28 39-46 39-45 0-84-38-100-53l-25 16c22 27 71 76 143 76 47 0 94-22 94-64 0-33-36-57-49-65l-11-5v-2c39 0 89-30 89-85C830 60 758-6 656-6c-14 0-64 2-100 25l16 21c14-6 25-11 37-14s24-5 38-5c75 0 117 51 117 92 0 30-23 61-62 61-26 0-50-13-64-21zM248-22h-53l461 728h53zm69 432l-30-91H36v22c26 24 53 48 80 71 97 83 115 110 115 143 0 26-20 65-64 65-17 0-62-6-97-78l-32 11c28 67 76 111 145 111 75 0 116-54 116-98 0-50-42-82-71-103-15-11-43-31-46-34-55-42-61-46-76-62h115c39 0 46 9 65 43h31z"/><glyph glyph-name="exclam.sc" unicode="" horiz-adv-x="208" d="M156 44c0-30-25-53-53-53S51 14 51 44s24 52 52 52 53-22 53-52zM88 513h32c21 0 34-12 32-39l-25-317c-2-24-9-24-30-24-15 0-16 15-17 22L55 472c0 8-3 41 33 41z"/><glyph glyph-name="hungarumlaut.sc" unicode="" d="M179 715L36 546H19l51 169h109zm153 0L189 546h-17l51 169h109z"/><glyph glyph-name="dollar.oldstyle" unicode="" horiz-adv-x="417" d="M235 505v27h40v-36c56-17 93-55 93-88 0-17-12-35-31-35s-38 13-48 34l-14 30V282c56-18 107-64 107-138 0-67-43-123-107-143v-87h-40v79c-27-2-38-2-63 1v-80h-40V2C51 29 34 75 34 92c0 20 17 41 40 41 16 0 31-7 41-33 11-28 11-29 17-38v185c-36 18-91 47-91 127 0 40 18 95 91 121v37h40v-28c8 2 16 3 31 3s24-1 32-2zm0-209v163c-7 2-14 5-31 5-16 0-24-3-32-4V318c17-7 22-8 63-22zm-103 40v111c-32-19-32-49-32-54 0-13 4-38 32-57zM235 35v173c-9 4-53 18-63 22V40c11-3 31-6 63-5zm40 156V46c34 21 48 47 48 76 0 34-18 51-48 69z"/><glyph glyph-name="dollar.superior" unicode="" d="M190 655v18h26v-23c68-17 76-53 76-59 0-9-9-23-26-23-31 0-39 27-45 43l-3 6h-2V502c28-8 91-26 91-87 0-36-22-82-91-96v-58h-26v52c-10-1-20-1-25-1-9 0-20 2-26 3v-54h-26v58c-63 17-83 46-83 61 0 13 14 27 32 27 23 0 30-14 37-31 2-5 9-14 8-16l6-7v122c-31 12-87 33-87 93 0 56 53 80 87 85v20h26v-18c3 1 13 2 24 2 10 0 21-1 27-2zm0-143v114c-4 1-19 3-27 3-7 0-15 0-24-2V526c23-8 34-9 51-14zm-77 24v86c-29-8-41-20-41-41 0-29 25-41 41-45zm77-194v112c-22 7-33 8-51 14V344c8-3 22-5 28-5s16 1 23 3zm26 103v-97c14 4 43 21 43 51 0 37-30 42-43 46z"/><glyph glyph-name="ampersand.sc" unicode="" horiz-adv-x="583" d="M411 331h150v-34c-40-16-51-28-87-87-18-30-34-54-48-75 2-3 11-15 17-22 48-69 53-76 103-87 12-2 14-6 14-15 0-16-5-20-22-20-5 0-87 10-102 15-30 11-55 47-68 67-29-29-82-81-171-81C92-8 40 65 40 128c0 83 75 129 135 166-32 36-61 69-61 100 0 41 44 72 54 79 55 40 68 40 89 40 48 0 100-61 100-98 0-41-38-68-85-102 56-55 77-81 130-149 18 25 47 66 47 97 0 26-17 31-38 36v34zm-189 32l23-24c37 26 55 40 55 64 0 21-38 71-62 71-18 0-58-18-58-46 0-23 28-51 42-65zm-21-96c-32-20-80-50-80-102 0-40 29-116 112-116 54 0 90 30 113 50-20 29-82 114-145 168z"/><glyph glyph-name="acute.sc" unicode="" d="M275 716L132 547h-17l51 169h109z"/><glyph glyph-name="parenleft.superior" unicode="⁽" horiz-adv-x="240" d="M213 700l25-30-8-7c-55-42-126-99-126-233 0-133 80-201 130-230 0-1 4-3 5-3l-26-28C108 231 52 311 52 432c0 147 92 218 161 268z"/><glyph glyph-name="parenright.superior" unicode="⁾" horiz-adv-x="240" d="M27 169L2 199l8 7c55 42 126 99 126 233 0 133-80 201-130 230 0 1-4 3-5 3l26 28c105-62 161-142 161-263 0-147-92-218-161-268z"/><glyph glyph-name="zero.oldstyle" unicode="" horiz-adv-x="552" d="M41 245c0 138 106 249 236 249 139 0 234-121 234-251 0-102-61-253-241-253C132-10 41 92 41 245zm72-3c0-100 56-185 167-185 116 0 159 105 159 186 0 110-63 184-162 184-106 0-164-90-164-185z"/><glyph glyph-name="one.oldstyle" unicode="" horiz-adv-x="470" d="M91 481h288v-39c-92-1-100-23-100-94V130c0-88 30-89 100-91V0H91v39c92 0 96 36 96 91v218c0 64-6 90-96 94v39z"/><glyph glyph-name="two.oldstyle" unicode="" horiz-adv-x="542" d="M490 144L439 0H48v33c63 45 108 80 193 158 90 83 102 109 102 143 0 65-70 82-111 82-61 0-114-31-144-49l-24 25c35 39 92 102 206 102 109 0 171-66 171-128 0-38-12-65-36-93-35-42-97-90-123-109-79-55-87-61-114-80v-2h189c54 0 67 2 95 62h38z"/><glyph glyph-name="three.oldstyle" unicode="" horiz-adv-x="490" d="M107 141v39c95 24 135 34 167 64 17 16 33 46 33 76 0 51-41 99-113 99-50 0-77-21-105-42-12-10-16-11-20-11-10 0-19 9-19 19 0 22 47 109 177 109 104 0 174-63 174-141 0-90-74-126-102-140 41-18 127-58 127-174 0-99-87-230-292-230-47 0-107 3-107 47 0 16 12 38 47 38 15 0 30-3 67-15 12-4 42-13 66-13 41 0 127 27 127 140 0 23-3 88-69 117-35 15-98 17-158 18z"/><glyph glyph-name="four.oldstyle" unicode="" horiz-adv-x="542" d="M400 494V78h102V3H400v-192h-92V3H27v58l323 433h50zM308 78v304h-2L87 78h221z"/><glyph glyph-name="five.oldstyle" unicode="" horiz-adv-x="480" d="M71 261l114 221c26 3 36 3 47 3 22 0 46-3 51-4 3 0 49-6 64-6 20 0 35 8 43 24 4 6 7 11 15 11 17 0 32-17 32-22 0-3-44-86-49-89-4-3-12-4-32-4-11 0-21 0-65 4-12 1-26 2-48 2-14 0-25 0-50-1l-37-69c91-32 259-94 259-263 0-125-116-257-280-257-49 0-95 13-95 29 0 15 28 61 36 61 15 0 40-8 41-8 27-7 45-10 77-10 105 0 149 74 149 141 0 110-83 164-272 237z"/><glyph glyph-name="six.oldstyle" unicode="" horiz-adv-x="532" d="M431 664l44-28c-133-50-264-115-311-268 48 28 79 46 130 46 143 0 191-136 191-215 0-105-77-209-214-209C123-10 48 116 48 253c0 119 56 232 149 306 90 72 180 92 234 105zM153 324c-3-27-7-74-7-102 0-93 34-189 127-189 65 0 118 53 118 154 0 123-73 170-135 170-44 0-70-14-103-33z"/><glyph glyph-name="seven.oldstyle" unicode="" horiz-adv-x="510" d="M39 318l55 158c22 3 46 5 76 5 13 0 59-1 102-2 42-1 79-2 91-2 19 0 92 2 122 4v-7L230-152c-2-4-11-30-16-35s-13-4-31-4c-20 0-20 8-20 15 0 4 2 10 3 12l231 553c-27-4-49-5-70-5-12 0-84 1-110 1-80 0-100 0-112-22s-10-23-11-27l-6-18H39z"/><glyph glyph-name="eight.oldstyle" unicode="" horiz-adv-x="522" d="M311 354c79-56 147-108 147-195 0-43-23-169-201-169C127-10 65 61 65 135c0 88 75 140 137 183-84 62-138 108-138 185 0 83 71 161 193 161 128 0 189-77 189-140 0-67-67-122-135-170zm-32 22c45 37 88 75 88 137 0 64-45 112-113 112-54 0-109-32-109-94 0-69 60-108 134-155zm-14-106l-30 21c-52-43-89-78-89-152 0-76 44-110 116-110 61 0 115 20 115 95 0 61-40 96-112 146z"/><glyph glyph-name="nine.oldstyle" unicode="" horiz-adv-x="542" d="M108-191l-42 37c72 22 134 54 194 101 84 66 102 122 119 173-40-21-84-47-149-47C92 73 46 210 46 277c0 103 79 217 220 217 126 0 224-97 224-262 0-273-261-392-382-423zm278 349c3 34 3 43 3 75 0 90-5 223-125 223-98 0-120-87-120-156 0-61 15-170 135-170 42 0 73 14 107 28z"/><glyph glyph-name="comma.superior" unicode="" horiz-adv-x="188" d="M17 198v28c34 3 89 10 89 56 0 29-11 31-20 31-26 2-49 9-49 37 0 31 27 41 47 41 36 0 70-33 70-89 0-80-69-104-137-104z"/><glyph glyph-name="uni2014.alt" unicode="" horiz-adv-x="750" d="M-6 273h762v-46H-6v46z"/><glyph glyph-name="period.superior" unicode="" horiz-adv-x="188" d="M49 352c0 22 21 39 45 39s45-17 45-39-20-40-45-40c-24 0-45 18-45 40z"/><glyph glyph-name="question.sc" unicode="" horiz-adv-x="271" d="M39 44c0 30 24 52 52 52 30 0 53-23 53-52S121-9 91-9C63-9 39 14 39 44zm219 266c0-34-7-82-106-117-32-11-41-15-42-67H67c1 14 2 24 1 43-1 11-11 58-11 68 0 22 19 26 40 30 29 6 101 25 101 76 0 39-45 95-88 95-5 0-12-1-19-4l-18-7c-8-3-16-4-20-4-23 0-39 16-39 39 0 35 36 51 72 51 99 0 172-143 172-203z"/><glyph glyph-name="a.superior" unicode="" horiz-adv-x="313" d="M199 483v27c0 17 0 62-60 62-27 0-50-16-50-29 0-4 1-7 6-15 4-5 9-14 9-19 0-4-3-6-5-7l-33-14c-1-1-4-2-6-2-6 0-21 28-21 41 0 25 33 69 120 69 94 0 94-41 94-85V400c0-30 0-44 17-44 7 0 14 3 20 6l6-21c-20-23-39-28-53-28-9 0-38 1-44 42-13-10-27-20-42-28-16-8-33-14-54-14-50 0-73 34-73 64 0 48 53 69 100 84zm0-99v76l-34-12c-55-19-78-32-78-57 0-18 14-39 46-39 35 0 55 21 66 32z"/><glyph glyph-name="b.superior" unicode="" horiz-adv-x="354" d="M103 736V549c13 12 27 23 44 32s37 15 60 15c90 0 121-83 121-136 0-87-67-147-159-147-50 0-96 19-120 30v321L4 689v14l92 33h7zm0-220v-71c0-38 0-48 8-63 18-30 49-39 75-39 70 0 88 63 88 96 0 46-32 108-95 108-6 0-46 0-76-31z"/><glyph glyph-name="cent.superior" unicode="" d="M191 561h19l28 70h35l-30-74c27-6 49-20 49-47 0-13-9-25-27-25-28 0-34 20-34 24-1 2-2 5-5 7l-60-151c9-3 18-6 35-6 19 0 51 6 69 34 1 1 2 2 2 3l22-13c-15-53-75-70-120-70-11 0-19 2-28 4l-23-57H88l28 68c-51 26-67 72-67 107 0 71 61 128 142 126zm-53-178l60 149c-61 8-90-32-90-78 0-23 8-50 30-71z"/><glyph glyph-name="d.superior" unicode="" horiz-adv-x="365" d="M304 736V398c0-27 0-41 24-41 7 0 12 1 22 3v-30l-87-17h-13v44c-25-22-49-33-68-38s-32-6-37-6c-60 0-118 51-118 130 0 86 71 153 153 153 28 0 57-8 70-11v85l-46 25v16l87 25h13zm-54-345v75c0 92-63 100-83 100-55 0-86-52-86-95 0-29 17-112 95-112 8 0 47 0 74 32z"/><glyph glyph-name="e.superior" unicode="" horiz-adv-x="302" d="M269 389l14-11c-28-42-72-65-121-65-92 0-135 73-135 138 0 66 45 145 135 145 78 0 118-59 121-111H76c1-106 74-126 112-126 31 0 57 10 81 30zM79 507h136c-7 44-31 67-65 67-27 0-63-17-71-67z"/><glyph glyph-name="i.superior" unicode="" horiz-adv-x="177" d="M56 702c0 18 16 33 35 33 20 0 35-15 35-33s-15-32-35-32c-18 0-35 14-35 32zm65-106V398c0-19 0-57 41-57v-22H20v22c47 0 47 33 47 57v132l-50 25v11l89 30h15z"/><glyph glyph-name="l.superior" unicode="" horiz-adv-x="177" d="M117 735V398c0-20 0-57 41-57v-22H18v22c45 0 45 35 45 57v273l-45 23v13l86 28h13z"/><glyph glyph-name="m.superior" unicode="" horiz-adv-x="562" d="M116 526V398c0-23 0-57 46-57v-22H14v22c48 0 48 32 48 57v130l-46 29v10l85 29h14v-46c12 10 25 21 43 30 17 9 39 16 67 16 58 0 73-28 82-46 16 14 31 25 47 33 17 8 36 13 58 13 91 0 90-60 90-92V399c0-20 1-58 46-58v-22H399v22c49 0 49 31 49 58v94c0 19 0 63-64 63-27 0-55-14-75-27V399c0-21 0-58 46-58v-22H202v22c52 0 53 30 53 58v95c0 29-4 62-60 62-42 0-64-19-79-30z"/><glyph glyph-name="n.superior" unicode="ⁿ" horiz-adv-x="365" d="M114 517l1 2h-2V397c0-27 0-56 52-56v-22H13v22c46 0 46 31 46 56v133l-42 23v15l85 28h11v-50c11 11 23 23 40 33s39 17 68 17c86 0 86-73 86-113v-86c0-25 0-56 46-56v-22H203v22c50 0 50 30 50 56v81c0 23 0 72-58 72-30 0-57-15-81-33z"/><glyph glyph-name="o.superior" unicode="" horiz-adv-x="354" d="M29 460c0 65 57 136 145 136 85 0 151-54 151-140 0-82-64-143-146-143S29 377 29 460zm141 114c-77 0-80-68-80-94 0-56 27-145 96-145 39 0 82 28 82 84 0 35-17 155-98 155z"/><glyph glyph-name="r.superior" unicode="" horiz-adv-x="240" d="M115 505V398c0-44 8-57 66-57v-22H12v22c49 0 49 31 49 57v131l-49 23v11l90 33h13v-59c2 2 7 10 9 12 14 20 32 47 70 47 30 0 50-23 50-34 0-5-9-39-27-39-11 0-19 8-26 16-7 7-12 12-23 12-18 0-32-18-53-46z"/><glyph glyph-name="s.superior" unicode="" horiz-adv-x="260" d="M208 570v-65h-20c-4 20-15 69-67 69-24 0-49-11-49-41 0-24 16-33 82-60 40-17 75-32 75-82 0-68-70-78-100-78-22 0-63 4-94 19v75h21c5-35 22-72 69-72 24 0 59 10 59 42 0 25-21 37-57 52-58 24-102 43-102 92 0 48 44 75 95 75 43 0 70-14 88-26z"/><glyph glyph-name="t.superior" unicode="" horiz-adv-x="219" d="M117 559V391c0-31 2-42 47-42 21 0 34 2 45 3v-29c-19-6-39-10-83-10-31 0-63 6-63 52v194H14v16c39 13 73 51 81 62h22v-48h88v-30h-88z"/><glyph glyph-name="parenleft.inferior" unicode="₍" horiz-adv-x="240" d="M213 423l25-30-8-7c-55-42-126-99-126-233 0-133 80-201 130-230 0-1 4-3 5-3l-26-28C108-46 52 34 52 155c0 147 92 218 161 268z"/><glyph glyph-name="parenright.inferior" unicode="₎" horiz-adv-x="240" d="M27-108L2-78l8 7c55 42 126 99 126 233 0 133-80 201-130 230 0 1-4 3-5 3l26 28c105-62 161-142 161-263C188 13 96-58 27-108z"/><glyph glyph-name="circumflex.sc" unicode="" d="M121 703h90l93-161h-15L156 646 44 542H29z"/><glyph glyph-name="hyphen.superior" unicode="" horiz-adv-x="229" d="M12 395v51h205v-51H12z"/><glyph glyph-name="grave.sc" unicode="" d="M58 716h109l51-169h-17z"/><glyph glyph-name="a.sc" unicode="" horiz-adv-x="490" d="M194 514h89l132-380c26-75 42-86 71-97V0H283v37c24 5 54 12 54 51 0 24-16 67-19 74l-11 27H137c-9-23-28-71-28-103 0-48 39-49 56-49V0H4v37c16 5 33 10 55 69 1 3 7 19 9 22l135 365zm-41-276h138l-68 197h-2z"/><glyph glyph-name="b.sc" unicode="" horiz-adv-x="521" d="M282 0H24v37c66 6 77 37 77 81v266c0 43-10 75-77 82v36h227c47 0 212 0 212-119 0-83-85-108-125-119v-2c41-6 150-26 150-133 0-47-25-88-74-111C376 0 327 0 282 0zm-94 463V283c48 0 94-1 127 11 34 12 56 33 56 77 0 85-79 94-141 94-14 0-36-2-42-2zm0-221V116c0-75 48-75 100-75 23 0 102 0 102 93 0 43-21 82-62 99-24 10-93 9-140 9z"/><glyph glyph-name="c.sc" unicode="" horiz-adv-x="552" d="M489 482V349l-35 3c-10 33-34 121-151 121-84 0-161-65-161-200 0-121 65-240 176-240 86 0 130 55 148 137h36V37C468 22 406-8 307-8 114-8 46 137 46 249c0 126 86 265 268 265 74 0 134-19 175-32z"/><glyph glyph-name="d.sc" unicode="" horiz-adv-x="594" d="M30 502h246c64 0 116-9 158-34 115-69 116-184 116-215C550 1 319 0 269 0H26v37c74 0 82 48 82 104v245c0 71-41 80-78 80v36zm165-37V129c0-80 32-90 90-90 129 0 169 95 169 197 0 71-23 141-76 188-48 42-90 41-183 41z"/><glyph glyph-name="e.sc" unicode="" horiz-adv-x="490" d="M36 502h396V385h-30c-33 70-49 80-128 80h-82V286h55c75 0 82 11 95 68h37V177h-37c-6 67-30 68-84 68h-66V131c0-45 1-90 86-90 42 0 98 5 138 95h40L416 0H36v37c63 19 69 37 69 107v231c0 34 0 82-69 91v36z"/><glyph glyph-name="f.sc" unicode="" horiz-adv-x="469" d="M31 502h409V386h-35c-33 78-61 79-121 79h-96V286h74c53 0 70 11 83 64h37V179h-37c-14 51-18 66-82 66h-75V137c0-48-1-101 84-100V0H31v37c53 7 70 21 70 106v237c0 56-4 73-70 86v36z"/><glyph glyph-name="g.sc" unicode="" horiz-adv-x="594" d="M331 257h228v-37c-45-10-61-24-61-93V25C474 14 422-8 334-8 80-8 45 177 45 252c0 121 85 262 285 262 88 0 142-21 171-34V368h-37c-29 92-88 109-140 109-77 0-123-35-149-79-27-44-34-97-34-130 0-86 46-235 187-235 40 0 61 10 83 21v65c0 51 0 97-80 101v37z"/><glyph glyph-name="h.sc" unicode="" horiz-adv-x="646" d="M197 282h260v78c0 47 1 102-81 105v37h242v-37c-67-10-74-42-74-82V123c0-42 0-77 74-86V0H376v37c82 2 81 57 81 104v97H197V118c0-43 11-75 79-81V0H28v37c82 2 82 57 82 104v219c0 47 0 102-82 105v37h248v-37c-67-7-79-37-79-82V282z"/><glyph glyph-name="i.sc" unicode="" horiz-adv-x="313" d="M30 502h253v-37c-81-7-83-39-83-102V137c0-48-1-101 83-100V0H30v37c84 7 83 45 83 103v248c0 52-14 74-83 77v37z"/><glyph glyph-name="j.sc" unicode="" horiz-adv-x="281" d="M19 502h249v-37c-78-6-78-51-78-82V78c0-49 0-132-16-170-12-28-47-96-123-96-49 0-81 34-81 63 0 22 17 41 40 41 7 0 33-3 42-37 3-9 7-26 20-26 31 0 31 47 31 102v409c0 71-8 96-84 101v37z"/><glyph glyph-name="k.sc" unicode="" horiz-adv-x="563" d="M30 502h229v-37c-64-13-67-35-67-102V118c0-43 10-75 78-81V0H30v37c74 6 75 48 75 105v229c0 48-1 87-75 94v37zm299 0h202v-37c-16-3-39-8-59-23-47-35-51-40-59-47L284 282c33-33 46-46 78-82C482 65 522 52 562 37V0H440c-34 27-52 42-101 101-14 17-37 44-45 52-26 29-70 76-80 86-4 5-7 7-17 14l132 122c1 1 7 6 12 11l7 7c20 20 27 30 27 40 0 26-29 30-46 32v37z"/><glyph glyph-name="l.sc" unicode="" horiz-adv-x="500" d="M19 502h260v-37c-88 0-88-53-88-96V146c0-80 14-105 105-105 83 0 96 3 154 90h39L450 0H20v37c84 8 84 45 84 103v238c0 40-3 82-85 87v37z"/><glyph glyph-name="m.sc" unicode="" horiz-adv-x="771" d="M86 502h169c2-40 4-70 40-151 48-109 50-110 72-170l16-43c19 42 28 61 63 127 70 132 82 162 86 237h160v-37c-48 1-60-18-60-43 0-12 1-23 3-41l28-237c9-76 24-97 79-107V0H517v37c32 5 67 11 64 69l-1 21-28 273h-2c-36-89-39-95-84-180C398 92 393 57 383 0h-46c-12 71-19 90-70 206-60 136-64 146-81 204h-2l-33-257c-1-11-4-36-4-55 0-59 40-61 54-61V0H29v37c37 2 62 6 85 154l30 196c1 10 3 20 3 26 0 51-43 51-61 52v37z"/><glyph glyph-name="n.sc" unicode="" horiz-adv-x="615" d="M7 502h134l342-381v224c0 81-7 110-92 120v37h215v-37c-85 0-85-52-85-99V126c0-9 1-28 7-52 0-4 5-23 6-27 1-3 5-20 5-32 0-8-2-18-3-23h-53L141 377V140c0-86 24-105 90-103V0H26v37c76 0 76 50 76 135v246c-31 34-53 46-95 47v37z"/><glyph glyph-name="o.sc" unicode="" horiz-adv-x="594" d="M43 252c0 114 86 262 256 262 137 0 252-110 252-254C551 107 442-9 294-9 158-9 43 93 43 252zm96 21c0-115 57-241 169-241 69 0 105 36 125 77 19 41 22 87 22 107 0 123-60 259-172 259-61 0-97-32-118-73-21-42-26-92-26-129z"/><glyph glyph-name="p.sc" unicode="" horiz-adv-x="510" d="M284 0H26v37c82 2 82 57 82 104v243c0 43-10 74-78 81v37h248c32 0 88-1 127-23 42-24 74-63 74-116 0-111-112-143-164-143-8 0-67 0-67 28 0 15 17 21 23 21 41 0 49 0 68 8 34 17 44 52 44 81 0 17-2 73-62 97-29 12-73 11-126 10V121c0-72 39-82 89-84V0z"/><glyph glyph-name="q.sc" unicode="" horiz-adv-x="583" d="M557-117v-71c-47 8-86 14-183 76C349-96 244-18 222-2 152 18 39 86 39 246c0 139 105 268 255 268 104 0 250-74 250-256 0-137-83-235-203-260 61-37 140-84 216-115zM135 272c0-129 64-241 169-241 70 0 144 50 144 181 0 102-46 261-169 261-72 0-108-42-126-88s-18-96-18-113z"/><glyph glyph-name="r.sc" unicode="" horiz-adv-x="521" d="M33 502h234c58 0 95-4 123-15 48-19 76-62 76-109 0-92-85-118-127-130 21-28 48-62 71-96 57-84 64-91 100-113V0h-96c-17 18-24 25-33 40-28 41-68 108-73 116-49 78-62 80-117 78V132c0-64 10-84 64-95V0H33v37c71 8 71 44 71 99v251c0 34 0 67-71 79v36zm158-40V275c25-2 34-2 42-2 45 0 137 2 137 93 0 83-80 99-129 99-17 0-43-2-50-3z"/><glyph glyph-name="s.sc" unicode="" horiz-adv-x="417" d="M358 471V366h-39c-3 29-13 109-103 109-51 0-72-34-72-64 0-24 5-41 116-125 86-65 119-114 119-165C379 59 321-8 205-8 134-8 81 14 46 28v129h37c15-53 34-124 120-124 41 0 89 25 89 69 0 40-33 72-104 128C64 328 58 362 58 392c0 80 77 122 159 122 71 0 115-26 141-43z"/><glyph glyph-name="t.sc" unicode="" horiz-adv-x="490" d="M25 502h439l6-120h-36c-8 21-16 41-32 55-17 15-40 24-82 24h-32V169c0-90-1-131 86-132V0H124v37c78 7 77 43 77 101v323h-35c-57 0-80-8-111-79H19z"/><glyph glyph-name="u.sc" unicode="" horiz-adv-x="573" d="M551 502v-37c-63-17-73-33-73-121V191C478 63 420-8 293-8 118-8 92 80 92 189v195c0 43-9 74-77 81v37h246v-37c-83-8-85-43-85-94V175c0-101 52-134 120-134 94 0 140 55 140 151v192c0 43-10 74-78 81v37h193z"/><glyph glyph-name="v.sc" unicode="" horiz-adv-x="490" d="M3 502h209v-37c-22-4-61-12-61-40 0-13 18-61 19-65l90-236c20 48 33 77 50 119 5 10 28 62 32 72 21 54 25 87 25 94 0 44-41 52-60 56v37h171v-37c-39-17-42-26-92-150-4-11-21-53-36-84-7-14-39-85-45-99-32-74-38-108-42-140h-47l-3 19c-8 27-8 30-11 36L68 393c-1 1-2 6-4 11-17 52-46 58-61 61v37z"/><glyph glyph-name="w.sc" unicode="" horiz-adv-x="771" d="M4 502h192v-37c-12-1-44-3-44-31 0-17 16-60 20-71l99-251 100 255-8 25c-21 67-46 69-79 73v37h224v-37c-29-5-62-10-62-38 0-19 10-48 14-59l89-259h2l84 233c9 25 18 50 18 70 0 39-29 47-50 53v37h164v-37c-37-17-55-26-83-102L563 36c-4-12-9-24-15-44h-48c-3 10-9 33-11 41-1 6-4 13-4 15l-94 262-93-230c-12-30-22-58-27-88h-48c-19 57-19 57-27 77L70 397c-22 57-38 64-66 68v37z"/><glyph glyph-name="x.sc" unicode="" horiz-adv-x="510" d="M17 502h214v-37c-22 0-55-1-55-30 0-17 13-38 34-65l51-67 55 69c15 19 27 40 27 56 0 28-22 33-42 37v37h182v-37c-27-6-51-12-81-47-35-41-39-46-46-55l-71-92 131-171c42-55 56-59 77-63V0H271v37c2 0 9 1 13 2 26 5 38 17 38 30 0 15-10 28-26 49l-65 86-38-52c-19-26-38-51-38-76 0-33 33-37 51-39V0H17v37c50 19 92 71 123 110l70 88L83 406c-33 44-39 48-66 59v37z"/><glyph glyph-name="y.sc" unicode="" horiz-adv-x="552" d="M6 502h236v-37c-27-1-55-9-55-33 0-15 10-32 27-57l85-124 63 86c16 22 44 63 44 84 0 28-25 41-51 44v37h191v-37c-27 1-44-4-83-57l-31-42c-4-5-8-11-10-13L315 208v-71c0-48 0-101 85-100V0H147v37c84-1 84 52 84 100v65L130 355c-5 8-8 13-36 52-37 51-51 59-88 58v37z"/><glyph glyph-name="z.sc" unicode="" horiz-adv-x="458" d="M48 502h387v-17L128 39h121c86 0 116 39 156 103h37L395 0H15v27l303 438H200c-68 0-82-9-126-82H45z"/><glyph glyph-name="one.fitted" unicode="" horiz-adv-x="385" d="M244 664V132c0-25 0-96 78-96h14V0H52v36h19c80 0 81 68 81 96v350c0 43-5 60-16 73-9 10-36 22-52 22H55v36c91-2 133 30 160 51h29z"/><glyph glyph-name="R_p" unicode="" horiz-adv-x="1188" d="M711 44v308l-70 41v17l129 51h25v-75c21 22 74 75 163 75 128 0 185-113 185-212 0-117-82-260-231-260-11 0-60 0-117 29v-78c0-40 0-95 67-95h18v-36H638v36c73 0 73 57 73 95V0h-43c-81 0-108 20-187 120l-87 110c-73 93-78 92-122 92h-29V153c0-57 0-115 106-115V0H37v38c100 0 100 63 100 115v376c0 54 0 115-100 115v38h294c101 0 145-8 187-25 58-24 102-80 102-148 0-135-145-166-188-175 7-6 9-8 17-17l156-178c49-55 73-84 106-95zM243 640V365h54c86 0 200 0 200 130 0 47-22 98-74 124-44 22-83 21-125 21h-55zm552-295V196c0-46 0-75 22-112 21-36 64-53 104-53 65 0 136 41 136 169 0 168-110 191-144 191-17 0-64-4-118-46z"/><glyph glyph-name="tilde.sc" unicode="" d="M26 567H11c1 64 23 127 92 127 23 0 43-5 96-40 33-22 49-28 62-28 35 0 42 42 47 68h15c0-21 0-51-18-83-16-28-49-45-76-45s-58 13-95 39c-35 25-47 30-62 30-33 0-39-34-43-53-1-5-3-13-3-15z"/><glyph glyph-name="exclamdown.sc" unicode="" horiz-adv-x="208" d="M52 460c0 30 25 53 53 53s52-23 52-53-24-52-52-52-53 22-53 52zM120-9H88C67-9 54 3 56 30l25 317c2 24 9 24 30 24 15 0 16-15 17-22l25-317c0-8 3-41-33-41z"/><glyph glyph-name="cent.oldstyle" unicode="" horiz-adv-x="417" d="M266 364l37 105h42l-39-111c26-7 63-24 63-70 0-15-7-40-34-40-19 0-30 12-35 22-8 17-9 19-15 28L207 73c9-4 20-9 45-9 31 0 71 10 94 52l26-17C352 14 272-8 225-8c-22 0-35 3-44 6l-30-86h-42l35 102C81 50 58 120 58 175c0 76 44 174 155 188 18 2 34 2 53 1zM173 96l77 223c-5 0-11 1-20 1-82 0-100-78-100-117 0-17 3-68 43-107z"/><glyph glyph-name="lslash.sc" unicode="" horiz-adv-x="500" d="M19 502h260v-37c-88 0-88-53-88-96v-64l130 99v-47l-130-99V146c0-80 14-105 105-105 83 0 96 3 154 90h39L450 0H20v37c84 8 84 45 84 103v52l-84-65v47l84 65v139c0 40-3 82-85 87v37z"/><glyph glyph-name="scaron.sc" unicode="" horiz-adv-x="417" d="M358 471V366h-39c-3 29-13 109-103 109-51 0-72-34-72-64 0-24 5-41 116-125 86-65 119-114 119-165C379 59 321-8 205-8 134-8 81 14 46 28v129h37c15-53 34-124 120-124 41 0 89 25 89 69 0 40-33 72-104 128C64 328 58 362 58 392c0 80 77 122 159 122 71 0 115-26 141-43zm-104 80h-90L71 712h15l133-104 112 104h15z"/><glyph glyph-name="zcaron.sc" unicode="" horiz-adv-x="458" d="M48 502h387v-17L128 39h121c86 0 116 39 156 103h37L395 0H15v27l303 438H200c-68 0-82-9-126-82H45zm227 49h-90L92 712h15l133-104 112 104h15z"/><glyph glyph-name="dieresis.sc" unicode="" d="M253 696c28 0 53-23 53-53s-24-53-53-53-53 23-53 53 24 53 53 53zm-172 0c28 0 53-23 53-53s-24-53-53-53-53 23-53 53 24 53 53 53z"/><glyph glyph-name="breve.sc" unicode="" d="M27 701h15c10-18 33-62 125-62 52 0 106 16 123 62h16c-7-99-86-136-140-136-50 0-131 33-139 136z"/><glyph glyph-name="caron.sc" unicode="" d="M212 551h-90L29 712h15l133-104 112 104h15z"/><glyph glyph-name="dotaccent.sc" unicode="" d="M167 696c28 0 53-23 53-53s-24-53-53-53-53 23-53 53 24 53 53 53z"/><glyph glyph-name="macron.sc" unicode="" d="M11 663h311v-63H11v63z"/><glyph glyph-name="hyphen.inferior" unicode="" horiz-adv-x="229" d="M12 118v51h205v-51H12z"/><glyph glyph-name="ogonek.sc" unicode="" d="M111 8h26c-6-12-13-26-13-49 0-76 73-95 104-95 13 0 34 2 59 11l10-15c-50-28-72-37-113-37-80 0-112 48-112 91 0 5 1 58 39 94z"/><glyph glyph-name="ring.sc" unicode="" d="M166 730c52 0 94-41 94-93 0-51-42-93-94-93-51 0-93 42-93 93s41 93 93 93zm1-34c-33 0-60-26-60-59s27-59 60-59c32 0 59 26 59 59s-27 59-59 59z"/><glyph glyph-name="cedilla.sc" unicode="" d="M175-12h13c30-8 70-20 70-68 0-56-59-94-124-94-22 0-42 5-59 8l4 16c14-2 25-5 37-5 44 0 64 32 64 54 0 39-40 51-70 54z"/><glyph glyph-name="questiondown.sc" unicode="" horiz-adv-x="271" d="M232 460c0-30-24-52-52-52-30 0-53 23-53 52s23 53 53 53c28 0 52-23 52-53zM13 194c0 34 7 82 106 117 32 11 41 15 42 67h43c-1-14-2-24-1-43 1-11 11-58 11-68 0-22-19-26-40-30-29-6-101-25-101-76 0-39 45-95 88-95 5 0 12 1 19 4l18 7c8 3 16 4 20 4 23 0 39-16 39-39 0-35-36-51-72-51C86-9 13 134 13 194z"/><glyph glyph-name="zero.superior" unicode="⁰" d="M26 481c0 98 60 183 142 183 72 0 139-61 139-167 0-81-47-184-142-184-74 0-139 67-139 168zm68 17c0-103 33-160 76-160 69 0 69 109 69 134 0 129-42 165-77 165-68 0-68-94-68-139z"/><glyph glyph-name="one.superior" unicode="¹" d="M204 664V389c0-31 12-45 39-45h15v-25H79v25h17c29 0 40 13 40 45v181c0 30-7 43-39 43H81v25c53 0 81 11 96 26h27z"/><glyph glyph-name="two.superior" unicode="²" horiz-adv-x="344" d="M318 410l-31-91H36v22c118 109 195 159 195 215 0 36-28 65-64 65-35 0-75-28-97-79l-32 11c32 73 82 111 145 111 65 0 116-42 116-98 0-80-85-99-193-199h115c33 0 51 10 65 43h32z"/><glyph glyph-name="three.superior" unicode="³" d="M105 472l-13 23c88 45 111 63 111 91 0 22-21 39-46 39-29 0-65-17-101-53l-25 16c37 48 92 76 143 76 55 0 95-27 95-64 0-27-19-47-61-71v-2c58-2 90-43 90-84 0-70-81-130-175-130-38 0-75 9-100 25l16 21c29-14 51-19 75-19 64 0 118 41 118 92 0 34-28 61-63 61-18 0-41-7-64-21z"/><glyph glyph-name="four.superior" unicode="⁴" d="M20 414v33l171 217h58V446c18 0 24 15 30 32h31l-10-64h-51v-25c0-17 0-45 34-45h18v-25H129v25h18c34 0 34 28 34 45v25H20zm39 32h122v155h-2z"/><glyph glyph-name="five.superior" unicode="⁵" d="M81 658h150c24 0 27 0 30 6h31l-13-54H101l-15-58c8 2 35 10 67 10 51 0 136-36 136-120 0-72-72-129-173-129-41 0-71 8-85 12l12 24c7-2 39-9 59-9 87 0 119 48 119 95 0 36-26 81-91 81-32 0-54-12-65-20l-6-4-22 4z"/><glyph glyph-name="six.superior" unicode="⁶" d="M111 523l13 9c11 7 39 19 70 19 65 0 110-50 110-111s-49-127-126-127c-57 0-141 43-141 150 0 104 87 200 231 201v-25c-76-4-135-33-157-116zm-6-46c-5-119 53-137 72-137 26 0 59 21 59 87 0 60-29 92-60 92-41 0-63-32-71-42z"/><glyph glyph-name="seven.superior" unicode="⁷" d="M185 319h-70c0 74 37 136 98 240 7 10 13 21 20 31l14 20H121c-25 0-48-2-61-44H26l26 98h21c3 0 8-3 11-4s7-2 31-2h181v-30c0-1-2-2-2-3-37-48-107-191-109-306z"/><glyph glyph-name="eight.superior" unicode="⁸" d="M90 483l18 9c-26 12-71 36-71 81 0 46 51 91 125 91 69 0 123-38 123-82 0-46-49-66-68-74 37-13 79-50 79-97 0-55-52-98-135-98-84 0-134 47-134 91 0 45 48 72 63 79zm94 38c36 15 47 35 47 57 0 37-33 59-73 59-43 0-63-27-63-48 0-34 36-48 81-64 1-1 7-3 8-4zm-45-42c-29-13-54-36-54-71 0-25 16-70 81-70 36 0 76 17 76 58s-33 54-94 79c-1 1-7 3-9 4z"/><glyph glyph-name="nine.superior" unicode="⁹" d="M222 454l-13-9c-11-7-39-19-70-19-65 0-110 50-110 111s49 127 126 127c57 0 141-43 141-150 0-104-87-200-231-201v25c76 4 135 33 157 116zm6 46c5 119-53 137-72 137-26 0-59-21-59-87 0-60 29-92 60-92 41 0 63 32 71 42z"/><glyph glyph-name="zero.inferior" unicode="₀" d="M26 162c0 98 60 183 142 183 72 0 139-61 139-167C307 97 260-6 165-6 91-6 26 61 26 162zm68 17c0-103 33-160 76-160 69 0 69 109 69 134 0 129-42 165-77 165-68 0-68-94-68-139z"/><glyph glyph-name="one.inferior" unicode="₁" d="M204 345V70c0-13 0-45 39-45h15V0H79v25h16c42 0 41 31 41 46v179c0 17 1 44-33 44H80v25c54 0 89 15 92 22 1 2 4 4 6 4h26z"/><glyph glyph-name="two.inferior" unicode="₂" d="M307 91L277 0H26v22c26 24 53 48 80 71 97 83 115 110 115 143 0 26-20 65-64 65-17 0-62-6-97-78l-32 11c28 67 76 111 145 111 75 0 116-54 116-98 0-50-42-82-71-103-15-11-43-31-46-34-55-42-61-46-76-62h115c39 0 46 9 65 43h31z"/><glyph glyph-name="three.inferior" unicode="₃" d="M105 153l-13 23c4 2 5 3 12 6 59 31 98 53 98 85 0 29-28 39-46 39-45 0-84-38-100-53l-25 16c22 27 71 76 143 76 47 0 94-22 94-64 0-33-36-57-49-65l-11-5v-2c39 0 89-30 89-85C297 60 225-6 123-6 109-6 59-4 23 19l16 21c14-6 25-11 37-14s24-5 38-5c75 0 117 51 117 92 0 30-23 61-62 61-26 0-50-13-64-21z"/><glyph glyph-name="four.inferior" unicode="₄" d="M249 95V70c0-17 0-45 34-45h18V0H129v25h18c34 0 34 28 34 45v25H20v33l171 217h58V127c18 0 24 15 30 32h31l-10-64h-51zM59 127h122v155h-2z"/><glyph glyph-name="five.inferior" unicode="₅" d="M82 339h150c24 0 27 0 30 6h31l-13-54H102l-15-58c8 2 35 10 67 10 51 0 136-36 136-120C290 51 218-6 117-6 76-6 46 2 32 6l12 24c7-2 39-9 59-9 87 0 119 48 119 95 0 36-26 81-91 81-32 0-54-12-65-20l-6-4-22 4z"/><glyph glyph-name="six.inferior" unicode="₆" d="M111 204l13 9c11 7 39 19 70 19 65 0 110-50 110-111S255-6 178-6C121-6 37 37 37 144c0 104 87 200 231 201v-25c-76-4-135-33-157-116zm-6-46c-5-119 53-137 72-137 26 0 59 21 59 87 0 60-29 92-60 92-41 0-63-32-71-42z"/><glyph glyph-name="seven.inferior" unicode="₇" d="M185 0h-70c0 74 37 136 98 240 7 10 13 21 20 31l14 20H121c-25 0-48-2-61-44H26l26 98h21c3 0 8-3 11-4s7-2 31-2h181v-30c0-1-2-2-2-3-37-48-107-191-109-306z"/><glyph glyph-name="eight.inferior" unicode="₈" d="M90 164l18 9c-26 12-71 36-71 81 0 46 51 91 125 91 69 0 123-38 123-82 0-46-49-66-68-74 37-13 79-50 79-97 0-55-52-98-135-98C77-6 27 41 27 85c0 45 48 72 63 79zm94 38c36 15 47 35 47 57 0 37-33 59-73 59-43 0-63-27-63-48 0-34 36-48 81-64 1-1 7-3 8-4zm-45-42c-29-13-54-36-54-71 0-25 16-70 81-70 36 0 76 17 76 58s-33 54-94 79c-1 1-7 3-9 4z"/><glyph glyph-name="nine.inferior" unicode="₉" d="M222 135l-13-9c-11-7-39-19-70-19-65 0-110 50-110 111s49 127 126 127c57 0 141-43 141-150C296 91 209-5 65-6v25c76 4 135 33 157 116zm6 46c5 119-53 137-72 137-26 0-59-21-59-87 0-60 29-92 60-92 41 0 63 32 71 42z"/><glyph glyph-name="cent.inferior" unicode="" d="M191 238h19l28 70h35l-30-74c27-6 49-20 49-47 0-13-9-25-27-25-28 0-34 20-34 24-1 2-2 5-5 7L166 42c9-3 18-6 35-6 19 0 51 6 69 34 1 1 2 2 2 3l22-13c-15-53-75-70-120-70-11 0-19 2-28 4l-23-57H88l28 68C65 31 49 77 49 112c0 71 61 128 142 126zM138 60l60 149c-61 8-90-32-90-78 0-23 8-50 30-71z"/><glyph glyph-name="dollar.inferior" unicode="" d="M190 333v18h26v-23c68-17 76-53 76-59 0-9-9-23-26-23-31 0-39 27-45 43l-3 6h-2V180c28-8 91-26 91-87 0-36-22-82-91-96v-58h-26v52c-10-1-20-1-25-1-9 0-20 2-26 3v-54h-26v58C50 14 30 43 30 58c0 13 14 27 32 27 23 0 30-14 37-31 2-5 9-14 8-16l6-7v122c-31 12-87 33-87 93 0 56 53 80 87 85v20h26v-18c3 1 13 2 24 2 10 0 21-1 27-2zm0-143v114c-4 1-19 3-27 3-7 0-15 0-24-2V204c23-8 34-9 51-14zm-77 24v86c-29-8-41-20-41-41 0-29 25-41 41-45zm77-194v112c-22 7-33 8-51 14V22c8-3 22-5 28-5s16 1 23 3zm26 103V26c14 4 43 21 43 51 0 37-30 42-43 46z"/><glyph glyph-name="period.inferior" unicode="" horiz-adv-x="188" d="M49 34c0 22 21 39 45 39s45-17 45-39S119-6 94-6C70-6 49 12 49 34z"/><glyph glyph-name="comma.inferior" unicode="" horiz-adv-x="188" d="M17-89v28c34 3 89 10 89 56 0 29-11 31-20 31-26 2-49 9-49 37 0 31 27 41 47 41 36 0 70-33 70-89C154-65 85-89 17-89z"/><glyph glyph-name="agrave.sc" unicode="" horiz-adv-x="490" d="M194 514h89l132-380c26-75 42-86 71-97V0H283v37c24 5 54 12 54 51 0 24-16 67-19 74l-11 27H137c-9-23-28-71-28-103 0-48 39-49 56-49V0H4v37c16 5 33 10 55 69 1 3 7 19 9 22l135 365zm-41-276h138l-68 197h-2zm-16 478h109l51-169h-17z"/><glyph glyph-name="aacute.sc" unicode="" horiz-adv-x="490" d="M194 514h89l132-380c26-75 42-86 71-97V0H283v37c24 5 54 12 54 51 0 24-16 67-19 74l-11 27H137c-9-23-28-71-28-103 0-48 39-49 56-49V0H4v37c16 5 33 10 55 69 1 3 7 19 9 22l135 365zm-41-276h138l-68 197h-2zm201 478L211 547h-17l51 169h109z"/><glyph glyph-name="acircumflex.sc" unicode="" horiz-adv-x="490" d="M194 514h89l132-380c26-75 42-86 71-97V0H283v37c24 5 54 12 54 51 0 24-16 67-19 74l-11 27H137c-9-23-28-71-28-103 0-48 39-49 56-49V0H4v37c16 5 33 10 55 69 1 3 7 19 9 22l135 365zm-41-276h138l-68 197h-2zm47 465h90l93-161h-15L235 646 123 542h-15z"/><glyph glyph-name="atilde.sc" unicode="" horiz-adv-x="490" d="M194 514h89l132-380c26-75 42-86 71-97V0H283v37c24 5 54 12 54 51 0 24-16 67-19 74l-11 27H137c-9-23-28-71-28-103 0-48 39-49 56-49V0H4v37c16 5 33 10 55 69 1 3 7 19 9 22l135 365zm-41-276h138l-68 197h-2zm-48 329H90c1 64 23 127 92 127 23 0 43-5 96-40 33-22 49-28 62-28 35 0 42 42 47 68h15c0-21 0-51-18-83-16-28-49-45-76-45s-58 13-95 39c-35 25-47 30-62 30-33 0-39-34-43-53-1-5-3-13-3-15z"/><glyph glyph-name="adieresis.sc" unicode="" horiz-adv-x="490" d="M194 514h89l132-380c26-75 42-86 71-97V0H283v37c24 5 54 12 54 51 0 24-16 67-19 74l-11 27H137c-9-23-28-71-28-103 0-48 39-49 56-49V0H4v37c16 5 33 10 55 69 1 3 7 19 9 22l135 365zm-41-276h138l-68 197h-2zm179 458c28 0 53-23 53-53s-24-53-53-53-53 23-53 53 24 53 53 53zm-172 0c28 0 53-23 53-53s-24-53-53-53-53 23-53 53 24 53 53 53z"/><glyph glyph-name="aring.sc" unicode="" horiz-adv-x="490" d="M194 514h89l132-380c26-75 42-86 71-97V0H283v37c24 5 54 12 54 51 0 24-16 67-19 74l-11 27H137c-9-23-28-71-28-103 0-48 39-49 56-49V0H4v37c16 5 33 10 55 69 1 3 7 19 9 22l135 365zm-41-276h138l-68 197h-2zm92 492c52 0 94-41 94-93 0-51-42-93-94-93-51 0-93 42-93 93s41 93 93 93zm1-34c-33 0-60-26-60-59s27-59 60-59c32 0 59 26 59 59s-27 59-59 59z"/><glyph glyph-name="ae.sc" unicode="" horiz-adv-x="792" d="M164 502h452l39-120h-36c-21 42-47 62-73 73s-53 10-78 10H350l63-187h64c36 0 82 0 82 41 0 1-3 27-3 31h38l57-173h-38c-27 39-47 62-125 62h-63l43-130c19-56 37-68 95-68 86 0 111 11 160 84h42L723 0H320v37c24 3 59 8 59 54 0 9-2 20-8 37l-37 111H179l-33-83c-11-27-21-51-21-76 0-12 9-40 54-43V0H-1v37c40 11 55 24 90 101l102 222c0 1 2 5 3 8 1 2 2 4 3 5 13 30 17 52 17 60 0 20-23 29-50 32v37zm103-60l-70-164h123z"/><glyph glyph-name="ccedilla.sc" unicode="" horiz-adv-x="552" d="M315-8c14-4 66-17 66-70 0-57-64-92-124-92-22 0-42 3-59 8l4 16c14-3 25-4 37-4 45 0 64 28 64 55 0 39-42 46-68 53l61 34C171-5 46 75 46 249c0 126 86 265 268 265 74 0 134-19 175-32V349l-35 3c-10 33-34 121-151 121-84 0-161-65-161-200 0-121 65-240 176-240 86 0 130 55 148 137h36V37C468 22 412-6 315-8z"/><glyph glyph-name="egrave.sc" unicode="" horiz-adv-x="490" d="M36 502h396V385h-30c-33 70-49 80-128 80h-82V286h55c75 0 82 11 95 68h37V177h-37c-6 67-30 68-84 68h-66V131c0-45 1-90 86-90 42 0 98 5 138 95h40L416 0H36v37c63 19 69 37 69 107v231c0 34 0 82-69 91v36zm101 214h109l51-169h-17z"/><glyph glyph-name="eacute.sc" unicode="" horiz-adv-x="490" d="M36 502h396V385h-30c-33 70-49 80-128 80h-82V286h55c75 0 82 11 95 68h37V177h-37c-6 67-30 68-84 68h-66V131c0-45 1-90 86-90 42 0 98 5 138 95h40L416 0H36v37c63 19 69 37 69 107v231c0 34 0 82-69 91v36zm318 214L211 547h-17l51 169h109z"/><glyph glyph-name="ecircumflex.sc" unicode="" horiz-adv-x="490" d="M36 502h396V385h-30c-33 70-49 80-128 80h-82V286h55c75 0 82 11 95 68h37V177h-37c-6 67-30 68-84 68h-66V131c0-45 1-90 86-90 42 0 98 5 138 95h40L416 0H36v37c63 19 69 37 69 107v231c0 34 0 82-69 91v36zm164 201h90l93-161h-15L235 646 123 542h-15z"/><glyph glyph-name="edieresis.sc" unicode="" horiz-adv-x="490" d="M36 502h396V385h-30c-33 70-49 80-128 80h-82V286h55c75 0 82 11 95 68h37V177h-37c-6 67-30 68-84 68h-66V131c0-45 1-90 86-90 42 0 98 5 138 95h40L416 0H36v37c63 19 69 37 69 107v231c0 34 0 82-69 91v36zm296 194c28 0 53-23 53-53s-24-53-53-53-53 23-53 53 24 53 53 53zm-172 0c28 0 53-23 53-53s-24-53-53-53-53 23-53 53 24 53 53 53z"/><glyph glyph-name="igrave.sc" unicode="" horiz-adv-x="313" d="M30 502h253v-37c-81-7-83-39-83-102V137c0-48-1-101 83-100V0H30v37c84 7 83 45 83 103v248c0 52-14 74-83 77v37zm18 214h109l51-169h-17z"/><glyph glyph-name="iacute.sc" unicode="" horiz-adv-x="313" d="M30 502h253v-37c-81-7-83-39-83-102V137c0-48-1-101 83-100V0H30v37c84 7 83 45 83 103v248c0 52-14 74-83 77v37zm235 214L122 547h-17l51 169h109z"/><glyph glyph-name="icircumflex.sc" unicode="" horiz-adv-x="313" d="M30 502h253v-37c-81-7-83-39-83-102V137c0-48-1-101 83-100V0H30v37c84 7 83 45 83 103v248c0 52-14 74-83 77v37zm81 201h90l93-161h-15L146 646 34 542H19z"/><glyph glyph-name="idieresis.sc" unicode="" horiz-adv-x="313" d="M30 502h253v-37c-81-7-83-39-83-102V137c0-48-1-101 83-100V0H30v37c84 7 83 45 83 103v248c0 52-14 74-83 77v37zm213 194c28 0 53-23 53-53s-24-53-53-53-53 23-53 53 24 53 53 53zm-172 0c28 0 53-23 53-53s-24-53-53-53-53 23-53 53 24 53 53 53z"/><glyph glyph-name="eth.sc" unicode="" horiz-adv-x="594" d="M30 502h246c64 0 116-9 158-34 115-69 116-184 116-215C550 1 319 0 269 0H26v37c74 0 82 48 82 104v104H26v41h82v100c0 71-41 80-78 80v36zm165-37V286h115v-41H195V129c0-80 32-90 90-90 129 0 169 95 169 197 0 71-23 141-76 188-48 42-90 41-183 41z"/><glyph glyph-name="ntilde.sc" unicode="" horiz-adv-x="615" d="M7 502h134l342-381v224c0 81-7 110-92 120v37h215v-37c-85 0-85-52-85-99V126c0-9 1-28 7-52 0-4 5-23 6-27 1-3 5-20 5-32 0-8-2-18-3-23h-53L141 377V140c0-86 24-105 90-103V0H26v37c76 0 76 50 76 135v246c-31 34-53 46-95 47v37zm160 65h-15c1 64 23 127 92 127 23 0 43-5 96-40 33-22 49-28 62-28 35 0 42 42 47 68h15c0-21 0-51-18-83-16-28-49-45-76-45s-58 13-95 39c-35 25-47 30-62 30-33 0-39-34-43-53-1-5-3-13-3-15z"/><glyph glyph-name="ograve.sc" unicode="" horiz-adv-x="594" d="M43 252c0 114 86 262 256 262 137 0 252-110 252-254C551 107 442-9 294-9 158-9 43 93 43 252zm96 21c0-115 57-241 169-241 69 0 105 36 125 77 19 41 22 87 22 107 0 123-60 259-172 259-61 0-97-32-118-73-21-42-26-92-26-129zm50 443h109l51-169h-17z"/><glyph glyph-name="oacute.sc" unicode="" horiz-adv-x="594" d="M43 252c0 114 86 262 256 262 137 0 252-110 252-254C551 107 442-9 294-9 158-9 43 93 43 252zm96 21c0-115 57-241 169-241 69 0 105 36 125 77 19 41 22 87 22 107 0 123-60 259-172 259-61 0-97-32-118-73-21-42-26-92-26-129zm267 443L263 547h-17l51 169h109z"/><glyph glyph-name="ocircumflex.sc" unicode="" horiz-adv-x="594" d="M43 252c0 114 86 262 256 262 137 0 252-110 252-254C551 107 442-9 294-9 158-9 43 93 43 252zm96 21c0-115 57-241 169-241 69 0 105 36 125 77 19 41 22 87 22 107 0 123-60 259-172 259-61 0-97-32-118-73-21-42-26-92-26-129zm113 430h90l93-161h-15L287 646 175 542h-15z"/><glyph glyph-name="otilde.sc" unicode="" horiz-adv-x="594" d="M43 252c0 114 86 262 256 262 137 0 252-110 252-254C551 107 442-9 294-9 158-9 43 93 43 252zm96 21c0-115 57-241 169-241 69 0 105 36 125 77 19 41 22 87 22 107 0 123-60 259-172 259-61 0-97-32-118-73-21-42-26-92-26-129zm18 294h-15c1 64 23 127 92 127 23 0 43-5 96-40 33-22 49-28 62-28 35 0 42 42 47 68h15c0-21 0-51-18-83-16-28-49-45-76-45s-58 13-95 39c-35 25-47 30-62 30-33 0-39-34-43-53-1-5-3-13-3-15z"/><glyph glyph-name="odieresis.sc" unicode="" horiz-adv-x="594" d="M43 252c0 114 86 262 256 262 137 0 252-110 252-254C551 107 442-9 294-9 158-9 43 93 43 252zm96 21c0-115 57-241 169-241 69 0 105 36 125 77 19 41 22 87 22 107 0 123-60 259-172 259-61 0-97-32-118-73-21-42-26-92-26-129zm245 423c28 0 53-23 53-53s-24-53-53-53-53 23-53 53 24 53 53 53zm-172 0c28 0 53-23 53-53s-24-53-53-53-53 23-53 53 24 53 53 53z"/><glyph glyph-name="oe.sc" unicode="" horiz-adv-x="813" d="M752 502V385h-36c-22 56-31 80-108 80H415v-2c103-66 111-143 114-176h67c51 0 57 23 66 61h36V178h-36l-4 16c-9 38-12 54-88 54h-38C521 138 482 86 409 41v-2h182c87 0 115 33 151 87h41L742 0H317c-55 0-111 5-158 32C93 70 41 147 41 250c0 98 48 166 89 200 60 50 139 52 181 52h441zM137 294c0-108 26-171 70-210 19-17 55-35 94-35 65 0 135 64 135 177 0 109-49 235-159 235-98 0-140-99-140-167z"/><glyph glyph-name="oslash.sc" unicode="" horiz-adv-x="594" d="M405 403c-30 40-66 72-122 72-61 0-97-32-118-73-21-42-26-90-26-129 0-28 13-109 27-135zm19-37L187 103c31-58 93-71 121-71 69 0 105 36 125 77s22 88 22 107c0 62-14 115-31 150zm60 67c45-56 67-101 67-173C551 107 441-9 294-9c-68 0-112 19-158 55L76-20 47 6l60 67c-47 44-64 140-64 179 0 114 86 262 256 262 34 0 125-18 156-55l60 65 27-27z"/><glyph glyph-name="ugrave.sc" unicode="" horiz-adv-x="573" d="M551 502v-37c-63-17-73-33-73-121V191C478 63 420-8 293-8 118-8 92 80 92 189v195c0 43-9 74-77 81v37h246v-37c-83-8-85-43-85-94V175c0-101 52-134 120-134 94 0 140 55 140 151v192c0 43-10 74-78 81v37h193zM178 716h109l51-169h-17z"/><glyph glyph-name="uacute.sc" unicode="" horiz-adv-x="573" d="M551 502v-37c-63-17-73-33-73-121V191C478 63 420-8 293-8 118-8 92 80 92 189v195c0 43-9 74-77 81v37h246v-37c-83-8-85-43-85-94V175c0-101 52-134 120-134 94 0 140 55 140 151v192c0 43-10 74-78 81v37h193zM395 716L252 547h-17l51 169h109z"/><glyph glyph-name="ucircumflex.sc" unicode="" horiz-adv-x="573" d="M551 502v-37c-63-17-73-33-73-121V191C478 63 420-8 293-8 118-8 92 80 92 189v195c0 43-9 74-77 81v37h246v-37c-83-8-85-43-85-94V175c0-101 52-134 120-134 94 0 140 55 140 151v192c0 43-10 74-78 81v37h193zM241 703h90l93-161h-15L276 646 164 542h-15z"/><glyph glyph-name="udieresis.sc" unicode="" horiz-adv-x="573" d="M551 502v-37c-63-17-73-33-73-121V191C478 63 420-8 293-8 118-8 92 80 92 189v195c0 43-9 74-77 81v37h246v-37c-83-8-85-43-85-94V175c0-101 52-134 120-134 94 0 140 55 140 151v192c0 43-10 74-78 81v37h193zM373 696c28 0 53-23 53-53s-24-53-53-53-53 23-53 53 24 53 53 53zm-172 0c28 0 53-23 53-53s-24-53-53-53-53 23-53 53 24 53 53 53z"/><glyph glyph-name="yacute.sc" unicode="" horiz-adv-x="552" d="M6 502h236v-37c-27-1-55-9-55-33 0-15 10-32 27-57l85-124 63 86c16 22 44 63 44 84 0 28-25 41-51 44v37h191v-37c-27 1-44-4-83-57l-31-42c-4-5-8-11-10-13L315 208v-71c0-48 0-101 85-100V0H147v37c84-1 84 52 84 100v65L130 355c-5 8-8 13-36 52-37 51-51 59-88 58v37zm379 214L242 547h-17l51 169h109z"/><glyph glyph-name="thorn.sc" unicode="" horiz-adv-x="510" d="M30 502h247v-37c-31-1-78-3-82-73h77c50 0 99-3 139-27s68-64 68-112c0-41-22-88-61-114-44-29-103-29-129-29h-94c1-64 36-70 89-73V0H26v37c82 2 82 56 82 103v243c0 66-29 77-78 82v37zm165-355h95c67 0 93 40 93 96 0 110-93 112-134 112h-54V147z"/><glyph glyph-name="ydieresis.sc" unicode="" horiz-adv-x="552" d="M6 502h236v-37c-27-1-55-9-55-33 0-15 10-32 27-57l85-124 63 86c16 22 44 63 44 84 0 28-25 41-51 44v37h191v-37c-27 1-44-4-83-57l-31-42c-4-5-8-11-10-13L315 208v-71c0-48 0-101 85-100V0H147v37c84-1 84 52 84 100v65L130 355c-5 8-8 13-36 52-37 51-51 59-88 58v37zm357 194c28 0 53-23 53-53s-24-53-53-53-53 23-53 53 24 53 53 53zm-172 0c28 0 53-23 53-53s-24-53-53-53-53 23-53 53 24 53 53 53z"/><glyph glyph-name="Delta" unicode="∆" horiz-adv-x="622" d="M587 0H34v23l254 627 38 11L587 23V0zM484 44L283 545 86 44h398z"/><glyph glyph-name="Omega" unicode="Ω" horiz-adv-x="722" d="M688 136L663 0H430l-6 19c42 75 130 197 129 338-1 203-96 275-193 275-106 0-192-75-192-280 0-135 75-246 128-333l-8-19H57L34 136l23 1c21-62 36-73 76-73h104C174 116 72 207 72 359c0 185 127 302 290 302 167 0 286-110 286-294 0-134-94-233-168-303h109c42 0 52 8 74 73z"/><glyph glyph-name="uni03BC" unicode="μ" horiz-adv-x="500" d="M55 450h84V164c0-82 22-115 69-115 38 0 77 20 112 65v336h84V95c0-36 16-53 32-53 20 0 33 20 39 60h21c-2-79-49-113-97-113-47 0-69 22-79 93-55-66-98-93-151-93-34 0-56 12-75 43h-2c0-111 24-138 24-191 0-31-20-54-46-54s-43 21-43 54c0 55 28 74 28 215v394z"/><glyph glyph-name="pi" unicode="π" horiz-adv-x="553" d="M502 451l23-9c-7-36-22-68-34-85-16-4-40-4-67-4-6-58-5-156-5-223 1-57 13-87 44-87 20 0 32 11 48 29l13-19c-25-44-65-64-101-64-50 0-86 25-86 121 0 86 6 171 11 245-59 1-117 2-156 2v-18c0-216-50-318-64-334-17-7-42-15-57-16L65 5c72 87 91 257 91 353-66 1-91-18-126-44l-14 21c29 35 65 88 164 87 72 0 170-3 264-3 29 0 42 5 58 32z"/><glyph glyph-name="Euro" unicode="€" horiz-adv-x="552" d="M450 298l-11-43H174c15-130 70-225 163-225 66 0 120 44 136 59l26-28c-18-20-82-73-174-73C195-12 98 96 79 255H17l8 43h50v18c0 12 0 25 1 37H17l8 43h57c23 140 107 267 252 267 48 0 98-15 152-45l15-133h-32c-30 96-78 137-142 137-78 0-141-75-154-226h297l-11-43H170v-21c0-11 0-23 1-34h279z"/><glyph glyph-name="afii61289" unicode="ℓ" horiz-adv-x="399" d="M364 113l18-16C344 28 291-10 220-10c-45 0-77 13-97 37-23 27-34 60-34 138v76l-60-43-12 23 71 55v122c0 155 9 206 52 254 25 31 53 45 84 45 59 0 88-60 88-126 0-112-62-198-145-281v-85c0-127 33-163 89-163 46 0 81 33 108 71zM167 455V334c54 63 94 149 94 235 0 55-14 98-45 98-37 0-49-57-49-212z"/><glyph glyph-name="estimated" unicode="℮" horiz-adv-x="814" d="M781 316H174c-3 0-5-1-5-4V128c0-8 3-15 8-21C236 46 317 7 407 7c97 0 183 44 242 112h53C636 40 527-11 406-11 199-11 31 139 31 325c0 187 168 338 375 338 208 0 375-151 375-338v-9zm-137 24v185c0 8-3 16-9 22-59 58-139 96-228 96s-170-39-229-99c-6-6-9-14-9-23V340c0-2 2-6 5-6h466c3 0 4 4 4 6z"/><glyph glyph-name="partialdiff" unicode="∂" horiz-adv-x="519" d="M257 411h1c45 0 102-22 134-69 3 31 7 64 8 100 1 48-6 102-27 151-19 45-68 92-128 92-52 0-101-27-136-56-15-2-39 37-29 60 33 21 79 40 139 40 93 0 156-51 202-135 39-72 48-163 48-219 0-71-12-167-47-240C381 49 316-10 222-10 114-10 42 63 42 182c0 66 26 122 58 158 36 41 95 71 157 71zm21-38h-1c-40 0-77-14-108-56-30-44-43-108-43-173-1-69 35-125 96-125 54 0 91 51 114 99 28 58 38 107 49 184-13 26-54 71-107 71z"/><glyph glyph-name="product" unicode="∏" horiz-adv-x="671" d="M643 654v-24c-84-6-89-13-89-65V19c0-62 7-69 87-75v-25H390v25c77 5 82 9 82 75v572c0 28-6 32-34 32H230c-27 0-32-4-32-28V19c0-61 0-69 75-75v-25H29v25c79 6 86 12 86 75v546c0 53-5 59-89 65v24h617z"/><glyph glyph-name="summation" unicode="∑" horiz-adv-x="542" d="M519 96L477-84H27v23l219 327L33 631v23h444c0-17 7-93 12-155l-26-5c-9 46-20 80-33 100-13 22-28 30-101 30H137l182-306L101-13h256c84 0 95 4 136 116z"/><glyph glyph-name="uni2219" unicode="∙" horiz-adv-x="292" d="M145 389c34 0 62-27 62-61s-28-62-62-62-61 28-61 62 27 61 61 61z"/><glyph glyph-name="radical" unicode="√" horiz-adv-x="535" d="M519 838L357-138l-19-11-213 521-84-41-11 31 150 72L346 14h2l133 833z"/><glyph glyph-name="infinity" unicode="∞" horiz-adv-x="729" d="M682 270v-1c0-94-71-153-146-153-57 0-106 33-171 110-49-58-100-110-176-110-77 0-143 63-143 150 0 88 64 152 150 152 70 0 123-50 173-109 45 50 93 109 173 109 82 0 140-60 140-148zM196 167h1c57 0 102 56 139 97-40 51-80 104-145 104-57 0-91-47-91-103 0-54 39-98 96-98zm341 201h-1c-61 0-109-66-141-100 61-69 95-101 144-101 57 0 89 52 89 99 0 63-38 102-91 102z"/><glyph glyph-name="integral" unicode="∫" horiz-adv-x="360" d="M156 15l-19 387c-16 324 64 397 146 397 24 0 57-14 57-44 0-27-20-41-41-41-31 0-28 44-50 44-21 0-47-29-41-160l18-364c16-343-63-422-147-422-34 0-58 21-58 45-1 24 22 44 48 44s26-47 47-47c30 0 45 64 40 161z"/><glyph glyph-name="approxequal" unicode="≈" horiz-adv-x="529" d="M453 409l34-31c-27-51-68-91-124-91-39 0-66 14-109 39-28 16-55 31-86 31-43 0-69-33-94-69l-35 31c29 54 79 90 134 90 46 0 78-22 104-36 34-20 54-33 87-33 37 0 62 25 89 69zm0-164l34-31c-27-51-67-91-125-91-39 0-66 14-108 38-29 17-55 32-86 32-44 0-70-33-94-69l-35 30c29 55 79 91 134 91 47 0 78-22 104-36 30-17 53-33 87-33 38 0 61 24 89 69z"/><glyph glyph-name="notequal" unicode="≠" horiz-adv-x="529" d="M380 473l-41-89h142v-53H318l-61-133h224v-53H235L185 35l-42 19 41 91H47v53h159l60 133H47v53h241l49 108z"/><glyph glyph-name="lessequal" unicode="≤" horiz-adv-x="529" d="M479 93L52 303v56l427 210v-63L109 333v-2l370-176V93zm3-92H48v55h434V1z"/><glyph glyph-name="greaterequal" unicode="≥" horiz-adv-x="529" d="M53 569l427-210v-57L53 93v62l370 175v2L53 506v63zM481 1H48v55h433V1z"/><glyph glyph-name="lozenge" unicode="◊" horiz-adv-x="543" d="M497 314L303-68h-63L47 314l195 385h61zm-62 0L274 640h-3L108 315 271-11h3z"/><glyph glyph-name="uni00A0" horiz-adv-x="278"/><glyph glyph-name="uni00AD" unicode="­" horiz-adv-x="365" d="M29 199v76h307v-76H29z"/><glyph glyph-name="uni02C9" unicode="ˉ" d="M11 632h311v-63H11v63z"/><glyph glyph-name="h.superior" unicode="" horiz-adv-x="365" d="M114 517l1 2h-2V397c0-27 0-56 52-56v-22H13v22c46 0 46 31 46 56v272l-42 23v15l85 28h11V546c11 11 23 23 40 33s39 17 68 17c86 0 86-73 86-113v-86c0-25 0-56 46-56v-22H203v22c50 0 50 30 50 56v81c0 23 0 72-58 72-30 0-57-15-81-33z"/><glyph glyph-name="zero.alt" unicode="" horiz-adv-x="542" d="M52 328c0 258 123 339 219 339 92 0 219-81 219-339C490 69 363-12 271-12 175-12 52 69 52 328zm99 0c0-157 10-306 120-306 108 0 120 149 120 306s-12 305-120 305-120-148-120-305z"/><glyph glyph-name="one.alt" unicode="" horiz-adv-x="542" d="M281 667h36V145c0-83 3-111 80-111h22V0H123v34h22c78 0 78 32 78 111v294c0 83-3 100-73 100h-38v34c6 1 107 31 169 94z"/><glyph glyph-name="two.alt" unicode="" horiz-adv-x="542" d="M451 166h35L431 0H49v44c202 201 310 310 310 430 0 64-48 123-136 123-71 0-114-38-140-62l-23 23c32 35 99 109 217 109 120 0 181-87 181-168 0-111-110-215-261-356-54-50-60-57-69-65h202c66 0 87 1 121 88z"/><glyph glyph-name="three.alt" unicode="" horiz-adv-x="542" d="M122 317l6 32c32 4 91 12 141 45 35 23 63 64 63 111 0 56-47 104-116 104-62 0-105-40-124-59l-22 24c16 21 74 93 184 93 127 0 172-82 172-139 0-85-78-121-105-133 98-27 141-100 141-175 0-106-85-232-269-232-83 0-139 27-139 54 0 16 20 42 41 42 14 0 39-16 53-26 44-31 73-33 91-33 86 0 129 85 129 160 0 95-58 138-150 138-37 0-74-4-96-6z"/><glyph glyph-name="four.alt" unicode="" horiz-adv-x="542" d="M412 156V-12h-94v168H32v59l323 452h57V224h98v-68h-98zM78 224h240v335z"/><glyph glyph-name="five.alt" unicode="" horiz-adv-x="542" d="M445 680l29-15-48-88H210l-48-101c77-13 143-34 192-68 69-48 101-115 101-181 0-88-69-239-275-239C104-12 60 7 60 27c0 15 22 48 42 48 12 0 61-21 71-24 23-7 50-13 75-13 94 0 142 80 142 144 0 152-221 196-303 212l121 261h222z"/><glyph glyph-name="six.alt" unicode="" horiz-adv-x="542" d="M421 667l27-28c-163-44-262-149-287-291 35 28 69 43 97 50 27 7 49 8 58 8 98 0 175-90 175-199 0-120-90-219-215-219-60 0-120 25-159 66-48 50-64 122-64 199 0 81 16 188 97 280 84 96 194 121 271 134zM155 305c-2-17-3-32-3-58 0-173 67-225 128-225 102 0 112 134 112 167 0 76-38 159-121 159-34 0-75-14-116-43z"/><glyph glyph-name="seven.alt" unicode="" horiz-adv-x="542" d="M97 655h396L228-12h-48l232 585H203c-70 0-97 0-119-86H50z"/><glyph glyph-name="eight.alt" unicode="" horiz-adv-x="542" d="M207 321c-78 53-85 57-104 78-36 39-43 74-43 100 0 78 66 168 212 168 31 0 86-4 127-34 36-26 52-65 52-99 0-47-20-102-129-177 104-66 167-119 167-202 0-66-52-167-217-167C73-12 53 110 53 141c0 80 67 123 154 180zm33-22c-73-55-110-106-110-159 0-51 37-118 142-118 81 0 135 52 135 110 0 34-20 64-41 81-19 16-30 23-126 86zm51 79c86 60 103 98 103 139 0 51-35 116-128 116-74 0-129-46-129-102 0-16 1-40 68-92 45-35 73-52 86-61z"/><glyph glyph-name="nine.alt" unicode="" horiz-adv-x="542" d="M121-12L94 16c163 44 262 149 287 291-35-28-69-43-97-50-27-7-49-8-58-8-98 0-175 90-175 199 0 120 90 219 215 219 60 0 120-25 159-66 48-50 64-122 64-199 0-81-16-188-97-280C308 26 198 1 121-12zm266 362c2 17 3 32 3 58 0 173-67 225-128 225-102 0-112-134-112-167 0-76 38-159 121-159 34 0 75 14 116 43z"/><glyph glyph-name="uni2215" unicode="∕" horiz-adv-x="240" d="M-79-22h-53l461 728h53z"/><glyph glyph-name="uni03A9" unicode="Ω" horiz-adv-x="722" d="M688 136L663 0H430l-6 19c42 75 130 197 129 338-1 203-96 275-193 275-106 0-192-75-192-280 0-135 75-246 128-333l-8-19H57L34 136l23 1c21-62 36-73 76-73h104C174 116 72 207 72 359c0 185 127 302 290 302 167 0 286-110 286-294 0-134-94-233-168-303h109c42 0 52 8 74 73z"/><glyph glyph-name="h.superior.001" unicode="" horiz-adv-x="365" d="M114 517l1 2h-2V397c0-27 0-56 52-56v-22H13v22c46 0 46 31 46 56v272l-42 23v15l85 28h11V546c11 11 23 23 40 33s39 17 68 17c86 0 86-73 86-113v-86c0-25 0-56 46-56v-22H203v22c50 0 50 30 50 56v81c0 23 0 72-58 72-30 0-57-15-81-33z"/><glyph glyph-name="onehalf.alt" unicode="" horiz-adv-x="802" d="M198 667V397c0-46 3-54 42-54h18v-23H72v23h19c39 0 40 11 40 54v150c0 43 0 48-37 48H66v23c14 3 68 18 103 49h29zm-1-689h-53l461 728h53zM742 91h33L739 0H504v26c119 103 183 158 183 219 0 30-25 60-74 60-41 0-65-19-84-35l-19 18c20 19 61 59 134 59 75 0 113-47 113-88 0-43-34-78-71-113-40-37-94-80-119-99h108c41 0 47 0 67 44z"/><glyph glyph-name="onequarter.alt" unicode="" horiz-adv-x="802" d="M729 79V-6h-67v85H494v34l192 234h43V121h58V79h-58zm-194 42h127v153zM198 667V397c0-46 3-54 42-54h18v-23H72v23h19c39 0 40 11 40 54v150c0 43 0 48-37 48H66v23c14 3 68 18 103 49h29zm11-689h-53l461 728h53z"/><glyph glyph-name="threequarters.alt" unicode="" horiz-adv-x="802" d="M730 79V-6h-67v85H495v34l192 234h43V121h58V79h-58zm-194 42h127v153zM67 481l5 23c51 5 120 22 120 76 0 32-29 50-63 50s-57-18-74-32l-19 18c12 13 47 51 117 51 67 0 106-37 106-74 0-42-40-60-57-68 50-15 78-48 78-90 0-54-52-121-164-121-57 0-89 16-89 30 0 9 14 25 31 25 10 0 26-9 33-13 27-16 42-17 51-17 44 0 71 38 71 79 0 65-61 67-85 67-14 0-19-1-61-4zM197-22h-53l461 728h53z"/><glyph glyph-name="oneeighth.alt" unicode="" horiz-adv-x="802" d="M595 167c-36 20-85 47-85 91 0 41 42 89 131 89 83 0 112-40 112-72 0-42-45-70-75-89 48-28 97-56 97-103 0-40-38-89-134-89-128 0-135 71-135 80 0 43 42 66 89 93zm27-16c-32-21-59-47-59-77 0-29 25-57 78-57 41 0 74 22 74 53 0 29-13 36-93 81zm30 50c47 28 55 46 55 66 0 28-21 57-69 57-45 0-70-26-70-50 0-6 2-11 3-13 11-19 53-45 81-60zM198 667V397c0-46 3-54 42-54h18v-23H72v23h19c39 0 40 11 40 54v150c0 43 0 48-37 48H66v23c14 3 68 18 103 49h29zm-1-689h-53l461 728h53z"/><glyph glyph-name="threeeighths.alt" unicode="" horiz-adv-x="802" d="M595 167c-36 20-85 47-85 91 0 41 42 89 131 89 83 0 112-40 112-72 0-42-45-70-75-89 48-28 97-56 97-103 0-40-38-89-134-89-128 0-135 71-135 80 0 43 42 66 89 93zm27-16c-32-21-59-47-59-77 0-29 25-57 78-57 41 0 74 22 74 53 0 29-13 36-93 81zm30 50c47 28 55 46 55 66 0 28-21 57-69 57-45 0-70-26-70-50 0-6 2-11 3-13 11-19 53-45 81-60zM67 481l5 23c51 5 120 22 120 76 0 32-29 50-63 50s-57-18-74-32l-19 18c12 13 47 51 117 51 67 0 106-37 106-74 0-42-40-60-57-68 50-15 78-48 78-90 0-54-52-121-164-121-57 0-89 16-89 30 0 9 14 25 31 25 10 0 26-9 33-13 27-16 42-17 51-17 44 0 71 38 71 79 0 65-61 67-85 67-14 0-19-1-61-4zM197-22h-53l461 728h53z"/><glyph glyph-name="fiveeighths.alt" unicode="" horiz-adv-x="802" d="M595 167c-36 20-85 47-85 91 0 41 42 89 131 89 83 0 112-40 112-72 0-42-45-70-75-89 48-28 97-56 97-103 0-40-38-89-134-89-128 0-135 71-135 80 0 43 42 66 89 93zm27-16c-32-21-59-47-59-77 0-29 25-57 78-57 41 0 74 22 74 53 0 29-13 36-93 81zm30 50c47 28 55 46 55 66 0 28-21 57-69 57-45 0-70-26-70-50 0-6 2-11 3-13 11-19 53-45 81-60zM262 676l26-12-31-50H130l-25-46c120-17 171-73 171-130 0-46-44-124-168-124-55 0-77 13-77 23 0 8 14 27 30 27 8 0 18-3 22-5 33-11 50-14 64-14 56 0 79 42 79 71 0 75-119 96-180 106l74 139h131zM197-22h-53l461 728h53z"/><glyph glyph-name="seveneighths.alt" unicode="" horiz-adv-x="802" d="M595 167c-36 20-85 47-85 91 0 41 42 89 131 89 83 0 112-40 112-72 0-42-45-70-75-89 48-28 97-56 97-103 0-40-38-89-134-89-128 0-135 71-135 80 0 43 42 66 89 93zm27-16c-32-21-59-47-59-77 0-29 25-57 78-57 41 0 74 22 74 53 0 29-13 36-93 81zm30 50c47 28 55 46 55 66 0 28-21 57-69 57-45 0-70-26-70-50 0-6 2-11 3-13 11-19 53-45 81-60zM54 661h246L140 314h-40l137 298H121c-43 0-52 0-65-43H24zM172-22h-53l461 728h53z"/><glyph glyph-name="onethird.alt" unicode="" horiz-adv-x="802" d="M198 667V397c0-46 3-54 42-54h18v-23H72v23h19c39 0 40 11 40 54v150c0 43 0 48-37 48H66v23c14 3 68 18 103 49h29zm-1-689h-53l461 728h53zm349 183l5 23c51 5 120 22 120 76 0 32-29 50-63 50s-57-18-74-32l-19 18c12 13 47 51 117 51 67 0 106-37 106-74 0-42-40-60-57-68 50-15 78-48 78-90C759 61 707-6 595-6c-57 0-89 16-89 30 0 9 14 25 31 25 10 0 26-9 33-13 27-16 42-17 51-17 44 0 71 38 71 79 0 65-61 67-85 67-14 0-19-1-61-4z"/><glyph glyph-name="twothirds.alt" unicode="" horiz-adv-x="802" d="M263 411h33l-36-91H25v26c119 103 183 158 183 219 0 30-25 60-74 60-41 0-65-19-84-35l-19 18c20 19 61 59 134 59 75 0 113-47 113-88 0-43-34-78-71-113-40-37-94-80-119-99h108c41 0 47 0 67 44zM197-22h-53l461 728h53zm349 183l5 23c51 5 120 22 120 76 0 32-29 50-63 50s-57-18-74-32l-19 18c12 13 47 51 117 51 67 0 106-37 106-74 0-42-40-60-57-68 50-15 78-48 78-90C759 61 707-6 595-6c-57 0-89 16-89 30 0 9 14 25 31 25 10 0 26-9 33-13 27-16 42-17 51-17 44 0 71 38 71 79 0 65-61 67-85 67-14 0-19-1-61-4z"/><glyph glyph-name="zero.superior.alt" unicode="" horiz-adv-x="323" d="M26 490c0 138 80 177 135 177 56 0 136-40 136-177s-81-176-136-176S26 353 26 490zm70 0c0-81 9-153 65-153 58 0 66 73 66 153 0 78-7 154-66 154-56 0-65-72-65-154z"/><glyph glyph-name="one.superior.alt" unicode="" horiz-adv-x="323" d="M198 667V397c0-46 3-54 42-54h18v-23H72v23h19c39 0 40 11 40 54v150c0 43 0 48-37 48H66v23c14 3 68 18 103 49h29z"/><glyph glyph-name="two.superior.alt" unicode="" horiz-adv-x="323" d="M263 411h33l-36-91H25v26c119 103 183 158 183 219 0 30-25 60-74 60-41 0-65-19-84-35l-19 18c20 19 61 59 134 59 75 0 113-47 113-88 0-43-34-78-71-113-40-37-94-80-119-99h108c41 0 47 0 67 44z"/><glyph glyph-name="three.superior.alt" unicode="" horiz-adv-x="323" d="M67 481l5 23c51 5 120 22 120 76 0 32-29 50-63 50s-57-18-74-32l-19 18c12 13 47 51 117 51 67 0 106-37 106-74 0-42-40-60-57-68 50-15 78-48 78-90 0-54-52-121-164-121-57 0-89 16-89 30 0 9 14 25 31 25 10 0 26-9 33-13 27-16 42-17 51-17 44 0 71 38 71 79 0 65-61 67-85 67-14 0-19-1-61-4z"/><glyph glyph-name="four.superior.alt" unicode="" horiz-adv-x="323" d="M250 399v-85h-67v85H15v34l192 234h43V441h58v-42h-58zM56 441h127v153z"/><glyph glyph-name="five.superior.alt" unicode="" horiz-adv-x="323" d="M262 676l26-12-31-50H130l-25-46c120-17 171-73 171-130 0-46-44-124-168-124-55 0-77 13-77 23 0 8 14 27 30 27 8 0 18-3 22-5 33-11 50-14 64-14 56 0 79 42 79 71 0 75-119 96-180 106l74 139h131z"/><glyph glyph-name="six.superior.alt" unicode="" horiz-adv-x="323" d="M253 667l21-19c-102-26-155-73-171-139 13 8 28 14 42 18s29 6 43 6c61 0 109-47 109-104 0-63-55-115-133-115-24 0-137 7-137 138 0 26 3 91 59 145 6 6 69 65 167 70zM97 475c-9-97 27-138 70-138 48 0 60 51 60 80 0 46-24 80-65 80-28 0-55-16-65-22z"/><glyph glyph-name="seven.superior.alt" unicode="" horiz-adv-x="323" d="M54 661h246L140 314h-40l137 298H121c-43 0-52 0-65-43H24z"/><glyph glyph-name="eight.superior.alt" unicode="" horiz-adv-x="323" d="M116 487c-36 20-85 47-85 91 0 41 42 89 131 89 83 0 112-40 112-72 0-42-45-70-75-89 48-28 97-56 97-103 0-40-38-89-134-89-128 0-135 71-135 80 0 43 42 66 89 93zm27-16c-32-21-59-47-59-77 0-29 25-57 78-57 41 0 74 22 74 53 0 29-13 36-93 81zm30 50c47 28 55 46 55 66 0 28-21 57-69 57-45 0-70-26-70-50 0-6 2-11 3-13 11-19 53-45 81-60z"/><glyph glyph-name="nine.superior.alt" unicode="" horiz-adv-x="323" d="M70 314l-21 19c102 26 155 73 171 139-13-8-28-14-42-18s-29-6-43-6c-61 0-109 47-109 104 0 63 55 115 133 115 24 0 137-7 137-138 0-26-3-91-59-145-6-6-69-65-167-70zm156 192c9 97-27 138-70 138-48 0-60-51-60-80 0-46 24-80 65-80 28 0 55 16 65 22z"/><glyph glyph-name="zero.inferior.alt" unicode="" horiz-adv-x="323" d="M26 170c0 138 80 177 135 177 56 0 136-40 136-177S216-6 161-6 26 33 26 170zm70 0c0-81 9-153 65-153 58 0 66 73 66 153 0 78-7 154-66 154-56 0-65-72-65-154z"/><glyph glyph-name="one.inferior.alt" unicode="" horiz-adv-x="323" d="M198 347V77c0-46 3-54 42-54h18V0H72v23h19c39 0 40 11 40 54v150c0 43 0 48-37 48H66v23c14 3 68 18 103 49h29z"/><glyph glyph-name="two.inferior.alt" unicode="" horiz-adv-x="323" d="M263 91h33L260 0H25v26c119 103 183 158 183 219 0 30-25 60-74 60-41 0-65-19-84-35l-19 18c20 19 61 59 134 59 75 0 113-47 113-88 0-43-34-78-71-113-40-37-94-80-119-99h108c41 0 47 0 67 44z"/><glyph glyph-name="three.inferior.alt" unicode="" horiz-adv-x="323" d="M67 161l5 23c51 5 120 22 120 76 0 32-29 50-63 50s-57-18-74-32l-19 18c12 13 47 51 117 51 67 0 106-37 106-74 0-42-40-60-57-68 50-15 78-48 78-90C280 61 228-6 116-6 59-6 27 10 27 24c0 9 14 25 31 25 10 0 26-9 33-13 27-16 42-17 51-17 44 0 71 38 71 79 0 65-61 67-85 67-14 0-19-1-61-4z"/><glyph glyph-name="four.inferior.alt" unicode="" horiz-adv-x="323" d="M250 79V-6h-67v85H15v34l192 234h43V121h58V79h-58zM56 121h127v153z"/><glyph glyph-name="five.inferior.alt" unicode="" horiz-adv-x="323" d="M262 356l26-12-31-50H130l-25-46c120-17 171-73 171-130C276 72 232-6 108-6 53-6 31 7 31 17c0 8 14 27 30 27 8 0 18-3 22-5 33-11 50-14 64-14 56 0 79 42 79 71 0 75-119 96-180 106l74 139h131z"/><glyph glyph-name="six.inferior.alt" unicode="" horiz-adv-x="323" d="M253 347l21-19c-102-26-155-73-171-139 13 8 28 14 42 18s29 6 43 6c61 0 109-47 109-104C297 46 242-6 164-6 140-6 27 1 27 132c0 26 3 91 59 145 6 6 69 65 167 70zM97 155c-9-97 27-138 70-138 48 0 60 51 60 80 0 46-24 80-65 80-28 0-55-16-65-22z"/><glyph glyph-name="seven.inferior.alt" unicode="" horiz-adv-x="323" d="M54 341h246L140-6h-40l137 298H121c-43 0-52 0-65-43H24z"/><glyph glyph-name="eight.inferior.alt" unicode="" horiz-adv-x="323" d="M116 167c-36 20-85 47-85 91 0 41 42 89 131 89 83 0 112-40 112-72 0-42-45-70-75-89 48-28 97-56 97-103 0-40-38-89-134-89C34-6 27 65 27 74c0 43 42 66 89 93zm27-16c-32-21-59-47-59-77 0-29 25-57 78-57 41 0 74 22 74 53 0 29-13 36-93 81zm30 50c47 28 55 46 55 66 0 28-21 57-69 57-45 0-70-26-70-50 0-6 2-11 3-13 11-19 53-45 81-60z"/><glyph glyph-name="nine.inferior.alt" unicode="" horiz-adv-x="323" d="M70-6L49 13c102 26 155 73 171 139-13-8-28-14-42-18s-29-6-43-6c-61 0-109 47-109 104 0 63 55 115 133 115 24 0 137-7 137-138 0-26-3-91-59-145-6-6-69-65-167-70zm156 192c9 97-27 138-70 138-48 0-60-51-60-80 0-46 24-80 65-80 28 0 55 16 65 22z"/><glyph glyph-name="dotlessi.sc" unicode="" horiz-adv-x="313" d="M30 502h253v-37c-81-7-83-39-83-102V137c0-48-1-101 83-100V0H30v37c84 7 83 45 83 103v248c0 52-14 74-83 77v37z"/></font>
</defs>
</svg>
